<svg viewBox="0 0 90 820" xmlns="http://www.w3.org/2000/svg">

  <!-- ground + faint grid -->
  <g stroke="#e8765e" stroke-width="0.6" opacity="0.4" stroke-dasharray="1.5 5">
    <line x1="45" y1="340" x2="45" y2="740"/>
    <line x1="6" y1="430" x2="84" y2="430"/>
    <line x1="6" y1="600" x2="84" y2="600"/>
  </g>

  <!-- rising stem -->
  <path d="M40 296
           C 36 430 33 580 28 700
           C 25 728 21 742 16 752
           L74 752
           C 69 742 65 728 62 700
           C 57 580 54 430 50 296
           C 48 306 42 306 40 296 Z"
        fill="rgba(232,118,94,.12)"
        stroke="#f7dcd2" stroke-width="1.5"
        stroke-linecap="round" stroke-linejoin="round"/>

  <!-- cap: wide billowing umbrella head -->
  <path d="M6 296
           C 2 250 8 206 18 196
           C 16 174 30 168 40 182
           C 42 160 58 158 62 182
           C 72 170 86 206 84 250
           C 86 270 84 286 84 296
           C 76 304 70 298 62 304
           C 56 308 52 300 46 304
           C 40 308 36 300 28 304
           C 18 308 12 300 6 296 Z"
        fill="rgba(232,118,94,.16)"
        stroke="#f7dcd2" stroke-width="1.6"
        stroke-linejoin="round"/>

  <!-- cap billows (staggered convex-up swirls) -->
  <g fill="none" stroke="#f7dcd2" stroke-width="0.8" opacity="0.65">
    <path d="M14 248 q 7 -11 15 -3"/>
    <path d="M34 256 q 8 -12 17 -2"/>
    <path d="M58 246 q 7 -12 16 -3"/>
    <path d="M24 214 q 9 -11 17 -1"/>
    <path d="M50 200 q 8 -10 16 1"/>
    <path d="M40 228 q 6 -9 13 -1"/>
  </g>

  <!-- stem swirl -->
  <g fill="none" stroke="#f7dcd2" stroke-width="0.7" opacity="0.55">
    <path d="M38 420 C 49 432 49 452 39 470"/>
    <path d="M51 540 C 40 556 40 580 51 598"/>
    <path d="M36 622 C 49 638 49 666 37 688"/>
  </g>

  <!-- ground + shock ring -->
  <line x1="6" y1="752" x2="84" y2="752"
        stroke="#f7dcd2" stroke-width="1.2"
        stroke-dasharray="9 3 1.5 3"/>
  <g fill="none" stroke="#e8765e" stroke-width="0.9" opacity="0.7">
    <path d="M6 760 C 20 748 30 748 40 758"/>
    <path d="M84 760 C 70 748 60 748 50 758"/>
  </g>

  <!-- annotations -->
  <g fill="#e8765e" font-family="monospace">
    <text x="84" y="150" font-size="8" transform="rotate(-90 84 150)">FIG. IV — FALLOUT</text>
    <text x="74" y="560" font-size="7.5" transform="rotate(-90 74 560)">T + 09 s</text>
    <text x="10" y="734" font-size="7.5">SITE R-04</text>
  </g>
</svg>
