<svg viewBox="0 0 1280 860" xmlns="http://www.w3.org/2000/svg" fill="none" stroke-linecap="round" stroke-linejoin="round" font-family="monospace">
<g class="fade" stroke="#5d93d6" stroke-width="0.9" opacity="0.7">
  <rect x="26" y="26" width="1228" height="808"/>
  <rect x="34" y="34" width="1212" height="792" stroke="#9db8db" stroke-width="0.6"/>
  <line x1="25" y1="34" x2="43" y2="34" stroke-width="0.7"/>
  <line x1="34" y1="25" x2="34" y2="43" stroke-width="0.7"/>
  <line x1="1237" y1="34" x2="1255" y2="34" stroke-width="0.7"/>
  <line x1="1246" y1="25" x2="1246" y2="43" stroke-width="0.7"/>
  <line x1="25" y1="826" x2="43" y2="826" stroke-width="0.7"/>
  <line x1="34" y1="817" x2="34" y2="835" stroke-width="0.7"/>
  <line x1="1237" y1="826" x2="1255" y2="826" stroke-width="0.7"/>
  <line x1="1246" y1="817" x2="1246" y2="835" stroke-width="0.7"/>
  <line x1="185.5" y1="34" x2="185.5" y2="42" stroke-width="0.6"/>
  <line x1="185.5" y1="818" x2="185.5" y2="826" stroke-width="0.6"/>
  <line x1="337" y1="34" x2="337" y2="42" stroke-width="0.6"/>
  <line x1="337" y1="818" x2="337" y2="826" stroke-width="0.6"/>
  <line x1="488.5" y1="34" x2="488.5" y2="42" stroke-width="0.6"/>
  <line x1="488.5" y1="818" x2="488.5" y2="826" stroke-width="0.6"/>
  <line x1="640" y1="34" x2="640" y2="42" stroke-width="0.6"/>
  <line x1="640" y1="818" x2="640" y2="826" stroke-width="0.6"/>
  <line x1="791.5" y1="34" x2="791.5" y2="42" stroke-width="0.6"/>
  <line x1="791.5" y1="818" x2="791.5" y2="826" stroke-width="0.6"/>
  <line x1="943" y1="34" x2="943" y2="42" stroke-width="0.6"/>
  <line x1="943" y1="818" x2="943" y2="826" stroke-width="0.6"/>
  <line x1="1094.5" y1="34" x2="1094.5" y2="42" stroke-width="0.6"/>
  <line x1="1094.5" y1="818" x2="1094.5" y2="826" stroke-width="0.6"/>
  <line x1="34" y1="192.4" x2="42" y2="192.4" stroke-width="0.6"/>
  <line x1="1238" y1="192.4" x2="1246" y2="192.4" stroke-width="0.6"/>
  <line x1="34" y1="350.8" x2="42" y2="350.8" stroke-width="0.6"/>
  <line x1="1238" y1="350.8" x2="1246" y2="350.8" stroke-width="0.6"/>
  <line x1="34" y1="509.2" x2="42" y2="509.2" stroke-width="0.6"/>
  <line x1="1238" y1="509.2" x2="1246" y2="509.2" stroke-width="0.6"/>
  <line x1="34" y1="667.6" x2="42" y2="667.6" stroke-width="0.6"/>
  <line x1="1238" y1="667.6" x2="1246" y2="667.6" stroke-width="0.6"/>
</g>
<g class="fade" fill="#5d93d6" stroke="none" font-size="8" opacity="0.6" text-anchor="middle">
  <text x="185.5" y="31" font-size="8" >1</text>
  <text x="337" y="31" font-size="8" >2</text>
  <text x="488.5" y="31" font-size="8" >3</text>
  <text x="640" y="31" font-size="8" >4</text>
  <text x="791.5" y="31" font-size="8" >5</text>
  <text x="943" y="31" font-size="8" >6</text>
  <text x="1094.5" y="31" font-size="8" >7</text>
  <text x="30" y="195.4" font-size="8" >A</text>
  <text x="30" y="353.8" font-size="8" >B</text>
  <text x="30" y="512.2" font-size="8" >C</text>
  <text x="30" y="670.6" font-size="8" >D</text>
</g>
<g class="fade ink-blue" stroke="#5d93d6" stroke-width="1" opacity="0.55">
  <line x1="608.8" y1="48.87" x2="691.2" y2="813.13" stroke-dasharray="2 4 10 4"/>
  <line x1="270.34" y1="697.12" x2="1077.66" y2="610.08" stroke-dasharray="2 4 10 4" opacity="0.7"/>
  <line x1="674" y1="653.6" x2="1034" y2="653.6" stroke="#9db8db" stroke-width="0.4" stroke-dasharray="1 7" opacity="0.45"/>
  <line x1="674" y1="653.6" x2="928.56" y2="908.16" stroke="#9db8db" stroke-width="0.4" stroke-dasharray="1 7" opacity="0.45"/>
  <line x1="674" y1="653.6" x2="674" y2="1013.6" stroke="#9db8db" stroke-width="0.4" stroke-dasharray="1 7" opacity="0.45"/>
  <line x1="674" y1="653.6" x2="419.44" y2="908.16" stroke="#9db8db" stroke-width="0.4" stroke-dasharray="1 7" opacity="0.45"/>
  <line x1="674" y1="653.6" x2="314" y2="653.6" stroke="#9db8db" stroke-width="0.4" stroke-dasharray="1 7" opacity="0.45"/>
  <line x1="674" y1="653.6" x2="419.44" y2="399.04" stroke="#9db8db" stroke-width="0.4" stroke-dasharray="1 7" opacity="0.45"/>
  <line x1="674" y1="653.6" x2="674" y2="293.6" stroke="#9db8db" stroke-width="0.4" stroke-dasharray="1 7" opacity="0.45"/>
  <line x1="674" y1="653.6" x2="928.56" y2="399.04" stroke="#9db8db" stroke-width="0.4" stroke-dasharray="1 7" opacity="0.45"/>
</g>
<g stroke="#eaf1f8" stroke-width="1.6">
  <line x1="616.96" y1="59.25" x2="696.96" y2="801.25" />
  <line x1="603.04" y1="60.75" x2="683.04" y2="802.75" />
</g>
<g stroke="#9db8db" stroke-width="0.8">
  <line x1="619.36" y1="81.51" x2="605.44" y2="83.01" />
  <line x1="619.36" y1="81.51" x2="608.86" y2="114.71" />
  <line x1="605.44" y1="83.01" x2="622.78" y2="113.21" />
  <line x1="622.78" y1="113.21" x2="608.86" y2="114.71" />
  <line x1="622.78" y1="113.21" x2="612.28" y2="146.42" />
  <line x1="608.86" y1="114.71" x2="626.2" y2="144.92" />
  <line x1="626.2" y1="144.92" x2="612.28" y2="146.42" />
  <line x1="626.2" y1="144.92" x2="615.69" y2="178.12" />
  <line x1="612.28" y1="146.42" x2="629.61" y2="176.62" />
  <line x1="629.61" y1="176.62" x2="615.69" y2="178.12" />
  <line x1="629.61" y1="176.62" x2="619.11" y2="209.82" />
  <line x1="615.69" y1="178.12" x2="633.03" y2="208.32" />
  <line x1="633.03" y1="208.32" x2="619.11" y2="209.82" />
  <line x1="633.03" y1="208.32" x2="622.53" y2="241.53" />
  <line x1="619.11" y1="209.82" x2="636.45" y2="240.03" />
  <line x1="636.45" y1="240.03" x2="622.53" y2="241.53" />
  <line x1="636.45" y1="240.03" x2="625.95" y2="273.23" />
  <line x1="622.53" y1="241.53" x2="639.87" y2="271.73" />
  <line x1="639.87" y1="271.73" x2="625.95" y2="273.23" />
  <line x1="639.87" y1="271.73" x2="629.37" y2="304.94" />
  <line x1="625.95" y1="273.23" x2="643.29" y2="303.44" />
  <line x1="643.29" y1="303.44" x2="629.37" y2="304.94" />
  <line x1="643.29" y1="303.44" x2="632.79" y2="336.64" />
  <line x1="629.37" y1="304.94" x2="646.71" y2="335.14" />
  <line x1="646.71" y1="335.14" x2="632.79" y2="336.64" />
  <line x1="646.71" y1="335.14" x2="636.2" y2="368.34" />
  <line x1="632.79" y1="336.64" x2="650.12" y2="366.84" />
  <line x1="650.12" y1="366.84" x2="636.2" y2="368.34" />
  <line x1="650.12" y1="366.84" x2="639.62" y2="400.05" />
  <line x1="636.2" y1="368.34" x2="653.54" y2="398.55" />
  <line x1="653.54" y1="398.55" x2="639.62" y2="400.05" />
  <line x1="653.54" y1="398.55" x2="643.04" y2="431.75" />
  <line x1="639.62" y1="400.05" x2="656.96" y2="430.25" />
  <line x1="656.96" y1="430.25" x2="643.04" y2="431.75" />
  <line x1="656.96" y1="430.25" x2="646.46" y2="463.45" />
  <line x1="643.04" y1="431.75" x2="660.38" y2="461.95" />
  <line x1="660.38" y1="461.95" x2="646.46" y2="463.45" />
  <line x1="660.38" y1="461.95" x2="649.88" y2="495.16" />
  <line x1="646.46" y1="463.45" x2="663.8" y2="493.66" />
  <line x1="663.8" y1="493.66" x2="649.88" y2="495.16" />
  <line x1="663.8" y1="493.66" x2="653.29" y2="526.86" />
  <line x1="649.88" y1="495.16" x2="667.21" y2="525.36" />
  <line x1="667.21" y1="525.36" x2="653.29" y2="526.86" />
  <line x1="667.21" y1="525.36" x2="656.71" y2="558.56" />
  <line x1="653.29" y1="526.86" x2="670.63" y2="557.06" />
  <line x1="670.63" y1="557.06" x2="656.71" y2="558.56" />
  <line x1="670.63" y1="557.06" x2="660.13" y2="590.27" />
  <line x1="656.71" y1="558.56" x2="674.05" y2="588.77" />
  <line x1="674.05" y1="588.77" x2="660.13" y2="590.27" />
  <line x1="674.05" y1="588.77" x2="663.55" y2="621.97" />
  <line x1="660.13" y1="590.27" x2="677.47" y2="620.47" />
  <line x1="677.47" y1="620.47" x2="663.55" y2="621.97" />
  <line x1="677.47" y1="620.47" x2="666.97" y2="653.68" />
  <line x1="663.55" y1="621.97" x2="680.89" y2="652.18" />
  <line x1="680.89" y1="652.18" x2="666.97" y2="653.68" />
  <line x1="680.89" y1="652.18" x2="670.39" y2="685.38" />
  <line x1="666.97" y1="653.68" x2="684.31" y2="683.88" />
  <line x1="684.31" y1="683.88" x2="670.39" y2="685.38" />
  <line x1="684.31" y1="683.88" x2="673.8" y2="717.08" />
  <line x1="670.39" y1="685.38" x2="687.72" y2="715.58" />
  <line x1="687.72" y1="715.58" x2="673.8" y2="717.08" />
  <line x1="687.72" y1="715.58" x2="677.22" y2="748.79" />
  <line x1="673.8" y1="717.08" x2="691.14" y2="747.29" />
  <line x1="691.14" y1="747.29" x2="677.22" y2="748.79" />
  <line x1="691.14" y1="747.29" x2="680.64" y2="780.49" />
  <line x1="677.22" y1="748.79" x2="694.56" y2="778.99" />
  <line x1="694.56" y1="778.99" x2="680.64" y2="780.49" />
</g>
<g stroke="#7fa6d6" stroke-width="0.8">
  <line x1="605.85" y1="105.48" x2="598.89" y2="106.24" />
  <line x1="617.85" y1="216.78" x2="610.89" y2="217.54" />
  <line x1="629.85" y1="328.08" x2="622.89" y2="328.84" />
  <line x1="641.85" y1="439.38" x2="634.89" y2="440.14" />
  <line x1="653.85" y1="550.68" x2="646.89" y2="551.44" />
  <line x1="665.85" y1="661.98" x2="658.89" y2="662.74" />
  <line x1="677.85" y1="773.28" x2="670.89" y2="774.04" />
</g>
<g class="fade" fill="#9db8db" stroke="none" font-size="6.5">
  <text x="585.93" y="108.99" font-size="6.5" >S0</text>
  <text x="597.93" y="220.29" font-size="6.5" >S1</text>
  <text x="609.93" y="331.59" font-size="6.5" >S2</text>
  <text x="621.93" y="442.89" font-size="6.5" >S3</text>
  <text x="633.93" y="554.19" font-size="6.5" >S4</text>
  <text x="645.93" y="665.49" font-size="6.5" >S5</text>
  <text x="657.93" y="776.79" font-size="6.5" >S6</text>
</g>
<g stroke="#9db8db" stroke-width="1">
  <line x1="614" y1="97.1" x2="635.87" y2="94.74" />
  <line x1="614" y1="97.1" x2="592.13" y2="99.46" />
  <circle cx="635.87" cy="94.74" r="2.6"/>
  <circle cx="592.13" cy="99.46" r="2.6"/>
  <line x1="616.8" y1="123.07" x2="638.67" y2="120.71" />
  <line x1="616.8" y1="123.07" x2="594.93" y2="125.43" />
  <circle cx="638.67" cy="120.71" r="2.6"/>
  <circle cx="594.93" cy="125.43" r="2.6"/>
</g>
<g stroke="#7fa6d6" stroke-width="0.7">
  <line x1="668.08" y1="729.3" x2="624.33" y2="734.02" />
  <line x1="674.08" y1="784.95" x2="630.33" y2="789.67" />
  <line x1="668.08" y1="729.3" x2="674.08" y2="784.95" />
  <line x1="624.33" y1="734.02" x2="630.33" y2="789.67" />
  <line x1="669.58" y1="743.21" x2="625.83" y2="747.93" />
  <line x1="671.08" y1="757.13" x2="627.33" y2="761.85" />
  <line x1="672.58" y1="771.04" x2="628.83" y2="775.76" />
  <line x1="695.92" y1="726.3" x2="739.67" y2="721.58" />
  <line x1="701.92" y1="781.95" x2="745.67" y2="777.23" />
  <line x1="695.92" y1="726.3" x2="701.92" y2="781.95" />
  <line x1="739.67" y1="721.58" x2="745.67" y2="777.23" />
  <line x1="697.42" y1="740.21" x2="741.17" y2="735.49" />
  <line x1="698.92" y1="754.13" x2="742.67" y2="749.41" />
  <line x1="700.42" y1="768.04" x2="744.17" y2="763.32" />
</g>
<g stroke="#eaf1f8" stroke-width="1.3">
  <ellipse cx="620.8" cy="160.17" rx="47.5" ry="15.68" transform="rotate(-6.15 620.8 160.17)" />
  <ellipse cx="620.8" cy="160.17" rx="45.25" ry="14.94" transform="rotate(-6.15 620.8 160.17)" stroke="#cfe0f4" stroke-width="0.78"/>
  <ellipse cx="620.8" cy="160.17" rx="42.5" ry="14.03" transform="rotate(-6.15 620.8 160.17)" stroke="#cfe0f4" stroke-width="1.01"/>
</g>
<g stroke="#9db8db" stroke-width="0.7">
  <line x1="668.03" y1="155.08" x2="663.06" y2="155.61" />
  <line x1="665.75" y1="160.72" x2="663.39" y2="160.69" />
  <line x1="658.06" y1="166.29" x2="656.1" y2="165.97" />
  <line x1="645.87" y1="171.13" x2="644.55" y2="170.55" />
  <line x1="630.66" y1="174.64" x2="630.14" y2="173.88" />
  <line x1="614.25" y1="176.41" x2="614.6" y2="175.55" />
  <line x1="598.64" y1="176.22" x2="600.97" y2="174.53" />
  <line x1="585.7" y1="174.09" x2="587.55" y2="173.36" />
  <line x1="577" y1="170.29" x2="579.3" y2="169.75" />
  <line x1="573.57" y1="165.26" x2="576.06" y2="164.99" />
  <line x1="575.85" y1="159.62" x2="578.21" y2="159.65" />
  <line x1="583.54" y1="154.05" x2="585.5" y2="154.37" />
  <line x1="595.73" y1="149.21" x2="598.37" y2="150.37" />
  <line x1="610.94" y1="145.7" x2="611.46" y2="146.46" />
  <line x1="627.35" y1="143.93" x2="627" y2="144.79" />
  <line x1="642.96" y1="144.12" x2="641.79" y2="144.97" />
  <line x1="655.9" y1="146.25" x2="654.05" y2="146.98" />
  <line x1="664.6" y1="150.05" x2="662.3" y2="150.59" />
</g>
<g stroke="#7fa6d6" stroke-width="0.7" opacity="0.85">
  <line x1="620.8" y1="160.17" x2="662.64" y2="158.19" />
  <line x1="620.8" y1="160.17" x2="636.45" y2="171.77" />
  <line x1="620.8" y1="160.17" x2="594.61" y2="173.75" />
  <line x1="620.8" y1="160.17" x2="578.96" y2="162.15" />
  <line x1="620.8" y1="160.17" x2="605.15" y2="148.57" />
  <line x1="620.8" y1="160.17" x2="646.99" y2="146.59" />
</g>
<g class="fade" fill="#eaf1f8" stroke="none">
  <circle cx="665.48" cy="156.84" r="1"/>
  <circle cx="653.17" cy="167.38" r="1"/>
  <circle cx="625.72" cy="174.54" r="1"/>
  <circle cx="595.97" cy="174.98" r="1"/>
  <circle cx="577.83" cy="168.49" r="1"/>
  <circle cx="579.8" cy="158.1" r="1"/>
  <circle cx="600.96" cy="148.69" r="1"/>
  <circle cx="631.4" cy="144.65" r="1"/>
  <circle cx="656.88" cy="147.87" r="1"/>
</g>
<g stroke="#eaf1f8" stroke-width="1.04">
  <circle cx="620.8" cy="160.17" r="5"/>
</g>
<g stroke="#eaf1f8" stroke-width="1.6">
  <ellipse cx="646.8" cy="401.32" rx="190" ry="62.7" transform="rotate(-6.15 646.8 401.32)" />
  <ellipse cx="646.8" cy="401.32" rx="182.35" ry="60.18" transform="rotate(-6.15 646.8 401.32)" stroke="#cfe0f4" stroke-width="0.96"/>
  <ellipse cx="646.8" cy="401.32" rx="173" ry="57.09" transform="rotate(-6.15 646.8 401.32)" stroke="#cfe0f4" stroke-width="1.25"/>
</g>
<g stroke="#9db8db" stroke-width="0.85">
  <line x1="835.71" y1="380.95" x2="818.8" y2="382.78" />
  <line x1="834.43" y1="390.96" x2="826.04" y2="391.42" />
  <line x1="828.54" y1="401.21" x2="820.41" y2="401.22" />
  <line x1="818.17" y1="411.47" x2="810.5" y2="411.02" />
  <line x1="803.58" y1="421.48" x2="796.56" y2="420.58" />
  <line x1="785.13" y1="431" x2="772.75" y2="428.34" />
  <line x1="763.27" y1="439.78" x2="758.06" y2="438.06" />
  <line x1="738.55" y1="447.62" x2="734.45" y2="445.55" />
  <line x1="711.57" y1="454.31" x2="708.67" y2="451.94" />
  <line x1="682.99" y1="459.71" x2="681.37" y2="457.09" />
  <line x1="653.52" y1="463.66" x2="652.92" y2="458.08" />
  <line x1="623.89" y1="466.08" x2="624.91" y2="463.18" />
  <line x1="594.82" y1="466.9" x2="597.14" y2="463.97" />
  <line x1="567.03" y1="466.11" x2="570.6" y2="463.21" />
  <line x1="541.2" y1="463.72" x2="545.93" y2="460.93" />
  <line x1="517.98" y1="459.8" x2="529.5" y2="454.57" />
  <line x1="497.92" y1="454.44" x2="504.58" y2="452.06" />
  <line x1="481.54" y1="447.77" x2="488.93" y2="445.69" />
  <line x1="469.22" y1="439.95" x2="477.16" y2="438.23" />
  <line x1="461.27" y1="431.19" x2="469.57" y2="429.85" />
  <line x1="457.89" y1="421.69" x2="474.8" y2="419.86" />
  <line x1="459.17" y1="411.68" x2="467.56" y2="411.22" />
  <line x1="465.06" y1="401.43" x2="473.19" y2="401.42" />
  <line x1="475.43" y1="391.17" x2="483.1" y2="391.62" />
  <line x1="490.02" y1="381.16" x2="497.04" y2="382.06" />
  <line x1="508.47" y1="371.64" x2="520.85" y2="374.3" />
  <line x1="530.33" y1="362.86" x2="535.54" y2="364.58" />
  <line x1="555.05" y1="355.02" x2="559.15" y2="357.09" />
  <line x1="582.03" y1="348.33" x2="584.93" y2="350.7" />
  <line x1="610.61" y1="342.93" x2="612.23" y2="345.55" />
  <line x1="640.08" y1="338.98" x2="640.68" y2="344.56" />
  <line x1="669.71" y1="336.56" x2="668.69" y2="339.46" />
  <line x1="698.78" y1="335.74" x2="696.46" y2="338.67" />
  <line x1="726.57" y1="336.53" x2="723" y2="339.43" />
  <line x1="752.4" y1="338.92" x2="747.67" y2="341.71" />
  <line x1="775.62" y1="342.84" x2="764.1" y2="348.07" />
  <line x1="795.68" y1="348.2" x2="789.02" y2="350.58" />
  <line x1="812.06" y1="354.87" x2="804.67" y2="356.95" />
  <line x1="824.38" y1="362.69" x2="816.44" y2="364.41" />
  <line x1="832.33" y1="371.45" x2="824.03" y2="372.79" />
</g>
<g stroke="#7fa6d6" stroke-width="0.7" opacity="0.85">
  <line x1="646.8" y1="401.32" x2="817.12" y2="393.24" />
  <line x1="646.8" y1="401.32" x2="781.91" y2="423.9" />
  <line x1="646.8" y1="401.32" x2="710.51" y2="448.52" />
  <line x1="646.8" y1="401.32" x2="622.03" y2="460.48" />
  <line x1="646.8" y1="401.32" x2="540.19" y2="456.6" />
  <line x1="646.8" y1="401.32" x2="486.91" y2="437.9" />
  <line x1="646.8" y1="401.32" x2="476.48" y2="409.4" />
  <line x1="646.8" y1="401.32" x2="511.69" y2="378.74" />
  <line x1="646.8" y1="401.32" x2="583.09" y2="354.12" />
  <line x1="646.8" y1="401.32" x2="671.57" y2="342.16" />
  <line x1="646.8" y1="401.32" x2="753.41" y2="346.04" />
  <line x1="646.8" y1="401.32" x2="806.69" y2="364.74" />
</g>
<g class="fade" fill="#eaf1f8" stroke="none">
  <circle cx="826.99" cy="387.91" r="1.3"/>
  <circle cx="817.84" cy="404.2" r="1.3"/>
  <circle cx="797.04" cy="420.3" r="1.3"/>
  <circle cx="765.99" cy="435.11" r="1.3"/>
  <circle cx="726.83" cy="447.61" r="1.3"/>
  <circle cx="682.21" cy="456.96" r="1.3"/>
  <circle cx="635.17" cy="462.51" r="1.3"/>
  <circle cx="588.93" cy="463.9" r="1.3"/>
  <circle cx="546.63" cy="461.02" r="1.3"/>
  <circle cx="511.16" cy="454.08" r="1.3"/>
  <circle cx="484.93" cy="443.53" r="1.3"/>
  <circle cx="469.74" cy="430.12" r="1.3"/>
  <circle cx="466.61" cy="414.73" r="1.3"/>
  <circle cx="475.76" cy="398.44" r="1.3"/>
  <circle cx="496.56" cy="382.34" r="1.3"/>
  <circle cx="527.61" cy="367.53" r="1.3"/>
  <circle cx="566.77" cy="355.03" r="1.3"/>
  <circle cx="611.39" cy="345.68" r="1.3"/>
  <circle cx="658.43" cy="340.13" r="1.3"/>
  <circle cx="704.67" cy="338.74" r="1.3"/>
  <circle cx="746.97" cy="341.62" r="1.3"/>
  <circle cx="782.44" cy="348.56" r="1.3"/>
  <circle cx="808.67" cy="359.11" r="1.3"/>
  <circle cx="823.86" cy="372.52" r="1.3"/>
</g>
<g stroke="#eaf1f8" stroke-width="1.28">
  <circle cx="646.8" cy="401.32" r="10"/>
  <circle cx="646.8" cy="401.32" r="5" stroke="#9db8db" stroke-width="0.9"/>
</g>
<g stroke="#eaf1f8" stroke-width="1.9">
  <ellipse cx="674" cy="653.6" rx="380" ry="125.4" transform="rotate(-6.15 674 653.6)" />
  <ellipse cx="674" cy="653.6" rx="365.15" ry="120.5" transform="rotate(-6.15 674 653.6)" stroke="#cfe0f4" stroke-width="1.14"/>
  <ellipse cx="674" cy="653.6" rx="347" ry="114.51" transform="rotate(-6.15 674 653.6)" stroke="#cfe0f4" stroke-width="1.48"/>
</g>
<g stroke="#9db8db" stroke-width="0.95">
  <line x1="1051.81" y1="612.87" x2="1019" y2="616.4" />
  <line x1="1051.05" y1="626.58" x2="1034.68" y2="627.76" />
  <line x1="1045.87" y1="640.62" x2="1029.72" y2="641.18" />
  <line x1="1036.33" y1="654.81" x2="1020.59" y2="654.76" />
  <line x1="1022.54" y1="668.98" x2="1007.4" y2="668.31" />
  <line x1="1004.66" y1="682.97" x2="990.3" y2="681.7" />
  <line x1="982.91" y1="696.62" x2="969.49" y2="694.76" />
  <line x1="957.53" y1="709.77" x2="932.91" y2="704.89" />
  <line x1="928.83" y1="722.25" x2="917.77" y2="719.27" />
  <line x1="897.15" y1="733.93" x2="887.46" y2="730.45" />
  <line x1="862.85" y1="744.67" x2="854.65" y2="740.72" />
  <line x1="826.33" y1="754.35" x2="819.72" y2="749.97" />
  <line x1="788.03" y1="762.84" x2="783.08" y2="758.09" />
  <line x1="748.39" y1="770.04" x2="745.16" y2="764.99" />
  <line x1="707.88" y1="775.89" x2="704.93" y2="765.27" />
  <line x1="666.97" y1="780.3" x2="667.27" y2="774.8" />
  <line x1="626.14" y1="783.23" x2="628.22" y2="777.6" />
  <line x1="585.88" y1="784.63" x2="589.7" y2="778.94" />
  <line x1="546.65" y1="784.5" x2="552.18" y2="778.82" />
  <line x1="508.91" y1="782.83" x2="516.08" y2="777.22" />
  <line x1="473.1" y1="779.65" x2="481.83" y2="774.18" />
  <line x1="439.66" y1="775" x2="460.01" y2="764.45" />
  <line x1="408.96" y1="768.91" x2="420.46" y2="763.91" />
  <line x1="381.36" y1="761.48" x2="394.07" y2="756.8" />
  <line x1="357.2" y1="752.78" x2="370.96" y2="748.47" />
  <line x1="336.75" y1="742.92" x2="351.4" y2="739.04" />
  <line x1="320.26" y1="732.01" x2="335.62" y2="728.61" />
  <line x1="307.91" y1="720.18" x2="323.81" y2="717.29" />
  <line x1="299.86" y1="707.58" x2="332.35" y2="702.89" />
  <line x1="296.19" y1="694.33" x2="312.59" y2="692.57" />
  <line x1="296.95" y1="680.62" x2="313.32" y2="679.44" />
  <line x1="302.13" y1="666.58" x2="318.28" y2="666.02" />
  <line x1="311.67" y1="652.39" x2="327.41" y2="652.44" />
  <line x1="325.46" y1="638.22" x2="340.6" y2="638.89" />
  <line x1="343.34" y1="624.23" x2="357.7" y2="625.5" />
  <line x1="365.09" y1="610.58" x2="391.92" y2="614.31" />
  <line x1="390.47" y1="597.43" x2="402.78" y2="599.87" />
  <line x1="419.17" y1="584.95" x2="430.23" y2="587.93" />
  <line x1="450.85" y1="573.27" x2="460.54" y2="576.75" />
  <line x1="485.15" y1="562.53" x2="493.35" y2="566.48" />
  <line x1="521.67" y1="552.85" x2="528.28" y2="557.23" />
  <line x1="559.97" y1="544.36" x2="564.92" y2="549.11" />
  <line x1="599.61" y1="537.16" x2="606.07" y2="547.27" />
  <line x1="640.12" y1="531.31" x2="641.59" y2="536.62" />
  <line x1="681.03" y1="526.9" x2="680.73" y2="532.4" />
  <line x1="721.86" y1="523.97" x2="719.78" y2="529.6" />
  <line x1="762.12" y1="522.57" x2="758.3" y2="528.26" />
  <line x1="801.35" y1="522.7" x2="795.82" y2="528.38" />
  <line x1="839.09" y1="524.37" x2="831.92" y2="529.98" />
  <line x1="874.9" y1="527.55" x2="857.45" y2="538.49" />
  <line x1="908.34" y1="532.2" x2="898.17" y2="537.48" />
  <line x1="939.04" y1="538.29" x2="927.54" y2="543.29" />
  <line x1="966.64" y1="545.72" x2="953.93" y2="550.4" />
  <line x1="990.8" y1="554.42" x2="977.04" y2="558.73" />
  <line x1="1011.25" y1="564.28" x2="996.6" y2="568.16" />
  <line x1="1027.74" y1="575.19" x2="1012.38" y2="578.59" />
  <line x1="1040.09" y1="587.02" x2="1008.3" y2="592.8" />
  <line x1="1048.14" y1="599.62" x2="1031.9" y2="601.97" />
</g>
<g stroke="#7fa6d6" stroke-width="0.7" opacity="0.85">
  <line x1="674" y1="653.6" x2="1015.62" y2="637.39" />
  <line x1="674" y1="653.6" x2="978.03" y2="678.95" />
  <line x1="674" y1="653.6" x2="903.76" y2="717.46" />
  <line x1="674" y1="653.6" x2="801.78" y2="748.26" />
  <line x1="674" y1="653.6" x2="684.39" y2="767.65" />
  <line x1="674" y1="653.6" x2="565.74" y2="773.28" />
  <line x1="674" y1="653.6" x2="460.16" y2="764.48" />
  <line x1="674" y1="653.6" x2="380.36" y2="742.3" />
  <line x1="674" y1="653.6" x2="335.98" y2="709.42" />
  <line x1="674" y1="653.6" x2="332.38" y2="669.81" />
  <line x1="674" y1="653.6" x2="369.97" y2="628.25" />
  <line x1="674" y1="653.6" x2="444.24" y2="589.74" />
  <line x1="674" y1="653.6" x2="546.22" y2="558.94" />
  <line x1="674" y1="653.6" x2="663.61" y2="539.55" />
  <line x1="674" y1="653.6" x2="782.26" y2="533.92" />
  <line x1="674" y1="653.6" x2="887.84" y2="542.72" />
  <line x1="674" y1="653.6" x2="967.64" y2="564.9" />
  <line x1="674" y1="653.6" x2="1012.02" y2="597.78" />
</g>
<g class="fade" fill="#eaf1f8" stroke="none">
  <circle cx="1034.88" cy="626.74" r="1.6"/>
  <circle cx="1026.8" cy="646.24" r="1.6"/>
  <circle cx="1010.03" cy="665.92" r="1.6"/>
  <circle cx="984.98" cy="685.3" r="1.6"/>
  <circle cx="952.27" cy="703.9" r="1.6"/>
  <circle cx="912.72" cy="721.27" r="1.6"/>
  <circle cx="867.28" cy="736.96" r="1.6"/>
  <circle cx="817.09" cy="750.6" r="1.6"/>
  <circle cx="763.37" cy="761.86" r="1.6"/>
  <circle cx="707.46" cy="770.45" r="1.6"/>
  <circle cx="650.71" cy="776.16" r="1.6"/>
  <circle cx="594.55" cy="778.85" r="1.6"/>
  <circle cx="540.33" cy="778.46" r="1.6"/>
  <circle cx="489.41" cy="775" r="1.6"/>
  <circle cx="443.04" cy="768.54" r="1.6"/>
  <circle cx="402.35" cy="759.26" r="1.6"/>
  <circle cx="368.35" cy="747.37" r="1.6"/>
  <circle cx="341.88" cy="733.18" r="1.6"/>
  <circle cx="323.58" cy="717.02" r="1.6"/>
  <circle cx="313.92" cy="699.31" r="1.6"/>
  <circle cx="313.12" cy="680.46" r="1.6"/>
  <circle cx="321.2" cy="660.96" r="1.6"/>
  <circle cx="337.97" cy="641.28" r="1.6"/>
  <circle cx="363.02" cy="621.9" r="1.6"/>
  <circle cx="395.73" cy="603.3" r="1.6"/>
  <circle cx="435.28" cy="585.93" r="1.6"/>
  <circle cx="480.72" cy="570.24" r="1.6"/>
  <circle cx="530.91" cy="556.6" r="1.6"/>
  <circle cx="584.63" cy="545.34" r="1.6"/>
  <circle cx="640.54" cy="536.75" r="1.6"/>
  <circle cx="697.29" cy="531.04" r="1.6"/>
  <circle cx="753.45" cy="528.35" r="1.6"/>
  <circle cx="807.67" cy="528.74" r="1.6"/>
  <circle cx="858.59" cy="532.2" r="1.6"/>
  <circle cx="904.96" cy="538.66" r="1.6"/>
  <circle cx="945.65" cy="547.94" r="1.6"/>
  <circle cx="979.65" cy="559.83" r="1.6"/>
  <circle cx="1006.12" cy="574.02" r="1.6"/>
  <circle cx="1024.42" cy="590.18" r="1.6"/>
  <circle cx="1034.08" cy="607.89" r="1.6"/>
</g>
<g stroke="#eaf1f8" stroke-width="1.52">
  <circle cx="674" cy="653.6" r="15"/>
  <circle cx="674" cy="653.6" r="7.5" stroke="#9db8db" stroke-width="0.9"/>
</g>
<g stroke="#eaf1f8" stroke-width="1.4">
  <line x1="620.15" y1="70.17" x2="602.25" y2="72.09" />
  <line x1="622.15" y1="88.72" x2="604.25" y2="90.64" />
</g>
<g stroke="#9db8db" stroke-width="1">
  <line x1="610" y1="60" x2="605.07" y2="14.27" />
  <line x1="614.99" y1="40.96" x2="601.07" y2="42.46" />
  <line x1="613.41" y1="26.32" x2="599.49" y2="27.82" />
  <circle cx="605.07" cy="14.27" r="3" stroke="#eaf1f8"/>
</g>
<g stroke="#eaf1f8" stroke-width="1.4">
  <circle cx="689.2" cy="794.58" r="12"/>
  <circle cx="689.2" cy="794.58" r="5.5" stroke="#9db8db" stroke-width="1"/>
</g>
<line class="fade" x1="689.2" y1="794.58" x2="695.57" y2="853.7" stroke="#5d93d6" stroke-width="0.8" stroke-dasharray="2 4" opacity="0.7"/>
<g class="fade" stroke="#7fa6d6" stroke-width="1.1" opacity="0.9">
  <polyline points="302.03,633.48 311.44,626.07 321.88,618.74 333.31,611.51 345.7,604.39 359.01,597.42 373.22,590.6 388.27,583.96 404.14,577.52 420.76,571.29 438.09,565.29 456.1,559.54 474.71,554.06 493.89,548.86 513.58,543.95 533.72,539.36 554.26,535.08"/>
  <path d="M544.47 531.98 L554.26 535.08 L546.4 541.69"/>
  <polyline points="469.35,381.58 475.08,378.12 481.25,374.72 487.82,371.38 494.8,368.12 502.15,364.94 509.86,361.85 517.92,358.86 526.3,355.98 534.98,353.21 543.94,350.56 553.16,348.04 562.61,345.65 572.27,343.4 582.12,341.29 592.13,339.34 602.27,337.54"/>
  <path d="M592.57 334.16 L602.27 337.54 L594.22 343.92"/>
</g>
<g class="fade" fill="#7fa6d6" stroke="none" font-size="10">
  <text x="381.1" y="578.03" font-size="10" >ω₁</text>
  <text x="454.91" y="373.01" font-size="10" >ω₂</text>
</g>
<g class="fade ink-blue" stroke="#5d93d6" stroke-width="0.9" opacity="0.8">
  <line x1="270.34" y1="697.12" x2="1077.66" y2="610.08" stroke-dasharray="3 4" opacity="0.5"/>
  <path d="M283.34 693.12 L270.34 697.12 L281.34 705.12"/>
  <path d="M1064.66 614.08 L1077.66 610.08 L1066.66 602.08"/>
</g>
<g class="fade" fill="#5d93d6" stroke="none" font-size="11" text-anchor="middle">
  <text x="674" y="598.08" font-size="11" >ø 2 000 m</text>
</g>
<g class="fade" stroke="#5d93d6" stroke-width="0.8" opacity="0.85">
  <line x1="605.07" y1="14.27" x2="641.07" y2="12.27" />
  <circle cx="605.07" cy="14.27" r="1.6" fill="#5d93d6" stroke="none"/>
  <circle cx="641.07" cy="12.27" r="9"/>
  <line x1="604.65" y1="94.35" x2="634.65" y2="96.35" />
  <circle cx="604.65" cy="94.35" r="1.6" fill="#5d93d6" stroke="none"/>
  <circle cx="634.65" cy="96.35" r="9"/>
  <line x1="734.51" y1="748.41" x2="438" y2="804" />
  <circle cx="734.51" cy="748.41" r="1.6" fill="#5d93d6" stroke="none"/>
  <circle cx="438" cy="804" r="9"/>
  <line x1="689.2" y1="794.58" x2="729.2" y2="798.58" />
  <circle cx="689.2" cy="794.58" r="1.6" fill="#5d93d6" stroke="none"/>
  <circle cx="729.2" cy="798.58" r="9"/>
  <line x1="989.26" y1="682.76" x2="1052" y2="602" />
  <circle cx="989.26" cy="682.76" r="1.6" fill="#5d93d6" stroke="none"/>
  <circle cx="1052" cy="602" r="9"/>
</g>
<g class="fade" fill="#5d93d6" stroke="none" font-size="9" text-anchor="middle">
  <text x="641.07" y="15.47" font-size="9" >1</text>
  <text x="634.65" y="99.55" font-size="9" >2</text>
  <text x="438" y="807.2" font-size="9" >3</text>
  <text x="729.2" y="801.78" font-size="9" >4</text>
  <text x="1052" y="605.2" font-size="9" >5</text>
</g>
<g class="fade" stroke="#5d93d6" stroke-width="0.8" opacity="0.85">
  <circle cx="188" cy="222" r="76" fill="rgba(10,29,51,0.85)"/>
  <line x1="246.13" y1="270.96" x2="467.54" y2="398.53" stroke-dasharray="4 4"/>
</g>
<g class="fade" stroke="#9db8db" stroke-width="1" opacity="0.95">
  <circle cx="188" cy="222" r="44" stroke="#eaf1f8"/>
  <line x1="144" y1="177" x2="232" y2="177" stroke="#9db8db" stroke-width="0.4" opacity="0.5" transform="rotate(45 188 222)"/>
  <line x1="144" y1="182" x2="232" y2="182" stroke="#9db8db" stroke-width="0.4" opacity="0.5" transform="rotate(45 188 222)"/>
  <line x1="144" y1="187" x2="232" y2="187" stroke="#9db8db" stroke-width="0.4" opacity="0.5" transform="rotate(45 188 222)"/>
  <line x1="144" y1="192" x2="232" y2="192" stroke="#9db8db" stroke-width="0.4" opacity="0.5" transform="rotate(45 188 222)"/>
  <line x1="144" y1="197" x2="232" y2="197" stroke="#9db8db" stroke-width="0.4" opacity="0.5" transform="rotate(45 188 222)"/>
  <line x1="144" y1="202" x2="232" y2="202" stroke="#9db8db" stroke-width="0.4" opacity="0.5" transform="rotate(45 188 222)"/>
  <line x1="144" y1="207" x2="232" y2="207" stroke="#9db8db" stroke-width="0.4" opacity="0.5" transform="rotate(45 188 222)"/>
  <line x1="144" y1="212" x2="232" y2="212" stroke="#9db8db" stroke-width="0.4" opacity="0.5" transform="rotate(45 188 222)"/>
  <line x1="144" y1="217" x2="232" y2="217" stroke="#9db8db" stroke-width="0.4" opacity="0.5" transform="rotate(45 188 222)"/>
  <line x1="144" y1="222" x2="232" y2="222" stroke="#9db8db" stroke-width="0.4" opacity="0.5" transform="rotate(45 188 222)"/>
  <line x1="144" y1="227" x2="232" y2="227" stroke="#9db8db" stroke-width="0.4" opacity="0.5" transform="rotate(45 188 222)"/>
  <line x1="144" y1="232" x2="232" y2="232" stroke="#9db8db" stroke-width="0.4" opacity="0.5" transform="rotate(45 188 222)"/>
  <line x1="144" y1="237" x2="232" y2="237" stroke="#9db8db" stroke-width="0.4" opacity="0.5" transform="rotate(45 188 222)"/>
  <line x1="144" y1="242" x2="232" y2="242" stroke="#9db8db" stroke-width="0.4" opacity="0.5" transform="rotate(45 188 222)"/>
  <line x1="144" y1="247" x2="232" y2="247" stroke="#9db8db" stroke-width="0.4" opacity="0.5" transform="rotate(45 188 222)"/>
  <line x1="144" y1="252" x2="232" y2="252" stroke="#9db8db" stroke-width="0.4" opacity="0.5" transform="rotate(45 188 222)"/>
  <line x1="144" y1="257" x2="232" y2="257" stroke="#9db8db" stroke-width="0.4" opacity="0.5" transform="rotate(45 188 222)"/>
  <line x1="144" y1="262" x2="232" y2="262" stroke="#9db8db" stroke-width="0.4" opacity="0.5" transform="rotate(45 188 222)"/>
  <line x1="144" y1="267" x2="232" y2="267" stroke="#9db8db" stroke-width="0.4" opacity="0.5" transform="rotate(45 188 222)"/>
  <circle cx="188" cy="222" r="36" fill="rgba(10,29,51,1)" stroke="#9db8db"/>
  <line x1="158.76" y1="201" x2="217.24" y2="201" stroke="#7fa6d6" stroke-width="0.5"/>
  <line x1="152.69" y1="215" x2="223.31" y2="215" stroke="#7fa6d6" stroke-width="0.5"/>
  <line x1="152.69" y1="229" x2="223.31" y2="229" stroke="#7fa6d6" stroke-width="0.5"/>
  <line x1="158.76" y1="243" x2="217.24" y2="243" stroke="#7fa6d6" stroke-width="0.5"/>
  <line x1="188" y1="186" x2="188" y2="258" stroke="#5d93d6" stroke-width="0.5" stroke-dasharray="3 3"/>
</g>
<g class="fade" fill="#5d93d6" stroke="none" font-size="8.5" text-anchor="middle">
  <text x="188" y="168" font-size="9" >DETAIL  A</text>
  <text x="188" y="178" font-size="6.5" >RING SECTION · 5:1</text>
  <text x="188" y="280" font-size="7" >ø 36 m</text>
</g>
<g class="fade" stroke="#9db8db" stroke-width="0.7" opacity="0.85">
  <rect x="996" y="64" width="250" height="160" stroke="#eaf1f8" stroke-width="0.9"/>
  <line x1="996" y1="86" x2="1246" y2="86" stroke="#eaf1f8"/>
  <line x1="996" y1="109" x2="1246" y2="109" />
  <line x1="996" y1="132" x2="1246" y2="132" />
  <line x1="996" y1="155" x2="1246" y2="155" />
  <line x1="996" y1="178" x2="1246" y2="178" />
  <line x1="996" y1="201" x2="1246" y2="201" />
</g>
<g class="fade" fill="#5d93d6" stroke="none" font-size="8.5" letter-spacing="0.5">
  <text x="1006" y="79" font-size="9" >PRINCIPAL  DIMENSIONS</text>
  <text x="1006" y="101" font-size="8.5" >LOWER RING ø</text>
  <text x="1236" y="101" font-size="8.5" text-anchor="end" fill="#eaf1f8">2 000 m</text>
  <text x="1006" y="124" font-size="8.5" >MIDDLE RING ø</text>
  <text x="1236" y="124" font-size="8.5" text-anchor="end" fill="#eaf1f8">1 000 m</text>
  <text x="1006" y="147" font-size="8.5" >UPPER RING ø</text>
  <text x="1236" y="147" font-size="8.5" text-anchor="end" fill="#eaf1f8">250 m</text>
  <text x="1006" y="170" font-size="8.5" >CAPACITY</text>
  <text x="1236" y="170" font-size="8.5" text-anchor="end" fill="#eaf1f8">50 000</text>
  <text x="1006" y="193" font-size="8.5" >RIM GRAVITY</text>
  <text x="1236" y="193" font-size="8.5" text-anchor="end" fill="#eaf1f8">1.0 g</text>
  <text x="1006" y="216" font-size="8.5" >MASS (DRY)</text>
  <text x="1236" y="216" font-size="8.5" text-anchor="end" fill="#eaf1f8">4.8×10⁷ t</text>
</g>
<g class="fade" fill="#5d93d6" stroke="none" font-size="7.5">
  <text x="60" y="372" font-size="9" >NOTES</text>
  <text x="60" y="387" font-size="7.5" >1. ALL DIMENSIONS IN METRES U.N.O.</text>
  <text x="60" y="400" font-size="7.5" >2. RINGS COUNTER-ROTATE; NET TORQUE ≈ 0.</text>
  <text x="60" y="413" font-size="7.5" >3. HABITAT SECTION PER DETAIL A.</text>
</g>
<g class="fade" stroke="#eaf1f8" stroke-width="0.9" opacity="0.9">
  <rect x="60" y="470" width="190" height="6"/>
  <rect x="60" y="470" width="95" height="6" fill="#9db8db" stroke="none"/>
</g>
<g class="fade" fill="#5d93d6" stroke="none" font-size="7" text-anchor="middle">
  <text x="60" y="486" font-size="7" >0</text>
  <text x="155" y="486" font-size="7" >250</text>
  <text x="250" y="486" font-size="7" >500</text>
  <text x="264" y="486" font-size="7" >m</text>
</g>
<g class="fade" stroke="#9db8db" stroke-width="0.9" opacity="0.9">
  <line x1="118" y1="110" x2="118" y2="84" />
  <path d="M115.25 89 L118 84 L120.75 89"/>
  <line x1="118" y1="110" x2="144" y2="110" />
  <path d="M139 107.25 L144 110 L139 112.75"/>
  <line x1="118" y1="110" x2="101" y2="125" />
  <path d="M106.56 123.7 L101 125 L102.88 119.61"/>
</g>
<g class="fade" fill="#5d93d6" stroke="none" font-size="7.5">
  <text x="115" y="80" font-size="8" >Z</text>
  <text x="148" y="113" font-size="8" >X</text>
  <text x="90" y="130" font-size="8" >Y</text>
</g>
<g class="fade" fill="#5d93d6" stroke="none" font-size="9">
  <text x="46" y="560" font-size="12" letter-spacing="1" transform="rotate(-90 46 560)">MOTHERSHIP BLUEPRINT</text>
  <text x="1234" y="560" font-size="12" letter-spacing="0.5" transform="rotate(-90 1234 560)">UNIT R-2001</text>
</g>
<g class="fade" stroke="none" fill="#5d93d6" font-size="9">
  <text x="688.8" y="148.17" font-size="9.5" fill="#eaf1f8">UPPER RING</text>
  <text x="688.8" y="160.17" font-size="8" >ø 250 m</text>
  <text x="688.8" y="171.17" font-size="8" fill="#7fa6d6">4 000 crew</text>
  <text x="848.8" y="367.32" font-size="9.5" fill="#eaf1f8">MIDDLE RING</text>
  <text x="848.8" y="379.32" font-size="8" >ø 1 000 m</text>
  <text x="848.8" y="390.32" font-size="8" fill="#7fa6d6">14 000 crew</text>
  <text x="150" y="712" font-size="9.5" fill="#eaf1f8">LOWER RING</text>
  <text x="150" y="724" font-size="8" >ø 2 000 m</text>
  <text x="150" y="735" font-size="8" fill="#7fa6d6">32 000 crew</text>
</g>
</svg>
