<svg viewBox="0 0 1280 860" xmlns="http://www.w3.org/2000/svg" fill="none" stroke-linecap="round" stroke-linejoin="round" font-family="monospace">
<g class="fade" stroke="#74c98a" stroke-width="0.9" opacity="0.65">
  <rect x="26" y="26" width="1228" height="808"/>
  <rect x="34" y="34" width="1212" height="792" stroke="#4f9e68" stroke-width="0.6"/>
  <line x1="25" y1="34" x2="43" y2="34" stroke-width="0.7"/>
  <line x1="34" y1="25" x2="34" y2="43" stroke-width="0.7"/>
  <line x1="1237" y1="34" x2="1255" y2="34" stroke-width="0.7"/>
  <line x1="1246" y1="25" x2="1246" y2="43" stroke-width="0.7"/>
  <line x1="25" y1="826" x2="43" y2="826" stroke-width="0.7"/>
  <line x1="34" y1="817" x2="34" y2="835" stroke-width="0.7"/>
  <line x1="1237" y1="826" x2="1255" y2="826" stroke-width="0.7"/>
  <line x1="1246" y1="817" x2="1246" y2="835" stroke-width="0.7"/>
  <line x1="185.5" y1="34" x2="185.5" y2="42" stroke-width="0.6"/>
  <line x1="185.5" y1="818" x2="185.5" y2="826" stroke-width="0.6"/>
  <line x1="337" y1="34" x2="337" y2="42" stroke-width="0.6"/>
  <line x1="337" y1="818" x2="337" y2="826" stroke-width="0.6"/>
  <line x1="488.5" y1="34" x2="488.5" y2="42" stroke-width="0.6"/>
  <line x1="488.5" y1="818" x2="488.5" y2="826" stroke-width="0.6"/>
  <line x1="640" y1="34" x2="640" y2="42" stroke-width="0.6"/>
  <line x1="640" y1="818" x2="640" y2="826" stroke-width="0.6"/>
  <line x1="791.5" y1="34" x2="791.5" y2="42" stroke-width="0.6"/>
  <line x1="791.5" y1="818" x2="791.5" y2="826" stroke-width="0.6"/>
  <line x1="943" y1="34" x2="943" y2="42" stroke-width="0.6"/>
  <line x1="943" y1="818" x2="943" y2="826" stroke-width="0.6"/>
  <line x1="1094.5" y1="34" x2="1094.5" y2="42" stroke-width="0.6"/>
  <line x1="1094.5" y1="818" x2="1094.5" y2="826" stroke-width="0.6"/>
  <line x1="34" y1="192.4" x2="42" y2="192.4" stroke-width="0.6"/>
  <line x1="1238" y1="192.4" x2="1246" y2="192.4" stroke-width="0.6"/>
  <line x1="34" y1="350.8" x2="42" y2="350.8" stroke-width="0.6"/>
  <line x1="1238" y1="350.8" x2="1246" y2="350.8" stroke-width="0.6"/>
  <line x1="34" y1="509.2" x2="42" y2="509.2" stroke-width="0.6"/>
  <line x1="1238" y1="509.2" x2="1246" y2="509.2" stroke-width="0.6"/>
  <line x1="34" y1="667.6" x2="42" y2="667.6" stroke-width="0.6"/>
  <line x1="1238" y1="667.6" x2="1246" y2="667.6" stroke-width="0.6"/>
</g>
<g class="fade" fill="#74c98a" stroke="none" font-size="8" opacity="0.6" text-anchor="middle">
  <text x="185.5" y="31" font-size="8">1</text>
  <text x="337" y="31" font-size="8">2</text>
  <text x="488.5" y="31" font-size="8">3</text>
  <text x="640" y="31" font-size="8">4</text>
  <text x="791.5" y="31" font-size="8">5</text>
  <text x="943" y="31" font-size="8">6</text>
  <text x="1094.5" y="31" font-size="8">7</text>
  <text x="30" y="195.4" font-size="8">A</text>
  <text x="30" y="353.8" font-size="8">B</text>
  <text x="30" y="512.2" font-size="8">C</text>
  <text x="30" y="670.6" font-size="8">D</text>
</g>
<path class="fade" fill="rgba(236,247,238,0.16)" stroke="none" opacity="0.9" d="M306 333 C 318 320 332 314 348 316 C 364 318 372 330 370 344 C 368 356 356 362 342 360 C 326 358 312 350 306 340 Z"/>
<path class="fade" fill="rgba(0,0,0,0.30)" stroke="none" opacity="0.9" d="M380 308 C 396 311 404 326 404 348 C 405 392 396 430 432 452 C 470 470 470 470 470 470 C 470 470 460 500 450 522 C 438 540 424 540 416 520 C 404 486 396 452 386 420 C 379 396 372 372 366 352 C 363 340 360 326 366 318 C 370 311 374 307 380 308 Z"/>
<path class="fade" fill="rgba(0,0,0,0.28)" stroke="none" opacity="0.9" d="M712 452 C 740 458 766 460 786 470 C 766 482 742 486 720 498 C 712 480 710 466 712 452 Z"/>
<path class="fade" fill="rgba(236,247,238,0.10)" stroke="none" opacity="0.9" d="M470 470 C 560 486 660 500 720 498 C 660 556 560 590 470 566 C 452 540 452 500 470 470 Z"/>
<g stroke="#ecf7ee" stroke-width="2">
  <path d="M300 334 L339 322 C350 312 364 305 380 308 C396 311 404 326 404 348 C405 392 396 430 432 452 C520 430 640 432 712 452 C740 458 766 460 786 470 C766 482 742 486 720 498 C660 556 560 590 470 566 C446 558 430 548 420 520 C408 486 398 452 388 420 C380 396 372 372 366 352 C362 344 356 340 348 340 L300 343 Z"/>
</g>
<g stroke="#bfe6cb" stroke-width="1">
  <line x1="300" y1="338" x2="339" y2="332"/>
  <path d="M306 335 C 309 337 309 340 306 342"/>
  <circle cx="318" cy="334" r="1.1" fill="#ecf7ee" stroke="none"/>
</g>
<g stroke="#bfe6cb" stroke-width="0.9">
  <path d="M306 333 C 318 320 332 314 348 316 C 364 318 372 330 370 344 C 368 356 356 362 342 360 C 326 358 312 350 306 340" fill="none"/>
</g>
<g stroke="#ecf7ee" stroke-width="1.2">
  <circle cx="351" cy="331" r="4.4"/>
  <circle cx="351" cy="331" r="1.6" fill="#ecf7ee" stroke="none"/>
</g>
<g stroke="#4f9e68" stroke-width="0.6" opacity="0.7">
  <line x1="364.444" y1="363" x2="400" y2="359"/>
  <line x1="366.889" y1="374" x2="400" y2="370"/>
  <line x1="369.333" y1="385" x2="400" y2="381"/>
  <line x1="371.778" y1="396" x2="400" y2="392"/>
  <line x1="374.222" y1="407" x2="400" y2="403"/>
  <line x1="376.667" y1="418" x2="400" y2="414"/>
  <line x1="379.111" y1="429" x2="400" y2="425"/>
  <line x1="381.556" y1="440" x2="400" y2="436"/>
</g>
<g stroke="#ecf7ee" stroke-width="1">
  <path d="M472 474 Q 485.5 482 499 474 Q 512.5 482 526 474 Q 539.5 482 553 474 Q 566.5 482 580 474 Q 593.5 482 607 474 Q 620.5 482 634 474" stroke="#ecf7ee" stroke-width="1"/>
  <path d="M478 492 Q 490.75 501.5 503.5 492 Q 516.25 501.5 529 492 Q 541.75 501.5 554.5 492 Q 567.25 501.5 580 492 Q 592.75 501.5 605.5 492 Q 618.25 501.5 631 492" stroke="#bfe6cb" stroke-width="0.92"/>
  <path d="M484 510 Q 496 521 508 510 Q 520 521 532 510 Q 544 521 556 510 Q 568 521 580 510 Q 592 521 604 510 Q 616 521 628 510" stroke="#ecf7ee" stroke-width="0.84"/>
  <path d="M490 528 Q 501.25 540.5 512.5 528 Q 523.75 540.5 535 528 Q 546.25 540.5 557.5 528 Q 568.75 540.5 580 528 Q 591.25 540.5 602.5 528 Q 613.75 540.5 625 528" stroke="#bfe6cb" stroke-width="0.76"/>
</g>
<g stroke="#bfe6cb" stroke-width="0.7" opacity="0.85">
  <line x1="480" y1="473" x2="480" y2="468"/>
  <line x1="507" y1="473" x2="507" y2="468"/>
  <line x1="534" y1="473" x2="534" y2="468"/>
  <line x1="561" y1="473" x2="561" y2="468"/>
  <line x1="588" y1="473" x2="588" y2="468"/>
  <line x1="615" y1="473" x2="615" y2="468"/>
  <line x1="642" y1="473" x2="642" y2="468"/>
  <line x1="486" y1="491" x2="486" y2="485"/>
  <line x1="511.5" y1="491" x2="511.5" y2="485"/>
  <line x1="537" y1="491" x2="537" y2="485"/>
  <line x1="562.5" y1="491" x2="562.5" y2="485"/>
  <line x1="588" y1="491" x2="588" y2="485"/>
  <line x1="613.5" y1="491" x2="613.5" y2="485"/>
  <line x1="639" y1="491" x2="639" y2="485"/>
  <line x1="492" y1="509" x2="492" y2="502"/>
  <line x1="516" y1="509" x2="516" y2="502"/>
  <line x1="540" y1="509" x2="540" y2="502"/>
  <line x1="564" y1="509" x2="564" y2="502"/>
  <line x1="588" y1="509" x2="588" y2="502"/>
  <line x1="612" y1="509" x2="612" y2="502"/>
  <line x1="498" y1="527" x2="498" y2="519"/>
  <line x1="520.5" y1="527" x2="520.5" y2="519"/>
  <line x1="543" y1="527" x2="543" y2="519"/>
  <line x1="565.5" y1="527" x2="565.5" y2="519"/>
  <line x1="588" y1="527" x2="588" y2="519"/>
  <line x1="610.5" y1="527" x2="610.5" y2="519"/>
</g>
<g stroke="#ecf7ee" stroke-width="1.1">
  <line x1="612" y1="500" x2="706" y2="470" stroke-width="1.2"/>
  <line x1="615" y1="502" x2="717" y2="474.5" stroke-width="1.14"/>
  <line x1="618" y1="504" x2="728" y2="479" stroke-width="1.08"/>
  <line x1="621" y1="506" x2="739" y2="483.5" stroke-width="1.02"/>
  <line x1="624" y1="508" x2="750" y2="488" stroke-width="0.96"/>
  <line x1="627" y1="510" x2="761" y2="492.5" stroke-width="0.9"/>
  <line x1="630" y1="512" x2="772" y2="497" stroke-width="0.84"/>
</g>
<g stroke="#bfe6cb" stroke-width="0.8" opacity="0.85">
  <line x1="716" y1="460" x2="784" y2="470"/>
  <line x1="716" y1="467" x2="780" y2="476"/>
  <line x1="716" y1="474" x2="776" y2="482"/>
  <line x1="716" y1="481" x2="772" y2="488"/>
  <line x1="716" y1="488" x2="768" y2="494"/>
</g>
<g stroke="#bfe6cb" stroke-width="0.7" opacity="0.8">
  <line x1="478" y1="540" x2="475" y2="560"/>
  <line x1="491" y1="540" x2="488" y2="560"/>
  <line x1="504" y1="540" x2="501" y2="560"/>
  <line x1="517" y1="540" x2="514" y2="560"/>
  <line x1="530" y1="540" x2="527" y2="560"/>
  <line x1="543" y1="540" x2="540" y2="560"/>
  <line x1="556" y1="540" x2="553" y2="560"/>
  <line x1="569" y1="540" x2="566" y2="560"/>
  <line x1="582" y1="540" x2="579" y2="560"/>
  <line x1="595" y1="540" x2="592" y2="560"/>
  <line x1="608" y1="540" x2="605" y2="560"/>
  <line x1="621" y1="540" x2="618" y2="560"/>
  <line x1="634" y1="540" x2="631" y2="560"/>
  <line x1="647" y1="540" x2="644" y2="560"/>
</g>
<g stroke="#ecf7ee" stroke-width="1.5">
  <line x1="512" y1="572" x2="506" y2="636"/>
  <line x1="520" y1="574" x2="516" y2="636"/>
  <path d="M506 636 L486 652 L498 650 L510 652 L522 650 L512 638" fill="rgba(0,0,0,0.25)"/>
  <line x1="566" y1="578" x2="572" y2="640"/>
  <line x1="574" y1="578" x2="580" y2="640"/>
  <path d="M572 640 L556 656 L568 654 L580 656 L592 654 L580 642" fill="rgba(0,0,0,0.25)"/>
</g>
<g stroke="#4f9e68" stroke-width="0.5" opacity="0.7">
  <line x1="510" y1="584" x2="518" y2="583"/>
  <line x1="570" y1="586" x2="578" y2="585"/>
  <line x1="510" y1="590" x2="518" y2="589"/>
  <line x1="570" y1="592" x2="578" y2="591"/>
  <line x1="510" y1="596" x2="518" y2="595"/>
  <line x1="570" y1="598" x2="578" y2="597"/>
  <line x1="510" y1="602" x2="518" y2="601"/>
  <line x1="570" y1="604" x2="578" y2="603"/>
  <line x1="510" y1="608" x2="518" y2="607"/>
  <line x1="570" y1="610" x2="578" y2="609"/>
  <line x1="510" y1="614" x2="518" y2="613"/>
  <line x1="570" y1="616" x2="578" y2="615"/>
  <line x1="510" y1="620" x2="518" y2="619"/>
  <line x1="570" y1="622" x2="578" y2="621"/>
  <line x1="510" y1="626" x2="518" y2="625"/>
  <line x1="570" y1="628" x2="578" y2="627"/>
</g>
<g class="fade lead" stroke="#74c98a" stroke-width="0.8" opacity="0.85">
  <line x1="316" y1="334" x2="250" y2="250"/>
  <circle cx="316" cy="334" r="1.7" fill="#74c98a" stroke="none"/>
  <circle cx="250" cy="250" r="8.5" fill="rgba(22,48,30,0.85)"/>
</g>
<g class="fade" fill="#74c98a" stroke="none" font-size="9" text-anchor="middle">
  <text x="250" y="253" font-size="9">1</text>
</g>
<g class="fade lead" stroke="#74c98a" stroke-width="0.8" opacity="0.85">
  <line x1="338" y1="336" x2="250" y2="300"/>
  <circle cx="338" cy="336" r="1.7" fill="#74c98a" stroke="none"/>
  <circle cx="250" cy="300" r="8.5" fill="rgba(22,48,30,0.85)"/>
</g>
<g class="fade" fill="#74c98a" stroke="none" font-size="9" text-anchor="middle">
  <text x="250" y="303" font-size="9">2</text>
</g>
<g class="fade lead" stroke="#74c98a" stroke-width="0.8" opacity="0.85">
  <line x1="351" y1="331" x2="250" y2="348"/>
  <circle cx="351" cy="331" r="1.7" fill="#74c98a" stroke="none"/>
  <circle cx="250" cy="348" r="8.5" fill="rgba(22,48,30,0.85)"/>
</g>
<g class="fade" fill="#74c98a" stroke="none" font-size="9" text-anchor="middle">
  <text x="250" y="351" font-size="9">3</text>
</g>
<g class="fade lead" stroke="#74c98a" stroke-width="0.8" opacity="0.85">
  <line x1="392" y1="330" x2="250" y2="396"/>
  <circle cx="392" cy="330" r="1.7" fill="#74c98a" stroke="none"/>
  <circle cx="250" cy="396" r="8.5" fill="rgba(22,48,30,0.85)"/>
</g>
<g class="fade" fill="#74c98a" stroke="none" font-size="9" text-anchor="middle">
  <text x="250" y="399" font-size="9">4</text>
</g>
<g class="fade lead" stroke="#74c98a" stroke-width="0.8" opacity="0.85">
  <line x1="430" y1="500" x2="300" y2="600"/>
  <circle cx="430" cy="500" r="1.7" fill="#74c98a" stroke="none"/>
  <circle cx="300" cy="600" r="8.5" fill="rgba(22,48,30,0.85)"/>
</g>
<g class="fade" fill="#74c98a" stroke="none" font-size="9" text-anchor="middle">
  <text x="300" y="603" font-size="9">5</text>
</g>
<g class="fade lead" stroke="#74c98a" stroke-width="0.8" opacity="0.85">
  <line x1="540" y1="486" x2="560" y2="360"/>
  <circle cx="540" cy="486" r="1.7" fill="#74c98a" stroke="none"/>
  <circle cx="560" cy="360" r="8.5" fill="rgba(22,48,30,0.85)"/>
</g>
<g class="fade" fill="#74c98a" stroke="none" font-size="9" text-anchor="middle">
  <text x="560" y="363" font-size="9">6</text>
</g>
<g class="fade lead" stroke="#74c98a" stroke-width="0.8" opacity="0.85">
  <line x1="560" y1="512" x2="640" y2="360"/>
  <circle cx="560" cy="512" r="1.7" fill="#74c98a" stroke="none"/>
  <circle cx="640" cy="360" r="8.5" fill="rgba(22,48,30,0.85)"/>
</g>
<g class="fade" fill="#74c98a" stroke="none" font-size="9" text-anchor="middle">
  <text x="640" y="363" font-size="9">7</text>
</g>
<g class="fade lead" stroke="#74c98a" stroke-width="0.8" opacity="0.85">
  <line x1="740" y1="472" x2="880" y2="430"/>
  <circle cx="740" cy="472" r="1.7" fill="#74c98a" stroke="none"/>
  <circle cx="880" cy="430" r="8.5" fill="rgba(22,48,30,0.85)"/>
</g>
<g class="fade" fill="#74c98a" stroke="none" font-size="9" text-anchor="middle">
  <text x="880" y="433" font-size="9">8</text>
</g>
<g class="fade lead" stroke="#74c98a" stroke-width="0.8" opacity="0.85">
  <line x1="560" y1="552" x2="560" y2="660"/>
  <circle cx="560" cy="552" r="1.7" fill="#74c98a" stroke="none"/>
  <circle cx="560" cy="660" r="8.5" fill="rgba(22,48,30,0.85)"/>
</g>
<g class="fade" fill="#74c98a" stroke="none" font-size="9" text-anchor="middle">
  <text x="560" y="663" font-size="9">9</text>
</g>
<g class="fade lead" stroke="#74c98a" stroke-width="0.8" opacity="0.85">
  <line x1="516" y1="636" x2="470" y2="720"/>
  <circle cx="516" cy="636" r="1.7" fill="#74c98a" stroke="none"/>
  <circle cx="470" cy="720" r="8.5" fill="rgba(22,48,30,0.85)"/>
</g>
<g class="fade" fill="#74c98a" stroke="none" font-size="9" text-anchor="middle">
  <text x="470" y="723" font-size="9">10</text>
</g>
<g class="fade" fill="#74c98a" stroke="none" font-size="7.5">
  <text x="60" y="610" font-size="9" fill="#ecf7ee" letter-spacing="0.6">PLUMAGE KEY</text>
  <text x="60" y="626" font-size="7.5">1  BILL  (black, stubby)</text>
  <text x="60" y="639" font-size="7.5">2  FACE  (white patch)</text>
  <text x="60" y="652" font-size="7.5">3  EYE</text>
  <text x="60" y="665" font-size="7.5">4  NECK / BREAST  (black)</text>
  <text x="60" y="678" font-size="7.5">5  BREAST</text>
  <text x="300" y="626" font-size="7.5">6  MANTLE · SCAPULARS  (barred)</text>
  <text x="300" y="639" font-size="7.5">7  WING COVERTS</text>
  <text x="300" y="652" font-size="7.5">8  PRIMARIES · TAIL  (black)</text>
  <text x="300" y="665" font-size="7.5">9  FLANK  (barred grey)</text>
  <text x="300" y="678" font-size="7.5">10  TARSUS · WEBBED FOOT</text>
</g>
<g class="fade" stroke="#4f9e68" stroke-width="0.8" opacity="0.85">
  <circle cx="168" cy="250" r="74" fill="rgba(16,48,30,0.85)"/>
  <line x1="220" y1="302" x2="380" y2="430" stroke-dasharray="4 4"/>
</g>
<g class="fade" stroke="#ecf7ee" stroke-width="1" opacity="0.95">
  <path d="M168 204 C 194 220 198 274 168 300 C 138 274 142 220 168 204 Z" stroke="#ecf7ee"/>
  <line x1="168" y1="204" x2="168" y2="300" stroke="#bfe6cb"/>
</g>
<g class="fade" stroke="#bfe6cb" stroke-width="0.6" opacity="0.8">
  <line x1="154.3" y1="214.5" x2="168" y2="211.5"/>
  <line x1="181.7" y1="214.5" x2="168" y2="211.5"/>
  <line x1="152.4" y1="220" x2="168" y2="217"/>
  <line x1="183.6" y1="220" x2="168" y2="217"/>
  <line x1="150.5" y1="225.5" x2="168" y2="222.5"/>
  <line x1="185.5" y1="225.5" x2="168" y2="222.5"/>
  <line x1="148.6" y1="231" x2="168" y2="228"/>
  <line x1="187.4" y1="231" x2="168" y2="228"/>
  <line x1="146.7" y1="236.5" x2="168" y2="233.5"/>
  <line x1="189.3" y1="236.5" x2="168" y2="233.5"/>
  <line x1="144.8" y1="242" x2="168" y2="239"/>
  <line x1="191.2" y1="242" x2="168" y2="239"/>
  <line x1="142.9" y1="247.5" x2="168" y2="244.5"/>
  <line x1="193.1" y1="247.5" x2="168" y2="244.5"/>
  <line x1="141" y1="253" x2="168" y2="250"/>
  <line x1="195" y1="253" x2="168" y2="250"/>
  <line x1="142.9" y1="258.5" x2="168" y2="255.5"/>
  <line x1="193.1" y1="258.5" x2="168" y2="255.5"/>
  <line x1="144.8" y1="264" x2="168" y2="261"/>
  <line x1="191.2" y1="264" x2="168" y2="261"/>
  <line x1="146.7" y1="269.5" x2="168" y2="266.5"/>
  <line x1="189.3" y1="269.5" x2="168" y2="266.5"/>
  <line x1="148.6" y1="275" x2="168" y2="272"/>
  <line x1="187.4" y1="275" x2="168" y2="272"/>
  <line x1="150.5" y1="280.5" x2="168" y2="277.5"/>
  <line x1="185.5" y1="280.5" x2="168" y2="277.5"/>
  <line x1="152.4" y1="286" x2="168" y2="283"/>
  <line x1="183.6" y1="286" x2="168" y2="283"/>
  <line x1="154.3" y1="291.5" x2="168" y2="288.5"/>
  <line x1="181.7" y1="291.5" x2="168" y2="288.5"/>
  <line x1="156.2" y1="297" x2="168" y2="294"/>
  <line x1="179.8" y1="297" x2="168" y2="294"/>
</g>
<g class="fade" stroke="#4f9e68" stroke-width="1.4" opacity="0.5">
  <line x1="146" y1="224" x2="190" y2="224"/>
  <line x1="146" y1="244" x2="190" y2="244"/>
  <line x1="146" y1="266" x2="190" y2="266"/>
  <line x1="146" y1="286" x2="190" y2="286"/>
</g>
<g class="fade" fill="#74c98a" stroke="none" font-size="8.5" text-anchor="middle">
  <text x="168" y="158" font-size="9" fill="#ecf7ee">DETAIL A</text>
  <text x="168" y="168" font-size="6.5">CONTOUR FEATHER · BARRED · 6:1</text>
</g>
<g class="fade" stroke="#74c98a" stroke-width="0.7" opacity="0.85">
  <rect x="948" y="96" width="296" height="312" stroke="#ecf7ee" stroke-width="0.9" fill="rgba(12,34,22,0.55)"/>
  <line x1="948" y1="120" x2="1244" y2="120" stroke="#ecf7ee"/>
</g>
<g class="fade" stroke="#4f9e68" stroke-width="0.4" opacity="0.4">
  <line x1="956" y1="154" x2="1236" y2="154" stroke-dasharray="2 5"/>
  <line x1="956" y1="216" x2="1236" y2="216" stroke-dasharray="2 5"/>
  <line x1="956" y1="282" x2="1236" y2="282" stroke-dasharray="2 5"/>
  <line x1="956" y1="358" x2="1236" y2="358" stroke-dasharray="2 5"/>
  <line x1="988" y1="126" x2="988" y2="398" stroke-dasharray="2 5"/>
  <line x1="1044" y1="126" x2="1044" y2="398" stroke-dasharray="2 5"/>
  <line x1="1100" y1="126" x2="1100" y2="398" stroke-dasharray="2 5"/>
  <line x1="1156" y1="126" x2="1156" y2="398" stroke-dasharray="2 5"/>
  <line x1="1212" y1="126" x2="1212" y2="398" stroke-dasharray="2 5"/>
</g>
<g class="fade" fill="#4f9e68" stroke="none" font-size="6" opacity="0.7">
  <text x="958" y="152" font-size="6">78°N</text>
  <text x="958" y="214" font-size="6">70°N</text>
  <text x="958" y="280" font-size="6">62°N</text>
  <text x="958" y="356" font-size="6">55°N</text>
</g>
<g class="fade" stroke="#bfe6cb" stroke-width="1" opacity="0.9">
  <path d="M1130 140 l 18 -8 l 16 6 l -6 12 l 10 8 l -14 8 l -20 -6 l -8 -12 z" fill="rgba(116,201,138,0.14)"/>
  <path d="M1162 166 l 10 -4 l 8 6 l -8 8 z" fill="rgba(116,201,138,0.14)"/>
  <path d="M1238 192 C 1198 246 1214 306 1238 346" fill="none"/>
  <path d="M978 346 l 22 -10 l 16 8 l -4 16 l 12 10 l -10 18 l -18 6 l -16 -12 l -6 -18 l 4 -18 z" fill="rgba(116,201,138,0.22)" stroke="#ecf7ee" stroke-width="1.2"/>
</g>
<g class="fade" stroke="#ecf7ee" stroke-width="0.8" opacity="0.9">
  <circle cx="996" cy="364" r="16" stroke-dasharray="3 3"/>
</g>
<g class="fade ink-green" stroke="#74c98a" stroke-width="1.5" opacity="0.95">
  <path d="M1144 154 C 1138 194 1142 200 1134 224 S 1116 272 1098 292 S 1074 322 998 360" fill="none" stroke-dasharray="6 5"/>
</g>
<path class="fade" d="M1133.54 215.012 L 1134 224 L 1140.13 217.409" stroke="#74c98a" stroke-width="1.4" fill="none" opacity="0.95"/>
<path class="fade" d="M1100.64 283.397 L 1098 292 L 1106.01 287.903" stroke="#74c98a" stroke-width="1.4" fill="none" opacity="0.95"/>
<path class="fade" d="M1003.43 352.82 L 998 360 L 1006.93 358.89" stroke="#74c98a" stroke-width="1.4" fill="none" opacity="0.95"/>
<g class="fade" fill="#ecf7ee" stroke="none" opacity="0.95">
  <circle cx="1144" cy="154" r="2.4"/>
  <circle cx="1134" cy="224" r="2.4"/>
  <circle cx="1098" cy="292" r="2.4"/>
  <circle cx="998" cy="360" r="2.4"/>
</g>
<g class="fade" fill="#ecf7ee" stroke="none" font-size="7.5">
  <text x="958" y="112" font-size="8.5" letter-spacing="0.5">AUTUMN MIGRATION CORRIDOR</text>
  <text x="1152" y="152" font-size="7.5" fill="#74c98a">SVALBARD</text>
  <text x="1142" y="226" font-size="6.5" fill="#4f9e68">Bear I. staging</text>
  <text x="954" y="362" font-size="7.5" fill="#74c98a">SCOTTISH</text>
  <text x="954" y="372" font-size="7.5" fill="#74c98a">HIGHLANDS</text>
  <text x="954" y="382" font-size="6.5" fill="#4f9e68">/ Solway Firth</text>
</g>
<g class="fade" stroke="#74c98a" stroke-width="0.8" opacity="0.85">
  <line x1="1216" y1="388" x2="1216" y2="360"/>
  <path d="M1212 366 L 1216 358 L 1220 366" fill="none"/>
</g>
<g class="fade" fill="#74c98a" stroke="none" font-size="7" text-anchor="middle">
  <text x="1216" y="356" font-size="7">N</text>
</g>
<g class="fade" fill="#4f9e68" stroke="none" font-size="7">
  <text x="958" y="398" font-size="7.5" fill="#ecf7ee">≈ 3 000 km · 1–3 day passage</text>
</g>
<g class="fade" fill="#ecf7ee" stroke="none" font-size="9">
  <text x="958" y="462" font-size="10" letter-spacing="0.6">FIELD NOTES</text>
</g>
<g class="fade" stroke="#74c98a" stroke-width="0.7" opacity="0.9">
  <rect x="958" y="470" width="138" height="30" stroke="#74c98a" stroke-width="0.8" fill="rgba(20,42,28,0.4)"/>
  <line x1="958" y1="482.5" x2="1096" y2="482.5" stroke="#4f9e68" stroke-width="0.5" opacity="0.5"/>
</g>
<g class="fade" stroke="none" font-size="7.5">
  <text x="965" y="479" font-size="7" fill="#74c98a" letter-spacing="0.4">ORDER</text>
  <text x="965" y="494" font-size="9" fill="#ecf7ee">Anseriformes</text>
</g>
<g class="fade" stroke="#74c98a" stroke-width="0.7" opacity="0.9">
  <rect x="958" y="508" width="138" height="30" stroke="#74c98a" stroke-width="0.8" fill="rgba(20,42,28,0.4)"/>
  <line x1="958" y1="520.5" x2="1096" y2="520.5" stroke="#4f9e68" stroke-width="0.5" opacity="0.5"/>
</g>
<g class="fade" stroke="none" font-size="7.5">
  <text x="965" y="517" font-size="7" fill="#74c98a" letter-spacing="0.4">FAMILY</text>
  <text x="965" y="532" font-size="9" fill="#ecf7ee">Anatidae</text>
</g>
<g class="fade" stroke="#74c98a" stroke-width="0.7" opacity="0.9">
  <rect x="958" y="546" width="138" height="30" stroke="#74c98a" stroke-width="0.8" fill="rgba(20,42,28,0.4)"/>
  <line x1="958" y1="558.5" x2="1096" y2="558.5" stroke="#4f9e68" stroke-width="0.5" opacity="0.5"/>
</g>
<g class="fade" stroke="none" font-size="7.5">
  <text x="965" y="555" font-size="7" fill="#74c98a" letter-spacing="0.4">LENGTH</text>
  <text x="965" y="570" font-size="9" fill="#ecf7ee">55–70 cm</text>
</g>
<g class="fade" stroke="#74c98a" stroke-width="0.7" opacity="0.9">
  <rect x="958" y="584" width="138" height="30" stroke="#74c98a" stroke-width="0.8" fill="rgba(20,42,28,0.4)"/>
  <line x1="958" y1="596.5" x2="1096" y2="596.5" stroke="#4f9e68" stroke-width="0.5" opacity="0.5"/>
</g>
<g class="fade" stroke="none" font-size="7.5">
  <text x="965" y="593" font-size="7" fill="#74c98a" letter-spacing="0.4">WINGSPAN</text>
  <text x="965" y="608" font-size="9" fill="#ecf7ee">1.20–1.45 m</text>
</g>
<g class="fade" stroke="#74c98a" stroke-width="0.7" opacity="0.9">
  <rect x="958" y="622" width="138" height="30" stroke="#74c98a" stroke-width="0.8" fill="rgba(20,42,28,0.4)"/>
  <line x1="958" y1="634.5" x2="1096" y2="634.5" stroke="#4f9e68" stroke-width="0.5" opacity="0.5"/>
</g>
<g class="fade" stroke="none" font-size="7.5">
  <text x="965" y="631" font-size="7" fill="#74c98a" letter-spacing="0.4">MASS</text>
  <text x="965" y="646" font-size="9" fill="#ecf7ee">1.3–2.2 kg</text>
</g>
<g class="fade" stroke="#74c98a" stroke-width="0.7" opacity="0.9">
  <rect x="958" y="660" width="138" height="30" stroke="#74c98a" stroke-width="0.8" fill="rgba(20,42,28,0.4)"/>
  <line x1="958" y1="672.5" x2="1096" y2="672.5" stroke="#4f9e68" stroke-width="0.5" opacity="0.5"/>
</g>
<g class="fade" stroke="none" font-size="7.5">
  <text x="965" y="669" font-size="7" fill="#74c98a" letter-spacing="0.4">CLUTCH</text>
  <text x="965" y="684" font-size="9" fill="#ecf7ee">3–5 eggs</text>
</g>
<g class="fade" stroke="#74c98a" stroke-width="0.7" opacity="0.9">
  <rect x="1106" y="470" width="138" height="30" stroke="#74c98a" stroke-width="0.8" fill="rgba(20,42,28,0.4)"/>
  <line x1="1106" y1="482.5" x2="1244" y2="482.5" stroke="#4f9e68" stroke-width="0.5" opacity="0.5"/>
</g>
<g class="fade" stroke="none" font-size="7.5">
  <text x="1113" y="479" font-size="7" fill="#74c98a" letter-spacing="0.4">INCUBATION</text>
  <text x="1113" y="494" font-size="9" fill="#ecf7ee">24–25 days</text>
</g>
<g class="fade" stroke="#74c98a" stroke-width="0.7" opacity="0.9">
  <rect x="1106" y="508" width="138" height="30" stroke="#74c98a" stroke-width="0.8" fill="rgba(20,42,28,0.4)"/>
  <line x1="1106" y1="520.5" x2="1244" y2="520.5" stroke="#4f9e68" stroke-width="0.5" opacity="0.5"/>
</g>
<g class="fade" stroke="none" font-size="7.5">
  <text x="1113" y="517" font-size="7" fill="#74c98a" letter-spacing="0.4">LIFESPAN</text>
  <text x="1113" y="532" font-size="9" fill="#ecf7ee">~14 yrs (wild)</text>
</g>
<g class="fade" stroke="#74c98a" stroke-width="0.7" opacity="0.9">
  <rect x="1106" y="546" width="138" height="30" stroke="#74c98a" stroke-width="0.8" fill="rgba(20,42,28,0.4)"/>
  <line x1="1106" y1="558.5" x2="1244" y2="558.5" stroke="#4f9e68" stroke-width="0.5" opacity="0.5"/>
</g>
<g class="fade" stroke="none" font-size="7.5">
  <text x="1113" y="555" font-size="7" fill="#74c98a" letter-spacing="0.4">DIET</text>
  <text x="1113" y="570" font-size="9" fill="#ecf7ee">grasses · sedges</text>
</g>
<g class="fade" stroke="#74c98a" stroke-width="0.7" opacity="0.9">
  <rect x="1106" y="584" width="138" height="30" stroke="#74c98a" stroke-width="0.8" fill="rgba(20,42,28,0.4)"/>
  <line x1="1106" y1="596.5" x2="1244" y2="596.5" stroke="#4f9e68" stroke-width="0.5" opacity="0.5"/>
</g>
<g class="fade" stroke="none" font-size="7.5">
  <text x="1113" y="593" font-size="7" fill="#74c98a" letter-spacing="0.4">FLIGHT</text>
  <text x="1113" y="608" font-size="9" fill="#ecf7ee">50–60 km/h</text>
</g>
<g class="fade" stroke="#74c98a" stroke-width="0.7" opacity="0.9">
  <rect x="1106" y="622" width="138" height="30" stroke="#74c98a" stroke-width="0.8" fill="rgba(20,42,28,0.4)"/>
  <line x1="1106" y1="634.5" x2="1244" y2="634.5" stroke="#4f9e68" stroke-width="0.5" opacity="0.5"/>
</g>
<g class="fade" stroke="none" font-size="7.5">
  <text x="1113" y="631" font-size="7" fill="#74c98a" letter-spacing="0.4">VOICE</text>
  <text x="1113" y="646" font-size="9" fill="#ecf7ee">barking gnk-gnk</text>
</g>
<g class="fade" stroke="#74c98a" stroke-width="0.7" opacity="0.9">
  <rect x="1106" y="660" width="138" height="30" stroke="#74c98a" stroke-width="0.8" fill="rgba(20,42,28,0.4)"/>
  <line x1="1106" y1="672.5" x2="1244" y2="672.5" stroke="#4f9e68" stroke-width="0.5" opacity="0.5"/>
</g>
<g class="fade" stroke="none" font-size="7.5">
  <text x="1113" y="669" font-size="7" fill="#74c98a" letter-spacing="0.4">STATUS</text>
  <text x="1113" y="684" font-size="9" fill="#ecf7ee">Least Concern</text>
</g>
<g class="fade" stroke="#ecf7ee" stroke-width="0.9" opacity="0.9">
  <rect x="60" y="792" width="180" height="6"/>
  <rect x="60" y="792" width="90" height="6" fill="#4f9e68" stroke="none"/>
</g>
<g class="fade" fill="#74c98a" stroke="none" font-size="7" text-anchor="middle">
  <text x="60" y="808" font-size="7">0</text>
  <text x="150" y="808" font-size="7">25</text>
  <text x="240" y="808" font-size="7">50</text>
  <text x="256" y="808" font-size="7">cm</text>
</g>
<g class="fade" fill="#74c98a" stroke="none" font-size="12">
  <text x="46" y="470" font-size="13" letter-spacing="1.5" transform="rotate(-90 46 470)">BARNACLE GOOSE · PLATE II</text>
</g>
<g class="fade" fill="#ecf7ee" stroke="none" font-size="13" text-anchor="middle">
  <text x="540" y="700" font-size="15" letter-spacing="0.5" font-style="italic">Branta leucopsis</text>
  <text x="540" y="716" font-size="8" fill="#74c98a" letter-spacing="2">B A R N A C L E   G O O S E</text>
</g>
</svg>