<svg viewBox="0 0 1280 860" xmlns="http://www.w3.org/2000/svg" fill="none" stroke-linecap="round" stroke-linejoin="round" font-family="monospace">
<g class="fade" stroke="#b694dd" stroke-width="0.9" opacity="0.65">
  <rect x="26" y="26" width="1228" height="808"/>
  <rect x="34" y="34" width="1212" height="792" stroke="#8a63b5" stroke-width="0.6"/>
  <line x1="25" y1="34" x2="43" y2="34" stroke-width="0.7"/>
  <line x1="34" y1="25" x2="34" y2="43" stroke-width="0.7"/>
  <line x1="1237" y1="34" x2="1255" y2="34" stroke-width="0.7"/>
  <line x1="1246" y1="25" x2="1246" y2="43" stroke-width="0.7"/>
  <line x1="25" y1="826" x2="43" y2="826" stroke-width="0.7"/>
  <line x1="34" y1="817" x2="34" y2="835" stroke-width="0.7"/>
  <line x1="1237" y1="826" x2="1255" y2="826" stroke-width="0.7"/>
  <line x1="1246" y1="817" x2="1246" y2="835" stroke-width="0.7"/>
  <line x1="185.5" y1="34" x2="185.5" y2="42" stroke-width="0.6"/>
  <line x1="185.5" y1="818" x2="185.5" y2="826" stroke-width="0.6"/>
  <line x1="337" y1="34" x2="337" y2="42" stroke-width="0.6"/>
  <line x1="337" y1="818" x2="337" y2="826" stroke-width="0.6"/>
  <line x1="488.5" y1="34" x2="488.5" y2="42" stroke-width="0.6"/>
  <line x1="488.5" y1="818" x2="488.5" y2="826" stroke-width="0.6"/>
  <line x1="640" y1="34" x2="640" y2="42" stroke-width="0.6"/>
  <line x1="640" y1="818" x2="640" y2="826" stroke-width="0.6"/>
  <line x1="791.5" y1="34" x2="791.5" y2="42" stroke-width="0.6"/>
  <line x1="791.5" y1="818" x2="791.5" y2="826" stroke-width="0.6"/>
  <line x1="943" y1="34" x2="943" y2="42" stroke-width="0.6"/>
  <line x1="943" y1="818" x2="943" y2="826" stroke-width="0.6"/>
  <line x1="1094.5" y1="34" x2="1094.5" y2="42" stroke-width="0.6"/>
  <line x1="1094.5" y1="818" x2="1094.5" y2="826" stroke-width="0.6"/>
  <line x1="34" y1="192.4" x2="42" y2="192.4" stroke-width="0.6"/>
  <line x1="1238" y1="192.4" x2="1246" y2="192.4" stroke-width="0.6"/>
  <line x1="34" y1="350.8" x2="42" y2="350.8" stroke-width="0.6"/>
  <line x1="1238" y1="350.8" x2="1246" y2="350.8" stroke-width="0.6"/>
  <line x1="34" y1="509.2" x2="42" y2="509.2" stroke-width="0.6"/>
  <line x1="1238" y1="509.2" x2="1246" y2="509.2" stroke-width="0.6"/>
  <line x1="34" y1="667.6" x2="42" y2="667.6" stroke-width="0.6"/>
  <line x1="1238" y1="667.6" x2="1246" y2="667.6" stroke-width="0.6"/>
</g>
<g class="fade" fill="#b694dd" stroke="none" font-size="8" opacity="0.6" text-anchor="middle">
  <text x="185.5" y="31" font-size="8">1</text>
  <text x="337" y="31" font-size="8">2</text>
  <text x="488.5" y="31" font-size="8">3</text>
  <text x="640" y="31" font-size="8">4</text>
  <text x="791.5" y="31" font-size="8">5</text>
  <text x="943" y="31" font-size="8">6</text>
  <text x="1094.5" y="31" font-size="8">7</text>
  <text x="30" y="195.4" font-size="8">A</text>
  <text x="30" y="353.8" font-size="8">B</text>
  <text x="30" y="512.2" font-size="8">C</text>
  <text x="30" y="670.6" font-size="8">D</text>
</g>
<g class="fade" stroke="#8a63b5" stroke-width="0.7" opacity="0.55">
  <line x1="640" y1="70" x2="640" y2="790" stroke-dasharray="2 6"/>
</g>
<g class="fade" fill="#f3ecfb" stroke="none">
  <text x="60" y="92" font-size="12" letter-spacing="0.8">FIG. 1 — OVIS ARIES</text>
  <text x="60" y="106" font-size="7.5" fill="#b694dd" letter-spacing="0.5">LIVE SPECIMEN · LATERAL</text>
  <text x="664" y="92" font-size="12" letter-spacing="0.8">FIG. 2 — PLUSH UNIT</text>
  <text x="664" y="106" font-size="7.5" fill="#b694dd" letter-spacing="0.5">TYPE S · CONSTRUCTION</text>
</g>
<path class="fade" fill="rgba(243,236,251,0.07)" stroke="none" d="M160 430 a 170 110 0 1 0 340 0 a 170 110 0 1 0 -340 0 Z"/>
<g stroke="#f3ecfb" stroke-width="1.8">
  <path d="M500.0 430.0 Q 512.4 447.8 493.1 461.0 Q 497.6 481.9 473.0 489.5 Q 469.3 511.8 441.3 513.1 Q 429.6 535.1 400.6 530.1 Q 381.9 549.8 354.2 538.9 Q 330.0 554.9 305.8 538.9 Q 278.1 549.8 259.4 530.1 Q 230.4 535.1 218.7 513.1 Q 190.7 511.8 187.0 489.5 Q 162.4 481.9 166.9 461.0 Q 147.6 447.8 160.0 430.0 Q 147.6 412.2 166.9 399.0 Q 162.4 378.1 187.0 370.5 Q 190.7 348.2 218.7 346.9 Q 230.4 324.9 259.4 329.9 Q 278.1 310.2 305.8 321.1 Q 330.0 305.1 354.2 321.1 Q 381.9 310.2 400.6 329.9 Q 429.6 324.9 441.3 346.9 Q 469.3 348.2 473.0 370.5 Q 497.6 378.1 493.1 399.0 Q 512.4 412.2 500.0 430.0 Z" stroke="#f3ecfb" stroke-width="1.8"/>
</g>
<g stroke="#d8c7ee" stroke-width="0.8" opacity="0.8">
  <path d="M491.0 430.0 Q 497.9 447.5 483.1 461.5 Q 481.5 480.7 460.3 490.0 Q 450.2 509.0 424.6 512.5 Q 407.2 529.6 379.8 527.0 Q 356.6 540.4 330.0 532.0 Q 303.4 540.4 280.2 527.0 Q 252.8 529.6 235.4 512.5 Q 209.8 509.0 199.7 490.0 Q 178.5 480.7 176.9 461.5 Q 162.1 447.5 169.0 430.0 Q 162.1 412.5 176.9 398.5 Q 178.5 379.3 199.7 370.0 Q 209.8 351.0 235.4 347.5 Q 252.8 330.4 280.2 333.0 Q 303.4 319.6 330.0 328.0 Q 356.6 319.6 379.8 333.0 Q 407.2 330.4 424.6 347.5 Q 450.2 351.0 460.3 370.0 Q 481.5 379.3 483.1 398.5 Q 497.9 412.5 491.0 430.0 Z" stroke="#d8c7ee" stroke-width="0.8"/>
</g>
<g stroke="#b694dd" stroke-width="0.7" opacity="0.7">
  <path d="M311.8 442.2 a 2.2 2.2 0 0 1 4.4 0 a 2.2 2.2 0 0 1 4.4 0"/>
  <path d="M389.4 451.2 a 1.9 1.9 0 0 1 3.9 0 a 1.9 1.9 0 0 1 3.9 0"/>
  <path d="M389.6 446.3 a 1.6 1.6 0 0 1 3.3 0 a 1.6 1.6 0 0 1 3.3 0"/>
  <path d="M314.4 432.6 a 1.7 1.7 0 0 1 3.4 0 a 1.7 1.7 0 0 1 3.4 0"/>
  <path d="M220.6 464.1 a 1.7 1.7 0 0 1 3.4 0 a 1.7 1.7 0 0 1 3.4 0"/>
  <path d="M334.8 485.8 a 2.5 2.5 0 0 1 4.9 0 a 2.5 2.5 0 0 1 4.9 0"/>
  <path d="M271.2 413.3 a 2.5 2.5 0 0 1 5.0 0 a 2.5 2.5 0 0 1 5.0 0"/>
  <path d="M437.1 452.3 a 1.9 1.9 0 0 1 3.7 0 a 1.9 1.9 0 0 1 3.7 0"/>
  <path d="M332.6 438.4 a 1.9 1.9 0 0 1 3.8 0 a 1.9 1.9 0 0 1 3.8 0"/>
  <path d="M331.7 415.1 a 2.1 2.1 0 0 1 4.2 0 a 2.1 2.1 0 0 1 4.2 0"/>
  <path d="M288.3 404.3 a 2.1 2.1 0 0 1 4.2 0 a 2.1 2.1 0 0 1 4.2 0"/>
  <path d="M330.5 432.1 a 1.8 1.8 0 0 1 3.6 0 a 1.8 1.8 0 0 1 3.6 0"/>
  <path d="M297.2 395.1 a 1.9 1.9 0 0 1 3.8 0 a 1.9 1.9 0 0 1 3.8 0"/>
  <path d="M268.3 409.1 a 1.9 1.9 0 0 1 3.7 0 a 1.9 1.9 0 0 1 3.7 0"/>
  <path d="M349.5 369.4 a 1.8 1.8 0 0 1 3.6 0 a 1.8 1.8 0 0 1 3.6 0"/>
  <path d="M255.1 408.6 a 2.4 2.4 0 0 1 4.8 0 a 2.4 2.4 0 0 1 4.8 0"/>
  <path d="M314.9 404.2 a 2.5 2.5 0 0 1 5.0 0 a 2.5 2.5 0 0 1 5.0 0"/>
  <path d="M363.8 455.5 a 2.3 2.3 0 0 1 4.6 0 a 2.3 2.3 0 0 1 4.6 0"/>
  <path d="M362.8 466.0 a 1.6 1.6 0 0 1 3.3 0 a 1.6 1.6 0 0 1 3.3 0"/>
  <path d="M269.1 369.9 a 2.1 2.1 0 0 1 4.2 0 a 2.1 2.1 0 0 1 4.2 0"/>
  <path d="M352.1 410.0 a 2.2 2.2 0 0 1 4.5 0 a 2.2 2.2 0 0 1 4.5 0"/>
  <path d="M254.9 400.8 a 2.0 2.0 0 0 1 4.0 0 a 2.0 2.0 0 0 1 4.0 0"/>
  <path d="M392.4 358.0 a 2.0 2.0 0 0 1 4.1 0 a 2.0 2.0 0 0 1 4.1 0"/>
  <path d="M316.7 425.3 a 2.2 2.2 0 0 1 4.5 0 a 2.2 2.2 0 0 1 4.5 0"/>
  <path d="M237.3 358.5 a 2.3 2.3 0 0 1 4.7 0 a 2.3 2.3 0 0 1 4.7 0"/>
  <path d="M309.6 464.0 a 2.2 2.2 0 0 1 4.4 0 a 2.2 2.2 0 0 1 4.4 0"/>
  <path d="M386.7 435.9 a 1.8 1.8 0 0 1 3.5 0 a 1.8 1.8 0 0 1 3.5 0"/>
  <path d="M326.9 433.6 a 2.3 2.3 0 0 1 4.6 0 a 2.3 2.3 0 0 1 4.6 0"/>
  <path d="M345.9 446.2 a 2.0 2.0 0 0 1 3.9 0 a 2.0 2.0 0 0 1 3.9 0"/>
  <path d="M329.7 424.7 a 2.0 2.0 0 0 1 4.0 0 a 2.0 2.0 0 0 1 4.0 0"/>
  <path d="M203.4 405.6 a 2.3 2.3 0 0 1 4.7 0 a 2.3 2.3 0 0 1 4.7 0"/>
  <path d="M347.6 411.1 a 2.0 2.0 0 0 1 3.9 0 a 2.0 2.0 0 0 1 3.9 0"/>
  <path d="M242.3 491.8 a 2.5 2.5 0 0 1 4.9 0 a 2.5 2.5 0 0 1 4.9 0"/>
  <path d="M337.1 442.9 a 1.8 1.8 0 0 1 3.6 0 a 1.8 1.8 0 0 1 3.6 0"/>
  <path d="M328.5 473.5 a 2.1 2.1 0 0 1 4.3 0 a 2.1 2.1 0 0 1 4.3 0"/>
  <path d="M322.0 430.4 a 2.0 2.0 0 0 1 4.0 0 a 2.0 2.0 0 0 1 4.0 0"/>
  <path d="M266.4 467.4 a 2.5 2.5 0 0 1 4.9 0 a 2.5 2.5 0 0 1 4.9 0"/>
  <path d="M295.1 386.7 a 2.2 2.2 0 0 1 4.3 0 a 2.2 2.2 0 0 1 4.3 0"/>
  <path d="M317.0 425.6 a 2.4 2.4 0 0 1 4.8 0 a 2.4 2.4 0 0 1 4.8 0"/>
  <path d="M343.5 352.5 a 2.3 2.3 0 0 1 4.6 0 a 2.3 2.3 0 0 1 4.6 0"/>
  <path d="M279.8 452.5 a 1.7 1.7 0 0 1 3.4 0 a 1.7 1.7 0 0 1 3.4 0"/>
  <path d="M317.6 425.8 a 1.7 1.7 0 0 1 3.3 0 a 1.7 1.7 0 0 1 3.3 0"/>
  <path d="M328.2 444.2 a 1.9 1.9 0 0 1 3.8 0 a 1.9 1.9 0 0 1 3.8 0"/>
  <path d="M323.1 430.0 a 1.7 1.7 0 0 1 3.5 0 a 1.7 1.7 0 0 1 3.5 0"/>
  <path d="M364.2 449.5 a 1.6 1.6 0 0 1 3.2 0 a 1.6 1.6 0 0 1 3.2 0"/>
  <path d="M383.3 390.7 a 1.7 1.7 0 0 1 3.5 0 a 1.7 1.7 0 0 1 3.5 0"/>
  <path d="M321.6 461.3 a 1.9 1.9 0 0 1 3.9 0 a 1.9 1.9 0 0 1 3.9 0"/>
  <path d="M404.8 483.4 a 2.5 2.5 0 0 1 5.0 0 a 2.5 2.5 0 0 1 5.0 0"/>
  <path d="M257.4 439.3 a 1.7 1.7 0 0 1 3.4 0 a 1.7 1.7 0 0 1 3.4 0"/>
  <path d="M360.9 448.5 a 1.8 1.8 0 0 1 3.7 0 a 1.8 1.8 0 0 1 3.7 0"/>
  <path d="M334.2 417.2 a 1.6 1.6 0 0 1 3.2 0 a 1.6 1.6 0 0 1 3.2 0"/>
  <path d="M393.2 415.6 a 1.7 1.7 0 0 1 3.5 0 a 1.7 1.7 0 0 1 3.5 0"/>
  <path d="M318.1 429.3 a 2.1 2.1 0 0 1 4.2 0 a 2.1 2.1 0 0 1 4.2 0"/>
  <path d="M440.3 419.5 a 2.2 2.2 0 0 1 4.5 0 a 2.2 2.2 0 0 1 4.5 0"/>
  <path d="M319.4 463.0 a 1.8 1.8 0 0 1 3.5 0 a 1.8 1.8 0 0 1 3.5 0"/>
  <path d="M331.0 382.4 a 2.3 2.3 0 0 1 4.6 0 a 2.3 2.3 0 0 1 4.6 0"/>
  <path d="M305.8 447.7 a 2.3 2.3 0 0 1 4.7 0 a 2.3 2.3 0 0 1 4.7 0"/>
  <path d="M439.0 422.7 a 2.3 2.3 0 0 1 4.7 0 a 2.3 2.3 0 0 1 4.7 0"/>
  <path d="M365.7 369.3 a 1.8 1.8 0 0 1 3.6 0 a 1.8 1.8 0 0 1 3.6 0"/>
  <path d="M274.2 426.5 a 1.6 1.6 0 0 1 3.3 0 a 1.6 1.6 0 0 1 3.3 0"/>
  <path d="M361.0 434.4 a 1.8 1.8 0 0 1 3.7 0 a 1.8 1.8 0 0 1 3.7 0"/>
  <path d="M274.9 349.3 a 2.0 2.0 0 0 1 4.0 0 a 2.0 2.0 0 0 1 4.0 0"/>
  <path d="M447.3 395.6 a 2.5 2.5 0 0 1 4.9 0 a 2.5 2.5 0 0 1 4.9 0"/>
  <path d="M302.5 444.9 a 1.8 1.8 0 0 1 3.6 0 a 1.8 1.8 0 0 1 3.6 0"/>
  <path d="M330.7 447.4 a 2.2 2.2 0 0 1 4.3 0 a 2.2 2.2 0 0 1 4.3 0"/>
  <path d="M416.8 385.6 a 2.0 2.0 0 0 1 4.1 0 a 2.0 2.0 0 0 1 4.1 0"/>
  <path d="M259.5 370.9 a 1.7 1.7 0 0 1 3.4 0 a 1.7 1.7 0 0 1 3.4 0"/>
  <path d="M253.2 360.6 a 2.3 2.3 0 0 1 4.6 0 a 2.3 2.3 0 0 1 4.6 0"/>
  <path d="M323.0 386.9 a 1.8 1.8 0 0 1 3.5 0 a 1.8 1.8 0 0 1 3.5 0"/>
  <path d="M332.0 400.9 a 2.3 2.3 0 0 1 4.6 0 a 2.3 2.3 0 0 1 4.6 0"/>
  <path d="M376.5 423.7 a 2.0 2.0 0 0 1 3.9 0 a 2.0 2.0 0 0 1 3.9 0"/>
  <path d="M418.4 408.6 a 1.8 1.8 0 0 1 3.5 0 a 1.8 1.8 0 0 1 3.5 0"/>
  <path d="M335.0 439.8 a 2.4 2.4 0 0 1 4.8 0 a 2.4 2.4 0 0 1 4.8 0"/>
  <path d="M327.7 417.6 a 2.3 2.3 0 0 1 4.7 0 a 2.3 2.3 0 0 1 4.7 0"/>
  <path d="M413.3 422.7 a 1.9 1.9 0 0 1 3.8 0 a 1.9 1.9 0 0 1 3.8 0"/>
  <path d="M306.1 426.4 a 1.6 1.6 0 0 1 3.2 0 a 1.6 1.6 0 0 1 3.2 0"/>
  <path d="M410.8 419.3 a 2.1 2.1 0 0 1 4.1 0 a 2.1 2.1 0 0 1 4.1 0"/>
  <path d="M375.8 414.2 a 2.4 2.4 0 0 1 4.8 0 a 2.4 2.4 0 0 1 4.8 0"/>
  <path d="M336.2 413.1 a 1.8 1.8 0 0 1 3.7 0 a 1.8 1.8 0 0 1 3.7 0"/>
  <path d="M312.5 450.9 a 2.1 2.1 0 0 1 4.3 0 a 2.1 2.1 0 0 1 4.3 0"/>
  <path d="M319.7 467.7 a 1.7 1.7 0 0 1 3.4 0 a 1.7 1.7 0 0 1 3.4 0"/>
  <path d="M363.6 412.9 a 2.0 2.0 0 0 1 4.0 0 a 2.0 2.0 0 0 1 4.0 0"/>
  <path d="M212.9 389.2 a 2.0 2.0 0 0 1 4.0 0 a 2.0 2.0 0 0 1 4.0 0"/>
  <path d="M382.5 407.6 a 2.1 2.1 0 0 1 4.2 0 a 2.1 2.1 0 0 1 4.2 0"/>
  <path d="M319.4 429.8 a 2.0 2.0 0 0 1 4.0 0 a 2.0 2.0 0 0 1 4.0 0"/>
  <path d="M320.9 430.3 a 2.3 2.3 0 0 1 4.6 0 a 2.3 2.3 0 0 1 4.6 0"/>
  <path d="M351.9 467.7 a 2.3 2.3 0 0 1 4.5 0 a 2.3 2.3 0 0 1 4.5 0"/>
  <path d="M279.1 419.8 a 2.1 2.1 0 0 1 4.1 0 a 2.1 2.1 0 0 1 4.1 0"/>
  <path d="M220.5 405.9 a 1.7 1.7 0 0 1 3.4 0 a 1.7 1.7 0 0 1 3.4 0"/>
  <path d="M290.4 421.7 a 1.8 1.8 0 0 1 3.7 0 a 1.8 1.8 0 0 1 3.7 0"/>
</g>
<g stroke="#f3ecfb" stroke-width="1.6">
  <path d="M196 372 C 176 378 150 392 132 412 C 120 426 118 444 130 452 C 140 458 156 456 168 448 C 184 436 198 420 206 402 C 210 390 208 378 196 372 Z" fill="rgba(36,22,56,0.35)"/>
</g>
<g stroke="#d8c7ee" stroke-width="1">
  <path d="M130 446 C 124 448 122 444 126 440"/>
  <line x1="131" y1="451" x2="146" y2="449"/>
</g>
<g stroke="#f3ecfb" stroke-width="1.2">
  <ellipse cx="172" cy="408" rx="6" ry="4" transform="rotate(-18 172 408)"/>
  <line x1="169" y1="408" x2="175" y2="408" stroke="#b694dd" stroke-width="1.4"/>
</g>
<g stroke="#f3ecfb" stroke-width="1.3">
  <path d="M200 380 C 214 366 232 364 240 374 C 234 384 218 390 204 392 Z" fill="rgba(36,22,56,0.3)"/>
</g>
<g stroke="#f3ecfb" stroke-width="1.5">
  <line x1="252" y1="520" x2="249" y2="616"/>
  <line x1="260" y1="520" x2="257" y2="616"/>
  <path d="M248 616 L 258 616 L 258 624 L 248 624 Z" fill="rgba(36,22,56,0.5)"/>
  <line x1="253" y1="616" x2="253" y2="624" stroke="#b694dd" stroke-width="0.7"/>
  <line x1="300" y1="524" x2="297" y2="624"/>
  <line x1="308" y1="524" x2="305" y2="624"/>
  <path d="M296 624 L 306 624 L 306 632 L 296 632 Z" fill="rgba(36,22,56,0.5)"/>
  <line x1="301" y1="624" x2="301" y2="632" stroke="#b694dd" stroke-width="0.7"/>
  <line x1="404" y1="520" x2="401" y2="616"/>
  <line x1="412" y1="520" x2="409" y2="616"/>
  <path d="M400 616 L 410 616 L 410 624 L 400 624 Z" fill="rgba(36,22,56,0.5)"/>
  <line x1="405" y1="616" x2="405" y2="624" stroke="#b694dd" stroke-width="0.7"/>
  <line x1="440" y1="520" x2="437" y2="620"/>
  <line x1="448" y1="520" x2="445" y2="620"/>
  <path d="M436 620 L 446 620 L 446 628 L 436 628 Z" fill="rgba(36,22,56,0.5)"/>
  <line x1="441" y1="620" x2="441" y2="628" stroke="#b694dd" stroke-width="0.7"/>
</g>
<g stroke="#f3ecfb" stroke-width="1.4">
  <path d="M498 432 C 514 430 522 444 516 460 C 510 470 500 466 498 456"/>
</g>
<g class="fade lead" stroke="#b694dd" stroke-width="0.8" opacity="0.85">
  <line x1="128" y1="444" x2="70" y2="470"/>
  <circle cx="128" cy="444" r="1.7" fill="#b694dd" stroke="none"/>
  <circle cx="70" cy="470" r="8.5" fill="rgba(36,22,56,0.85)"/>
</g>
<g class="fade" fill="#b694dd" stroke="none" font-size="9" text-anchor="start">
  <text x="70" y="473" font-size="9">1</text>
</g>
<g class="fade lead" stroke="#b694dd" stroke-width="0.8" opacity="0.85">
  <line x1="172" y1="408" x2="96" y2="360"/>
  <circle cx="172" cy="408" r="1.7" fill="#b694dd" stroke="none"/>
  <circle cx="96" cy="360" r="8.5" fill="rgba(36,22,56,0.85)"/>
</g>
<g class="fade" fill="#b694dd" stroke="none" font-size="9" text-anchor="middle">
  <text x="96" y="363" font-size="9">2</text>
</g>
<g class="fade lead" stroke="#b694dd" stroke-width="0.8" opacity="0.85">
  <line x1="222" y1="372" x2="250" y2="320"/>
  <circle cx="222" cy="372" r="1.7" fill="#b694dd" stroke="none"/>
  <circle cx="250" cy="320" r="8.5" fill="rgba(36,22,56,0.85)"/>
</g>
<g class="fade" fill="#b694dd" stroke="none" font-size="9" text-anchor="middle">
  <text x="250" y="323" font-size="9">3</text>
</g>
<g class="fade lead" stroke="#b694dd" stroke-width="0.8" opacity="0.85">
  <line x1="330" y1="332" x2="360" y2="300"/>
  <circle cx="330" cy="332" r="1.7" fill="#b694dd" stroke="none"/>
  <circle cx="360" cy="300" r="8.5" fill="rgba(36,22,56,0.85)"/>
</g>
<g class="fade" fill="#b694dd" stroke="none" font-size="9" text-anchor="middle">
  <text x="360" y="303" font-size="9">4</text>
</g>
<g class="fade lead" stroke="#b694dd" stroke-width="0.8" opacity="0.85">
  <line x1="440" y1="360" x2="520" y2="320"/>
  <circle cx="440" cy="360" r="1.7" fill="#b694dd" stroke="none"/>
  <circle cx="520" cy="320" r="8.5" fill="rgba(36,22,56,0.85)"/>
</g>
<g class="fade" fill="#b694dd" stroke="none" font-size="9" text-anchor="middle">
  <text x="520" y="323" font-size="9">5</text>
</g>
<g class="fade lead" stroke="#b694dd" stroke-width="0.8" opacity="0.85">
  <line x1="508" y1="452" x2="560" y2="470"/>
  <circle cx="508" cy="452" r="1.7" fill="#b694dd" stroke="none"/>
  <circle cx="560" cy="470" r="8.5" fill="rgba(36,22,56,0.85)"/>
</g>
<g class="fade" fill="#b694dd" stroke="none" font-size="9" text-anchor="start">
  <text x="560" y="473" font-size="9">6</text>
</g>
<g class="fade lead" stroke="#b694dd" stroke-width="0.8" opacity="0.85">
  <line x1="300" y1="600" x2="300" y2="660"/>
  <circle cx="300" cy="600" r="1.7" fill="#b694dd" stroke="none"/>
  <circle cx="300" cy="660" r="8.5" fill="rgba(36,22,56,0.85)"/>
</g>
<g class="fade" fill="#b694dd" stroke="none" font-size="9" text-anchor="middle">
  <text x="300" y="663" font-size="9">7</text>
</g>
<g class="fade lead" stroke="#b694dd" stroke-width="0.8" opacity="0.85">
  <line x1="250" y1="470" x2="130" y2="560"/>
  <circle cx="250" cy="470" r="1.7" fill="#b694dd" stroke="none"/>
  <circle cx="130" cy="560" r="8.5" fill="rgba(36,22,56,0.85)"/>
</g>
<g class="fade" fill="#b694dd" stroke="none" font-size="9" text-anchor="middle">
  <text x="130" y="563" font-size="9">8</text>
</g>
<g class="fade" fill="#b694dd" stroke="none" font-size="7.5">
  <text x="60" y="662" font-size="9" fill="#f3ecfb" letter-spacing="0.6">ANATOMY KEY</text>
  <text x="60" y="678" font-size="7.5">1  MUZZLE / NOSE</text>
  <text x="60" y="691" font-size="7.5">2  EYE  (horizontal pupil)</text>
  <text x="60" y="704" font-size="7.5">3  EAR</text>
  <text x="60" y="717" font-size="7.5">4  FLEECE  (staple)</text>
  <text x="300" y="678" font-size="7.5">5  LOIN / RUMP</text>
  <text x="300" y="691" font-size="7.5">6  DOCK / TAIL</text>
  <text x="300" y="704" font-size="7.5">7  CANNON · HOOF (cloven)</text>
  <text x="300" y="717" font-size="7.5">8  FORE-FLANK</text>
</g>
<g class="fade" stroke="#8a63b5" stroke-width="0.8" opacity="0.85">
  <circle cx="150" cy="250" r="66" fill="rgba(36,22,56,0.85)"/>
  <line x1="194" y1="298" x2="240" y2="372" stroke-dasharray="4 4"/>
</g>
<g class="fade" stroke="#f3ecfb" stroke-width="0.9" opacity="0.95">
  <path d="M110 206 q 8 10 0 20 q -8 10 0 20 q 8 10 0 20 q -8 10 0 20 q 8 10 0 20" stroke="#f3ecfb" stroke-width="0.9"/>
  <path d="M130 206 q 8 10 0 20 q -8 10 0 20 q 8 10 0 20 q -8 10 0 20 q 8 10 0 20" stroke="#d8c7ee" stroke-width="0.9"/>
  <path d="M150 206 q 8 10 0 20 q -8 10 0 20 q 8 10 0 20 q -8 10 0 20 q 8 10 0 20" stroke="#f3ecfb" stroke-width="0.9"/>
  <path d="M170 206 q 8 10 0 20 q -8 10 0 20 q 8 10 0 20 q -8 10 0 20 q 8 10 0 20" stroke="#d8c7ee" stroke-width="0.9"/>
  <path d="M190 206 q 8 10 0 20 q -8 10 0 20 q 8 10 0 20 q -8 10 0 20 q 8 10 0 20" stroke="#f3ecfb" stroke-width="0.9"/>
</g>
<g class="fade" fill="#b694dd" stroke="none" font-size="8.5" text-anchor="middle">
  <text x="150" y="170" font-size="9" fill="#f3ecfb">DETAIL A</text>
  <text x="150" y="180" font-size="6.5">WOOL STAPLE · CRIMP · 8:1</text>
</g>
<g class="fade" fill="#f3ecfb" stroke="none">
  <text x="60" y="736" font-size="9" letter-spacing="0.6">VITALS</text>
</g>
<g class="fade" stroke="#b694dd" stroke-width="0.7" opacity="0.9">
  <rect x="60" y="742" width="176" height="30" stroke="#b694dd" stroke-width="0.8" fill="rgba(40,24,62,0.45)"/>
  <line x1="60" y1="754.5" x2="236" y2="754.5" stroke="#8a63b5" stroke-width="0.5" opacity="0.5"/>
</g>
<g class="fade" stroke="none">
  <text x="67" y="751" font-size="7" fill="#b694dd" letter-spacing="0.4">MASS</text>
  <text x="67" y="766" font-size="9" fill="#f3ecfb">45–160 kg</text>
</g>
<g class="fade" stroke="#b694dd" stroke-width="0.7" opacity="0.9">
  <rect x="246" y="742" width="176" height="30" stroke="#b694dd" stroke-width="0.8" fill="rgba(40,24,62,0.45)"/>
  <line x1="246" y1="754.5" x2="422" y2="754.5" stroke="#8a63b5" stroke-width="0.5" opacity="0.5"/>
</g>
<g class="fade" stroke="none">
  <text x="253" y="751" font-size="7" fill="#b694dd" letter-spacing="0.4">FLEECE</text>
  <text x="253" y="766" font-size="9" fill="#f3ecfb">2–11 kg/yr</text>
</g>
<g class="fade" stroke="#b694dd" stroke-width="0.7" opacity="0.9">
  <rect x="432" y="742" width="176" height="30" stroke="#b694dd" stroke-width="0.8" fill="rgba(40,24,62,0.45)"/>
  <line x1="432" y1="754.5" x2="608" y2="754.5" stroke="#8a63b5" stroke-width="0.5" opacity="0.5"/>
</g>
<g class="fade" stroke="none">
  <text x="439" y="751" font-size="7" fill="#b694dd" letter-spacing="0.4">TEETH</text>
  <text x="439" y="766" font-size="9" fill="#f3ecfb">32 · no upper front</text>
</g>
<g class="fade" stroke="#b694dd" stroke-width="0.7" opacity="0.9">
  <rect x="60" y="782" width="176" height="30" stroke="#b694dd" stroke-width="0.8" fill="rgba(40,24,62,0.45)"/>
  <line x1="60" y1="794.5" x2="236" y2="794.5" stroke="#8a63b5" stroke-width="0.5" opacity="0.5"/>
</g>
<g class="fade" stroke="none">
  <text x="67" y="791" font-size="7" fill="#b694dd" letter-spacing="0.4">GESTATION</text>
  <text x="67" y="806" font-size="9" fill="#f3ecfb">~147 days</text>
</g>
<g class="fade" stroke="#b694dd" stroke-width="0.7" opacity="0.9">
  <rect x="246" y="782" width="176" height="30" stroke="#b694dd" stroke-width="0.8" fill="rgba(40,24,62,0.45)"/>
  <line x1="246" y1="794.5" x2="422" y2="794.5" stroke="#8a63b5" stroke-width="0.5" opacity="0.5"/>
</g>
<g class="fade" stroke="none">
  <text x="253" y="791" font-size="7" fill="#b694dd" letter-spacing="0.4">LIFESPAN</text>
  <text x="253" y="806" font-size="9" fill="#f3ecfb">10–12 yrs</text>
</g>
<g class="fade" stroke="#b694dd" stroke-width="0.7" opacity="0.9">
  <rect x="432" y="782" width="176" height="30" stroke="#b694dd" stroke-width="0.8" fill="rgba(40,24,62,0.45)"/>
  <line x1="432" y1="794.5" x2="608" y2="794.5" stroke="#8a63b5" stroke-width="0.5" opacity="0.5"/>
</g>
<g class="fade" stroke="none">
  <text x="439" y="791" font-size="7" fill="#b694dd" letter-spacing="0.4">STOMACH</text>
  <text x="439" y="806" font-size="9" fill="#f3ecfb">4 chambers</text>
</g>
<path class="fade" fill="rgba(243,236,251,0.08)" stroke="none" d="M790 420 a 150 118 0 1 0 300 0 a 150 118 0 1 0 -300 0 Z"/>
<g stroke="#f3ecfb" stroke-width="2">
  <path d="M1090.0 420.0 Q 1095.0 450.8 1072.8 474.8 Q 1059.5 505.3 1025.2 517.1 Q 996.6 540.2 958.1 537.1 Q 920.8 547.6 886.8 530.3 Q 849.3 525.8 827.7 498.2 Q 798.6 479.7 794.4 448.2 Q 780.4 420.0 794.4 391.8 Q 798.6 360.3 827.7 341.8 Q 849.3 314.2 886.8 309.7 Q 920.8 292.4 958.1 302.9 Q 996.6 299.8 1025.2 322.9 Q 1059.5 334.7 1072.8 365.2 Q 1095.0 389.2 1090.0 420.0 Z" stroke="#f3ecfb" stroke-width="2"/>
</g>
<g class="fade" stroke="#d8c7ee" stroke-width="0.9" opacity="0.8">
  <path d="M940 304 C 958 380 922 460 940 536" stroke-dasharray="5 4"/>
  <path d="M790 420 C 850 350 850 490 790 420" stroke-dasharray="5 4"/>
</g>
<g class="fade" stroke="#b694dd" stroke-width="0.7" opacity="0.7">
  <line x1="925.228" y1="320" x2="933.228" y2="320"/>
  <line x1="919.633" y1="340" x2="927.633" y2="340"/>
  <line x1="918.045" y1="360" x2="926.045" y2="360"/>
  <line x1="920.854" y1="380" x2="928.854" y2="380"/>
  <line x1="927.37" y1="400" x2="935.37" y2="400"/>
  <line x1="936" y1="420" x2="944" y2="420"/>
  <line x1="944.63" y1="440" x2="952.63" y2="440"/>
  <line x1="951.146" y1="460" x2="959.146" y2="460"/>
  <line x1="953.955" y1="480" x2="961.955" y2="480"/>
  <line x1="952.367" y1="500" x2="960.367" y2="500"/>
  <line x1="946.772" y1="520" x2="954.772" y2="520"/>
</g>
<g stroke="#f3ecfb" stroke-width="1.8">
  <path d="M896.0 392.0 Q 897.4 412.4 882.0 426.7 Q 868.7 443.7 846.4 445.2 Q 824.6 450.8 806.0 438.8 Q 785.9 430.4 779.6 410.5 Q 770.6 392.0 779.6 373.5 Q 785.9 353.6 806.0 345.2 Q 824.6 333.2 846.4 338.8 Q 868.7 340.3 882.0 357.3 Q 897.4 371.6 896.0 392.0 Z" stroke="#f3ecfb" stroke-width="1.8"/>
</g>
<g stroke="#d8c7ee" stroke-width="1" opacity="0.85">
  <ellipse cx="832" cy="398" rx="38" ry="40" stroke-dasharray="4 3"/>
</g>
<g stroke="#f3ecfb" stroke-width="1.4">
  <path d="M790 362 C 764 348 766 374 792 380 Z" fill="rgba(40,24,62,0.4)"/>
  <path d="M882 362 C 908 348 906 374 880 380 Z" fill="rgba(40,24,62,0.4)"/>
</g>
<g stroke="#f3ecfb" stroke-width="1.3">
  <circle cx="816" cy="394" r="11"/>
  <circle cx="816" cy="394" r="6.6" stroke="#d8c7ee" stroke-width="0.8"/>
</g>
<g class="fade" fill="#f3ecfb" stroke="none">
  <circle cx="816" cy="394.8" r="3.4"/>
</g>
<g class="fade" stroke="#b694dd" stroke-width="0.7" opacity="0.7">
  <line x1="813" y1="394" x2="819" y2="394"/>
  <line x1="816" y1="391" x2="816" y2="397"/>
</g>
<g stroke="#f3ecfb" stroke-width="1.3">
  <circle cx="856" cy="394" r="11"/>
  <circle cx="856" cy="394" r="6.6" stroke="#d8c7ee" stroke-width="0.8"/>
</g>
<g class="fade" fill="#f3ecfb" stroke="none">
  <circle cx="860.2" cy="389.8" r="3.4"/>
</g>
<g class="fade" stroke="#b694dd" stroke-width="0.7" opacity="0.7">
  <line x1="853" y1="394" x2="859" y2="394"/>
  <line x1="856" y1="391" x2="856" y2="397"/>
</g>
<g class="fade" stroke="#b694dd" stroke-width="0.8" opacity="0.8">
  <line x1="816" y1="394" x2="796" y2="414" stroke-dasharray="2 3"/>
</g>
<g class="fade" stroke="#f3ecfb" stroke-width="1" opacity="0.95">
  <line x1="856" y1="394" x2="886" y2="366" stroke-dasharray="2 3"/>
  <path d="M881 374 L 886 366 L 877 368" fill="none"/>
</g>
<g class="fade" stroke="#b694dd" stroke-width="0.7" opacity="0.8">
  <path d="M878 394 A 22 22 0 0 0 874 380" stroke-dasharray="2 2"/>
</g>
<g stroke="#f3ecfb" stroke-width="1.3">
  <path d="M836 416 l 5 6 l -5 4 l -5 -4 z" fill="rgba(40,24,62,0.5)"/>
  <path d="M828 426 q 8 8 16 0" stroke="#d8c7ee" stroke-width="0.9" stroke-dasharray="3 2"/>
</g>
<g stroke="#f3ecfb" stroke-width="1.6">
  <path d="M878 516 q -10 22 0 30 q 12 4 18 0 q 8 -10 0 -30 z" fill="rgba(40,24,62,0.3)"/>
  <line x1="878" y1="518" x2="896" y2="518" stroke="#d8c7ee" stroke-width="0.7" stroke-dasharray="3 2"/>
  <path d="M938 516 q -10 22 0 30 q 12 4 18 0 q 8 -10 0 -30 z" fill="rgba(40,24,62,0.3)"/>
  <line x1="938" y1="518" x2="956" y2="518" stroke="#d8c7ee" stroke-width="0.7" stroke-dasharray="3 2"/>
  <path d="M990 516 q -10 22 0 30 q 12 4 18 0 q 8 -10 0 -30 z" fill="rgba(40,24,62,0.3)"/>
  <line x1="990" y1="518" x2="1008" y2="518" stroke="#d8c7ee" stroke-width="0.7" stroke-dasharray="3 2"/>
</g>
<g stroke="#f3ecfb" stroke-width="1.2">
  <circle cx="1090" cy="414" r="14"/>
</g>
<g class="fade" stroke="#b694dd" stroke-width="0.6" opacity="0.7">
  <line x1="1095" y1="414" x2="1102" y2="414"/>
  <line x1="1093.83" y1="417.214" x2="1099.19" y2="421.713"/>
  <line x1="1090.87" y1="418.924" x2="1092.08" y2="425.818"/>
  <line x1="1087.5" y1="418.33" x2="1084" y2="424.392"/>
  <line x1="1085.3" y1="415.71" x2="1078.72" y2="418.104"/>
  <line x1="1085.3" y1="412.29" x2="1078.72" y2="409.896"/>
  <line x1="1087.5" y1="409.67" x2="1084" y2="403.608"/>
  <line x1="1090.87" y1="409.076" x2="1092.08" y2="402.182"/>
  <line x1="1093.83" y1="410.786" x2="1099.19" y2="406.287"/>
</g>
<g class="fade lead" stroke="#b694dd" stroke-width="0.8" opacity="0.85">
  <line x1="856" y1="394" x2="932" y2="322"/>
  <circle cx="856" cy="394" r="1.7" fill="#b694dd" stroke="none"/>
  <circle cx="932" cy="322" r="8.5" fill="rgba(36,22,56,0.85)"/>
</g>
<g class="fade" fill="#b694dd" stroke="none" font-size="9" text-anchor="start">
  <text x="932" y="325" font-size="9">9</text>
</g>
<g class="fade lead" stroke="#b694dd" stroke-width="0.8" opacity="0.85">
  <line x1="816" y1="394" x2="750" y2="336"/>
  <circle cx="816" cy="394" r="1.7" fill="#b694dd" stroke="none"/>
  <circle cx="750" cy="336" r="8.5" fill="rgba(36,22,56,0.85)"/>
</g>
<g class="fade" fill="#b694dd" stroke="none" font-size="9" text-anchor="end">
  <text x="750" y="339" font-size="9">10</text>
</g>
<g class="fade lead" stroke="#b694dd" stroke-width="0.8" opacity="0.85">
  <line x1="940" y1="360" x2="1036" y2="310"/>
  <circle cx="940" cy="360" r="1.7" fill="#b694dd" stroke="none"/>
  <circle cx="1036" cy="310" r="8.5" fill="rgba(36,22,56,0.85)"/>
</g>
<g class="fade" fill="#b694dd" stroke="none" font-size="9" text-anchor="start">
  <text x="1036" y="313" font-size="9">11</text>
</g>
<g class="fade lead" stroke="#b694dd" stroke-width="0.8" opacity="0.85">
  <line x1="790" y1="420" x2="790" y2="570"/>
  <circle cx="790" cy="420" r="1.7" fill="#b694dd" stroke="none"/>
  <circle cx="790" cy="570" r="8.5" fill="rgba(36,22,56,0.85)"/>
</g>
<g class="fade" fill="#b694dd" stroke="none" font-size="9" text-anchor="middle">
  <text x="790" y="573" font-size="9">12</text>
</g>
<g class="fade lead" stroke="#b694dd" stroke-width="0.8" opacity="0.85">
  <line x1="1090" y1="414" x2="1090" y2="570"/>
  <circle cx="1090" cy="414" r="1.7" fill="#b694dd" stroke="none"/>
  <circle cx="1090" cy="570" r="8.5" fill="rgba(36,22,56,0.85)"/>
</g>
<g class="fade" fill="#b694dd" stroke="none" font-size="9" text-anchor="middle">
  <text x="1090" y="573" font-size="9">13</text>
</g>
<g class="fade lead" stroke="#b694dd" stroke-width="0.8" opacity="0.85">
  <line x1="890" y1="530" x2="820" y2="590"/>
  <circle cx="890" cy="530" r="1.7" fill="#b694dd" stroke="none"/>
  <circle cx="820" cy="590" r="8.5" fill="rgba(36,22,56,0.85)"/>
</g>
<g class="fade" fill="#b694dd" stroke="none" font-size="9" text-anchor="end">
  <text x="820" y="593" font-size="9">14</text>
</g>
<g class="fade" fill="#b694dd" stroke="none" font-size="7.5">
  <text x="664" y="640" font-size="9" fill="#f3ecfb" letter-spacing="0.6">CONSTRUCTION KEY</text>
  <text x="664" y="656" font-size="7.5">9   BUTTON EYE — MIS-AIMED 22° ✕</text>
  <text x="664" y="669" font-size="7.5">10  BUTTON EYE — nominal</text>
  <text x="664" y="682" font-size="7.5">11  CENTRE SEAM (running stitch)</text>
  <text x="950" y="656" font-size="7.5">12  SIDE GUSSET SEAM</text>
  <text x="950" y="669" font-size="7.5">13  POM-POM TAIL</text>
  <text x="950" y="682" font-size="7.5">14  STUB LEG / POLY-FILL</text>
</g>
<g class="fade" stroke="#f3ecfb" stroke-width="1" opacity="0.9">
  <rect x="1086" y="120" width="150" height="56" stroke-dasharray="4 3" transform="rotate(-7 1161 148)"/>
</g>
<g class="fade" fill="#f3ecfb" stroke="none" text-anchor="middle">
  <text x="1161" y="142" font-size="11" letter-spacing="1" transform="rotate(-7 1161 148)">Q C   F L A G</text>
  <text x="1161" y="158" font-size="7" fill="#b694dd" transform="rotate(-7 1161 148)">RIGHT EYE OFF-AXIS</text>
</g>
<g class="fade" fill="#f3ecfb" stroke="none">
  <text x="664" y="724" font-size="9" letter-spacing="0.6">PLUSH SPEC</text>
</g>
<g class="fade" stroke="#b694dd" stroke-width="0.7" opacity="0.9">
  <rect x="664" y="730" width="176" height="30" stroke="#b694dd" stroke-width="0.8" fill="rgba(40,24,62,0.45)"/>
  <line x1="664" y1="742.5" x2="840" y2="742.5" stroke="#8a63b5" stroke-width="0.5" opacity="0.5"/>
</g>
<g class="fade" stroke="none">
  <text x="671" y="739" font-size="7" fill="#b694dd" letter-spacing="0.4">FILL</text>
  <text x="671" y="754" font-size="9" fill="#f3ecfb">poly-fibre</text>
</g>
<g class="fade" stroke="#b694dd" stroke-width="0.7" opacity="0.9">
  <rect x="850" y="730" width="176" height="30" stroke="#b694dd" stroke-width="0.8" fill="rgba(40,24,62,0.45)"/>
  <line x1="850" y1="742.5" x2="1026" y2="742.5" stroke="#8a63b5" stroke-width="0.5" opacity="0.5"/>
</g>
<g class="fade" stroke="none">
  <text x="857" y="739" font-size="7" fill="#b694dd" letter-spacing="0.4">HEIGHT</text>
  <text x="857" y="754" font-size="9" fill="#f3ecfb">24 cm</text>
</g>
<g class="fade" stroke="#b694dd" stroke-width="0.7" opacity="0.9">
  <rect x="1036" y="730" width="176" height="30" stroke="#b694dd" stroke-width="0.8" fill="rgba(40,24,62,0.45)"/>
  <line x1="1036" y1="742.5" x2="1212" y2="742.5" stroke="#8a63b5" stroke-width="0.5" opacity="0.5"/>
</g>
<g class="fade" stroke="none">
  <text x="1043" y="739" font-size="7" fill="#b694dd" letter-spacing="0.4">FABRIC</text>
  <text x="1043" y="754" font-size="9" fill="#f3ecfb">sherpa fleece</text>
</g>
<g class="fade" stroke="#b694dd" stroke-width="0.7" opacity="0.9">
  <rect x="664" y="770" width="176" height="30" stroke="#b694dd" stroke-width="0.8" fill="rgba(40,24,62,0.45)"/>
  <line x1="664" y1="782.5" x2="840" y2="782.5" stroke="#8a63b5" stroke-width="0.5" opacity="0.5"/>
</g>
<g class="fade" stroke="none">
  <text x="671" y="779" font-size="7" fill="#b694dd" letter-spacing="0.4">SEAMS</text>
  <text x="671" y="794" font-size="9" fill="#f3ecfb">7</text>
</g>
<g class="fade" stroke="#b694dd" stroke-width="0.7" opacity="0.9">
  <rect x="850" y="770" width="176" height="30" stroke="#b694dd" stroke-width="0.8" fill="rgba(40,24,62,0.45)"/>
  <line x1="850" y1="782.5" x2="1026" y2="782.5" stroke="#8a63b5" stroke-width="0.5" opacity="0.5"/>
</g>
<g class="fade" stroke="none">
  <text x="857" y="779" font-size="7" fill="#b694dd" letter-spacing="0.4">EYES</text>
  <text x="857" y="794" font-size="9" fill="#f3ecfb">2 (1 off-axis)</text>
</g>
<g class="fade" stroke="#b694dd" stroke-width="0.7" opacity="0.9">
  <rect x="1036" y="770" width="176" height="30" stroke="#b694dd" stroke-width="0.8" fill="rgba(40,24,62,0.45)"/>
  <line x1="1036" y1="782.5" x2="1212" y2="782.5" stroke="#8a63b5" stroke-width="0.5" opacity="0.5"/>
</g>
<g class="fade" stroke="none">
  <text x="1043" y="779" font-size="7" fill="#b694dd" letter-spacing="0.4">CARE</text>
  <text x="1043" y="794" font-size="9" fill="#f3ecfb">30°C wash</text>
</g>
<g class="fade" fill="#b694dd" stroke="none">
  <text x="46" y="470" font-size="11" letter-spacing="1.2" transform="rotate(-90 46 470)">OVIS ARIES · PLATE V</text>
  <text x="1234" y="470" font-size="11" letter-spacing="1.2" transform="rotate(-90 1234 470)">PLUSH · TYPE S</text>
</g>
</svg>