<svg viewBox="0 0 90 820" xmlns="http://www.w3.org/2000/svg">

  <!-- meridian dropping from the sun -->
  <line x1="45" y1="150" x2="45" y2="742"
        stroke="#e8c45c" stroke-width="1"
        stroke-dasharray="4 4" opacity="0.7"/>

  <!-- altitude ticks -->
  <g stroke="#e8c45c" stroke-width="0.8">
    <line x1="41" y1="280" x2="49" y2="280"/>
    <line x1="41" y1="420" x2="49" y2="420"/>
    <line x1="41" y1="560" x2="49" y2="560"/>
    <line x1="41" y1="690" x2="49" y2="690"/>
  </g>

  <!-- corona -->
  <circle cx="45" cy="100" r="34"
          fill="none" stroke="#e8c45c" stroke-width="0.9"
          stroke-dasharray="2 4" opacity="0.8"/>

  <!-- rays -->
  <g stroke="#f7eccb" stroke-width="1.4" stroke-linecap="round">
    <line x1="45" y1="70" x2="45" y2="54" transform="rotate(0 45 100)"/>
    <line x1="45" y1="70" x2="45" y2="58" transform="rotate(30 45 100)"/>
    <line x1="45" y1="70" x2="45" y2="54" transform="rotate(60 45 100)"/>
    <line x1="45" y1="70" x2="45" y2="58" transform="rotate(90 45 100)"/>
    <line x1="45" y1="70" x2="45" y2="54" transform="rotate(120 45 100)"/>
    <line x1="45" y1="70" x2="45" y2="58" transform="rotate(150 45 100)"/>
    <line x1="45" y1="70" x2="45" y2="54" transform="rotate(180 45 100)"/>
    <line x1="45" y1="70" x2="45" y2="58" transform="rotate(210 45 100)"/>
    <line x1="45" y1="70" x2="45" y2="54" transform="rotate(240 45 100)"/>
    <line x1="45" y1="70" x2="45" y2="58" transform="rotate(270 45 100)"/>
    <line x1="45" y1="70" x2="45" y2="54" transform="rotate(300 45 100)"/>
    <line x1="45" y1="70" x2="45" y2="58" transform="rotate(330 45 100)"/>
  </g>

  <!-- disc -->
  <circle cx="45" cy="100" r="24"
          fill="rgba(232,196,92,.16)" stroke="#f7eccb" stroke-width="1.6"/>

  <!-- sunspots -->
  <g fill="#e8c45c">
    <circle cx="38" cy="96" r="2"/>
    <circle cx="52" cy="106" r="1.6"/>
    <circle cx="46" cy="90" r="1.2"/>
  </g>

  <!-- heat shimmer down the meridian -->
  <g fill="#f7eccb">
    <circle cx="30" cy="330" r="1.3"/>
    <circle cx="60" cy="460" r="1.2"/>
    <circle cx="34" cy="600" r="1.3"/>
    <circle cx="58" cy="700" r="1.1"/>
  </g>

  <!-- horizon -->
  <line x1="10" y1="744" x2="80" y2="744"
        stroke="#f7eccb" stroke-width="1.2"
        stroke-dasharray="9 3 1.5 3"/>

  <!-- annotations -->
  <g fill="#e8c45c" font-family="monospace">
    <text x="84" y="430" font-size="8" transform="rotate(-90 84 430)">FIG. III — SOL</text>
    <text x="52" y="152" font-size="7">ALT 90°</text>
    <text x="10" y="730" font-size="7.5">R-03 · NOON</text>
  </g>
</svg>
