<svg viewBox="0 0 1280 860" xmlns="http://www.w3.org/2000/svg" fill="none" stroke-linecap="round" stroke-linejoin="round">
<g class="ink-blue">
  <line class="fade" x1="600" y1="24" x2="742" y2="846" stroke="#5d93d6" stroke-width="1" stroke-dasharray="2 4 10 4" opacity="0.85"/>
</g>
<g stroke="#eaf1f8" stroke-width="1.6">
  <line x1="607.85" y1="68.47" x2="749.85" y2="798.47"/>
  <line x1="592.15" y1="71.53" x2="734.15" y2="801.53"/>
</g>
<g stroke="#9db8db" stroke-width="0.8">
  <line x1="613.53" y1="97.67" x2="597.83" y2="100.73"/>
  <line x1="613.53" y1="97.67" x2="605.51" y2="140.24"/>
  <line x1="621.21" y1="137.18" x2="605.51" y2="140.24"/>
  <line x1="621.21" y1="137.18" x2="613.2" y2="179.74"/>
  <line x1="628.9" y1="176.68" x2="613.2" y2="179.74"/>
  <line x1="628.9" y1="176.68" x2="620.88" y2="219.25"/>
  <line x1="636.58" y1="216.19" x2="620.88" y2="219.25"/>
  <line x1="636.58" y1="216.19" x2="628.57" y2="258.75"/>
  <line x1="644.27" y1="255.69" x2="628.57" y2="258.75"/>
  <line x1="644.27" y1="255.69" x2="636.25" y2="298.26"/>
  <line x1="651.95" y1="295.2" x2="636.25" y2="298.26"/>
  <line x1="651.95" y1="295.2" x2="643.94" y2="337.77"/>
  <line x1="659.64" y1="334.71" x2="643.94" y2="337.77"/>
  <line x1="659.64" y1="334.71" x2="651.62" y2="377.27"/>
  <line x1="667.32" y1="374.21" x2="651.62" y2="377.27"/>
  <line x1="667.32" y1="374.21" x2="659.31" y2="416.78"/>
  <line x1="675.01" y1="413.72" x2="659.31" y2="416.78"/>
  <line x1="675.01" y1="413.72" x2="666.99" y2="456.28"/>
  <line x1="682.69" y1="453.22" x2="666.99" y2="456.28"/>
  <line x1="682.69" y1="453.22" x2="674.68" y2="495.79"/>
  <line x1="690.38" y1="492.73" x2="674.68" y2="495.79"/>
  <line x1="690.38" y1="492.73" x2="682.36" y2="535.29"/>
  <line x1="698.06" y1="532.23" x2="682.36" y2="535.29"/>
  <line x1="698.06" y1="532.23" x2="690.05" y2="574.8"/>
  <line x1="705.75" y1="571.74" x2="690.05" y2="574.8"/>
  <line x1="705.75" y1="571.74" x2="697.73" y2="614.31"/>
  <line x1="713.43" y1="611.25" x2="697.73" y2="614.31"/>
  <line x1="713.43" y1="611.25" x2="705.42" y2="653.81"/>
  <line x1="721.12" y1="650.75" x2="705.42" y2="653.81"/>
  <line x1="721.12" y1="650.75" x2="713.1" y2="693.32"/>
  <line x1="728.8" y1="690.26" x2="713.1" y2="693.32"/>
  <line x1="728.8" y1="690.26" x2="720.79" y2="732.82"/>
  <line x1="736.49" y1="729.76" x2="720.79" y2="732.82"/>
  <line x1="736.49" y1="729.76" x2="728.47" y2="772.33"/>
  <line x1="744.17" y1="769.27" x2="728.47" y2="772.33"/>
</g>
<g stroke="#eaf1f8" stroke-width="1.4">
  <circle cx="665.32" cy="405.8" r="15"/>
  <circle cx="665.32" cy="405.8" r="8" stroke="#9db8db" stroke-width="1"/>
</g>
<g stroke="#eaf1f8" stroke-width="1.6">
  <ellipse cx="656.8" cy="362" rx="262" ry="99" transform="rotate(27 656.8 362)" />
  <ellipse cx="656.8" cy="362" rx="236" ry="89" transform="rotate(27 656.8 362)" stroke="#cfe0f4" stroke-width="1.2"/>
</g>
<g stroke="#9db8db" stroke-width="0.8">
  <line x1="890.24" y1="480.95" x2="867.08" y2="469.14"/>
  <line x1="875.8" y1="496.69" x2="855.59" y2="480.32"/>
  <line x1="851.78" y1="506.54" x2="835.42" y2="486.33"/>
  <line x1="819.24" y1="510.08" x2="807.44" y2="486.91"/>
  <line x1="779.6" y1="507.14" x2="772.87" y2="482.03"/>
  <line x1="734.6" y1="497.86" x2="733.24" y2="471.9"/>
  <line x1="686.19" y1="482.65" x2="690.26" y2="456.97"/>
  <line x1="636.5" y1="462.16" x2="645.82" y2="437.89"/>
  <line x1="587.7" y1="437.29" x2="601.86" y2="415.49"/>
  <line x1="541.92" y1="409.14" x2="560.3" y2="390.75"/>
  <line x1="501.15" y1="378.92" x2="522.96" y2="364.76"/>
  <line x1="467.19" y1="347.96" x2="491.47" y2="338.64"/>
  <line x1="441.52" y1="317.62" x2="467.2" y2="313.55"/>
  <line x1="425.26" y1="289.22" x2="451.22" y2="290.58"/>
  <line x1="419.11" y1="263.99" x2="444.23" y2="270.72"/>
  <line x1="423.36" y1="243.05" x2="446.52" y2="254.86"/>
  <line x1="437.8" y1="227.31" x2="458.01" y2="243.68"/>
  <line x1="461.82" y1="217.46" x2="478.18" y2="237.67"/>
  <line x1="494.36" y1="213.92" x2="506.16" y2="237.09"/>
  <line x1="534" y1="216.86" x2="540.73" y2="241.97"/>
  <line x1="579" y1="226.14" x2="580.36" y2="252.1"/>
  <line x1="627.41" y1="241.35" x2="623.34" y2="267.03"/>
  <line x1="677.1" y1="261.84" x2="667.78" y2="286.11"/>
  <line x1="725.9" y1="286.71" x2="711.74" y2="308.51"/>
  <line x1="771.68" y1="314.86" x2="753.3" y2="333.25"/>
  <line x1="812.45" y1="345.08" x2="790.64" y2="359.24"/>
  <line x1="846.41" y1="376.04" x2="822.13" y2="385.36"/>
  <line x1="872.08" y1="406.38" x2="846.4" y2="410.45"/>
  <line x1="888.34" y1="434.78" x2="862.38" y2="433.42"/>
  <line x1="894.49" y1="460.01" x2="869.37" y2="453.28"/>
</g>
<g stroke="#7fa6d6" stroke-width="0.7" opacity="0.85">
  <line x1="656.8" y1="362" x2="857.75" y2="479.06"/>
  <line x1="656.8" y1="362" x2="696.43" y2="459.34"/>
  <line x1="656.8" y1="362" x2="495.49" y2="342.28"/>
  <line x1="656.8" y1="362" x2="455.85" y2="244.94"/>
  <line x1="656.8" y1="362" x2="617.17" y2="264.66"/>
  <line x1="656.8" y1="362" x2="818.11" y2="381.72"/>
</g>
<g class="fade" fill="#eaf1f8" stroke="none">
  <circle cx="873.65" cy="482.13" r="1.5"/>
  <circle cx="847.69" cy="495.56" r="1.5"/>
  <circle cx="806.25" cy="498.18" r="1.5"/>
  <circle cx="752.71" cy="489.76" r="1.5"/>
  <circle cx="691.4" cy="470.99" r="1.5"/>
  <circle cx="627.29" cy="443.39" r="1.5"/>
  <circle cx="565.56" cy="409.2" r="1.5"/>
  <circle cx="511.23" cy="371.18" r="1.5"/>
  <circle cx="468.69" cy="332.42" r="1.5"/>
  <circle cx="441.39" cy="296.06" r="1.5"/>
  <circle cx="431.54" cy="265.04" r="1.5"/>
  <circle cx="439.95" cy="241.87" r="1.5"/>
  <circle cx="465.91" cy="228.44" r="1.5"/>
  <circle cx="507.35" cy="225.82" r="1.5"/>
  <circle cx="560.89" cy="234.24" r="1.5"/>
  <circle cx="622.2" cy="253.01" r="1.5"/>
  <circle cx="686.31" cy="280.61" r="1.5"/>
  <circle cx="748.04" cy="314.8" r="1.5"/>
  <circle cx="802.37" cy="352.82" r="1.5"/>
  <circle cx="844.91" cy="391.58" r="1.5"/>
  <circle cx="872.21" cy="427.94" r="1.5"/>
  <circle cx="882.06" cy="458.96" r="1.5"/>
</g>
<g stroke="#eaf1f8" stroke-width="1.8">
  <ellipse cx="673.84" cy="449.6" rx="286" ry="109" transform="rotate(-19 673.84 449.6)" />
  <ellipse cx="673.84" cy="449.6" rx="258" ry="98" transform="rotate(-19 673.84 449.6)" stroke="#cfe0f4" stroke-width="1.3"/>
</g>
<g stroke="#9db8db" stroke-width="0.9">
  <line x1="944.26" y1="356.49" x2="917.78" y2="365.6"/>
  <line x1="946.17" y1="377.01" x2="918.48" y2="381.11"/>
  <line x1="938.82" y1="400.01" x2="910.84" y2="398.94"/>
  <line x1="922.44" y1="424.69" x2="895.13" y2="418.5"/>
  <line x1="897.59" y1="450.22" x2="871.88" y2="439.12"/>
  <line x1="865.12" y1="475.73" x2="841.89" y2="460.1"/>
  <line x1="826.14" y1="500.35" x2="806.18" y2="480.72"/>
  <line x1="781.98" y1="523.25" x2="765.96" y2="500.28"/>
  <line x1="734.13" y1="543.63" x2="722.61" y2="518.11"/>
  <line x1="684.22" y1="560.81" x2="677.59" y2="533.61"/>
  <line x1="633.97" y1="574.21" x2="632.45" y2="546.25"/>
  <line x1="585.07" y1="583.36" x2="588.71" y2="555.6"/>
  <line x1="539.2" y1="587.96" x2="547.88" y2="561.34"/>
  <line x1="497.91" y1="587.84" x2="511.33" y2="563.27"/>
  <line x1="462.61" y1="583.02" x2="480.32" y2="561.33"/>
  <line x1="434.5" y1="573.65" x2="455.9" y2="555.59"/>
  <line x1="414.55" y1="560.06" x2="438.9" y2="546.24"/>
  <line x1="403.42" y1="542.71" x2="429.9" y2="533.6"/>
  <line x1="401.51" y1="522.19" x2="429.2" y2="518.09"/>
  <line x1="408.86" y1="499.19" x2="436.84" y2="500.26"/>
  <line x1="425.24" y1="474.51" x2="452.55" y2="480.7"/>
  <line x1="450.09" y1="448.98" x2="475.8" y2="460.08"/>
  <line x1="482.56" y1="423.47" x2="505.79" y2="439.1"/>
  <line x1="521.54" y1="398.85" x2="541.5" y2="418.48"/>
  <line x1="565.7" y1="375.95" x2="581.72" y2="398.92"/>
  <line x1="613.55" y1="355.57" x2="625.07" y2="381.09"/>
  <line x1="663.46" y1="338.39" x2="670.09" y2="365.59"/>
  <line x1="713.71" y1="324.99" x2="715.23" y2="352.95"/>
  <line x1="762.61" y1="315.84" x2="758.97" y2="343.6"/>
  <line x1="808.48" y1="311.24" x2="799.8" y2="337.86"/>
  <line x1="849.77" y1="311.36" x2="836.35" y2="335.93"/>
  <line x1="885.07" y1="316.18" x2="867.36" y2="337.87"/>
  <line x1="913.18" y1="325.55" x2="891.78" y2="343.61"/>
  <line x1="933.13" y1="339.14" x2="908.78" y2="352.96"/>
</g>
<g stroke="#7fa6d6" stroke-width="0.8" opacity="0.9">
  <line x1="673.84" y1="449.6" x2="918.56" y2="380.67"/>
  <line x1="673.84" y1="449.6" x2="780.85" y2="493.41"/>
  <line x1="673.84" y1="449.6" x2="536.13" y2="562.34"/>
  <line x1="673.84" y1="449.6" x2="429.12" y2="518.53"/>
  <line x1="673.84" y1="449.6" x2="566.83" y2="405.79"/>
  <line x1="673.84" y1="449.6" x2="811.55" y2="336.86"/>
</g>
<g class="fade" fill="#eaf1f8" stroke="none">
  <circle cx="932.82" cy="370.46" r="1.5"/>
  <circle cx="926.52" cy="396.26" r="1.5"/>
  <circle cx="905.53" cy="425.16" r="1.5"/>
  <circle cx="871.07" cy="455.49" r="1.5"/>
  <circle cx="825.16" cy="485.47" r="1.5"/>
  <circle cx="770.44" cy="513.37" r="1.5"/>
  <circle cx="710.12" cy="537.56" r="1.5"/>
  <circle cx="647.68" cy="556.64" r="1.5"/>
  <circle cx="586.77" cy="569.5" r="1.5"/>
  <circle cx="530.92" cy="575.39" r="1.5"/>
  <circle cx="483.37" cy="573.97" r="1.5"/>
  <circle cx="446.89" cy="565.32" r="1.5"/>
  <circle cx="423.6" cy="549.95" r="1.5"/>
  <circle cx="414.86" cy="528.74" r="1.5"/>
  <circle cx="421.16" cy="502.94" r="1.5"/>
  <circle cx="442.15" cy="474.04" r="1.5"/>
  <circle cx="476.61" cy="443.71" r="1.5"/>
  <circle cx="522.52" cy="413.73" r="1.5"/>
  <circle cx="577.24" cy="385.83" r="1.5"/>
  <circle cx="637.56" cy="361.64" r="1.5"/>
  <circle cx="700" cy="342.56" r="1.5"/>
  <circle cx="760.91" cy="329.7" r="1.5"/>
  <circle cx="816.76" cy="323.81" r="1.5"/>
  <circle cx="864.31" cy="325.23" r="1.5"/>
  <circle cx="900.79" cy="333.88" r="1.5"/>
  <circle cx="924.08" cy="349.25" r="1.5"/>
</g>
<g stroke="#eaf1f8" stroke-width="1.4">
  <line x1="613.64" y1="82.5" x2="592.04" y2="86.7"/>
  <line x1="618.61" y1="108.05" x2="597.01" y2="112.25"/>
</g>
<g stroke="#9db8db" stroke-width="1">
  <line x1="600" y1="70" x2="590.07" y2="18.96"/>
  <line x1="602.4" y1="45.69" x2="588.66" y2="48.37"/>
  <line x1="599.13" y1="28.85" x2="585.39" y2="31.53"/>
  <circle cx="590.07" cy="18.96" r="3.5" stroke="#eaf1f8"/>
</g>
<g stroke="#eaf1f8" stroke-width="1.4">
  <circle cx="739.87" cy="789.05" r="13"/>
  <circle cx="739.87" cy="789.05" r="6" stroke="#9db8db" stroke-width="1"/>
</g>
<line class="fade" x1="739.87" y1="789.05" x2="755.37" y2="868.71" stroke="#5d93d6" stroke-width="0.8" stroke-dasharray="2 4" opacity="0.7"/>
<g class="fade ink-blue" stroke="#5d93d6" stroke-width="0.9" opacity="0.7">
  <line x1="403.42" y1="542.71" x2="944.26" y2="356.49" stroke-dasharray="3 4" opacity="0.55"/>
  <path d="M414.42 539.71 L403.42 542.71 L412.42 549.71"/>
  <path d="M933.26 359.49 L944.26 356.49 L935.26 349.49"/>
  <line x1="403.42" y1="542.71" x2="337.42" y2="568.71"/>
</g>
<g class="fade" fill="#5d93d6" stroke="none" font-family="monospace">
  <text x="263.42" y="572.71" font-size="12">ø 480 m</text>
  <text x="46" y="588" font-size="12" letter-spacing="0.5" transform="rotate(-90 46 588)">FIG. II · GYROSCOPIC HABITAT</text>
  <text x="1234" y="566" font-size="12" letter-spacing="0.5" transform="rotate(-90 1234 566)">UNIT R-2001</text>
  <text x="710" y="262" font-size="9">RING B</text>
  <text x="430" y="598" font-size="9">RING A</text>
  <text x="687.32" y="395.8" font-size="8.5">HUB</text>
  <text x="759.87" y="793.05" font-size="8">CW</text>
</g>
</svg>
