<svg viewBox="0 0 1280 860" xmlns="http://www.w3.org/2000/svg" fill="none" stroke-linecap="round" stroke-linejoin="round" font-family="monospace">
<g class="fade" stroke="#5d93d6" stroke-width="0.9" opacity="0.7">
  <rect x="26" y="26" width="1228" height="808"/>
  <rect x="34" y="34" width="1212" height="792" stroke="#9db8db" stroke-width="0.6"/>
  <line x1="25" y1="34" x2="43" y2="34" stroke-width="0.7"/>
  <line x1="34" y1="25" x2="34" y2="43" stroke-width="0.7"/>
  <line x1="1237" y1="34" x2="1255" y2="34" stroke-width="0.7"/>
  <line x1="1246" y1="25" x2="1246" y2="43" stroke-width="0.7"/>
  <line x1="25" y1="826" x2="43" y2="826" stroke-width="0.7"/>
  <line x1="34" y1="817" x2="34" y2="835" stroke-width="0.7"/>
  <line x1="1237" y1="826" x2="1255" y2="826" stroke-width="0.7"/>
  <line x1="1246" y1="817" x2="1246" y2="835" stroke-width="0.7"/>
  <line x1="185.5" y1="34" x2="185.5" y2="42" stroke-width="0.6"/>
  <line x1="185.5" y1="818" x2="185.5" y2="826" stroke-width="0.6"/>
  <line x1="337" y1="34" x2="337" y2="42" stroke-width="0.6"/>
  <line x1="337" y1="818" x2="337" y2="826" stroke-width="0.6"/>
  <line x1="488.5" y1="34" x2="488.5" y2="42" stroke-width="0.6"/>
  <line x1="488.5" y1="818" x2="488.5" y2="826" stroke-width="0.6"/>
  <line x1="640" y1="34" x2="640" y2="42" stroke-width="0.6"/>
  <line x1="640" y1="818" x2="640" y2="826" stroke-width="0.6"/>
  <line x1="791.5" y1="34" x2="791.5" y2="42" stroke-width="0.6"/>
  <line x1="791.5" y1="818" x2="791.5" y2="826" stroke-width="0.6"/>
  <line x1="943" y1="34" x2="943" y2="42" stroke-width="0.6"/>
  <line x1="943" y1="818" x2="943" y2="826" stroke-width="0.6"/>
  <line x1="1094.5" y1="34" x2="1094.5" y2="42" stroke-width="0.6"/>
  <line x1="1094.5" y1="818" x2="1094.5" y2="826" stroke-width="0.6"/>
  <line x1="34" y1="192.4" x2="42" y2="192.4" stroke-width="0.6"/>
  <line x1="1238" y1="192.4" x2="1246" y2="192.4" stroke-width="0.6"/>
  <line x1="34" y1="350.8" x2="42" y2="350.8" stroke-width="0.6"/>
  <line x1="1238" y1="350.8" x2="1246" y2="350.8" stroke-width="0.6"/>
  <line x1="34" y1="509.2" x2="42" y2="509.2" stroke-width="0.6"/>
  <line x1="1238" y1="509.2" x2="1246" y2="509.2" stroke-width="0.6"/>
  <line x1="34" y1="667.6" x2="42" y2="667.6" stroke-width="0.6"/>
  <line x1="1238" y1="667.6" x2="1246" y2="667.6" stroke-width="0.6"/>
</g>
<g class="fade" fill="#5d93d6" stroke="none" font-size="8" opacity="0.6" text-anchor="middle">
  <text x="185.5" y="31" font-size="8" >1</text>
  <text x="337" y="31" font-size="8" >2</text>
  <text x="488.5" y="31" font-size="8" >3</text>
  <text x="640" y="31" font-size="8" >4</text>
  <text x="791.5" y="31" font-size="8" >5</text>
  <text x="943" y="31" font-size="8" >6</text>
  <text x="1094.5" y="31" font-size="8" >7</text>
  <text x="30" y="195.4" font-size="8" >A</text>
  <text x="30" y="353.8" font-size="8" >B</text>
  <text x="30" y="512.2" font-size="8" >C</text>
  <text x="30" y="670.6" font-size="8" >D</text>
</g>
<g class="fade ink-blue" stroke="#5d93d6" stroke-width="1" opacity="0.6">
  <line x1="597.16" y1="55.4" x2="744.84" y2="814.6" stroke-dasharray="2 4 10 4"/>
  <line x1="910.72" y1="358.06" x2="419.92" y2="453.54" stroke-dasharray="2 4 10 4" opacity="0.7"/>
  <line x1="665.32" y1="405.8" x2="915.32" y2="405.8" stroke="#9db8db" stroke-width="0.4" stroke-dasharray="1 6" opacity="0.5"/>
  <line x1="665.32" y1="405.8" x2="881.83" y2="530.8" stroke="#9db8db" stroke-width="0.4" stroke-dasharray="1 6" opacity="0.5"/>
  <line x1="665.32" y1="405.8" x2="790.32" y2="622.31" stroke="#9db8db" stroke-width="0.4" stroke-dasharray="1 6" opacity="0.5"/>
  <line x1="665.32" y1="405.8" x2="665.32" y2="655.8" stroke="#9db8db" stroke-width="0.4" stroke-dasharray="1 6" opacity="0.5"/>
  <line x1="665.32" y1="405.8" x2="540.32" y2="622.31" stroke="#9db8db" stroke-width="0.4" stroke-dasharray="1 6" opacity="0.5"/>
  <line x1="665.32" y1="405.8" x2="448.81" y2="530.8" stroke="#9db8db" stroke-width="0.4" stroke-dasharray="1 6" opacity="0.5"/>
  <line x1="665.32" y1="405.8" x2="415.32" y2="405.8" stroke="#9db8db" stroke-width="0.4" stroke-dasharray="1 6" opacity="0.5"/>
  <line x1="665.32" y1="405.8" x2="448.81" y2="280.8" stroke="#9db8db" stroke-width="0.4" stroke-dasharray="1 6" opacity="0.5"/>
  <line x1="665.32" y1="405.8" x2="540.32" y2="189.29" stroke="#9db8db" stroke-width="0.4" stroke-dasharray="1 6" opacity="0.5"/>
  <line x1="665.32" y1="405.8" x2="665.32" y2="155.8" stroke="#9db8db" stroke-width="0.4" stroke-dasharray="1 6" opacity="0.5"/>
  <line x1="665.32" y1="405.8" x2="790.32" y2="189.29" stroke="#9db8db" stroke-width="0.4" stroke-dasharray="1 6" opacity="0.5"/>
  <line x1="665.32" y1="405.8" x2="881.83" y2="280.8" stroke="#9db8db" stroke-width="0.4" stroke-dasharray="1 6" opacity="0.5"/>
</g>
<g stroke="#eaf1f8" stroke-width="1.6">
  <line x1="607.85" y1="68.47" x2="749.85" y2="798.47" />
  <line x1="592.15" y1="71.53" x2="734.15" y2="801.53" />
</g>
<g stroke="#9db8db" stroke-width="0.8">
  <line x1="613.53" y1="97.67" x2="597.83" y2="100.73" />
  <line x1="613.53" y1="97.67" x2="604.71" y2="136.08" />
  <line x1="597.83" y1="100.73" x2="620.41" y2="133.02" />
  <line x1="620.41" y1="133.02" x2="604.71" y2="136.08" />
  <line x1="620.41" y1="133.02" x2="611.58" y2="171.42" />
  <line x1="604.71" y1="136.08" x2="627.28" y2="168.36" />
  <line x1="627.28" y1="168.36" x2="611.58" y2="171.42" />
  <line x1="627.28" y1="168.36" x2="618.46" y2="206.77" />
  <line x1="611.58" y1="171.42" x2="634.16" y2="203.71" />
  <line x1="634.16" y1="203.71" x2="618.46" y2="206.77" />
  <line x1="634.16" y1="203.71" x2="625.33" y2="242.12" />
  <line x1="618.46" y1="206.77" x2="641.03" y2="239.06" />
  <line x1="641.03" y1="239.06" x2="625.33" y2="242.12" />
  <line x1="641.03" y1="239.06" x2="632.21" y2="277.47" />
  <line x1="625.33" y1="242.12" x2="647.91" y2="274.41" />
  <line x1="647.91" y1="274.41" x2="632.21" y2="277.47" />
  <line x1="647.91" y1="274.41" x2="639.08" y2="312.81" />
  <line x1="632.21" y1="277.47" x2="654.78" y2="309.75" />
  <line x1="654.78" y1="309.75" x2="639.08" y2="312.81" />
  <line x1="654.78" y1="309.75" x2="645.96" y2="348.16" />
  <line x1="639.08" y1="312.81" x2="661.66" y2="345.1" />
  <line x1="661.66" y1="345.1" x2="645.96" y2="348.16" />
  <line x1="661.66" y1="345.1" x2="652.84" y2="383.51" />
  <line x1="645.96" y1="348.16" x2="668.54" y2="380.45" />
  <line x1="668.54" y1="380.45" x2="652.84" y2="383.51" />
  <line x1="668.54" y1="380.45" x2="659.71" y2="418.86" />
  <line x1="652.84" y1="383.51" x2="675.41" y2="415.8" />
  <line x1="675.41" y1="415.8" x2="659.71" y2="418.86" />
  <line x1="675.41" y1="415.8" x2="666.59" y2="454.2" />
  <line x1="659.71" y1="418.86" x2="682.29" y2="451.14" />
  <line x1="682.29" y1="451.14" x2="666.59" y2="454.2" />
  <line x1="682.29" y1="451.14" x2="673.46" y2="489.55" />
  <line x1="666.59" y1="454.2" x2="689.16" y2="486.49" />
  <line x1="689.16" y1="486.49" x2="673.46" y2="489.55" />
  <line x1="689.16" y1="486.49" x2="680.34" y2="524.9" />
  <line x1="673.46" y1="489.55" x2="696.04" y2="521.84" />
  <line x1="696.04" y1="521.84" x2="680.34" y2="524.9" />
  <line x1="696.04" y1="521.84" x2="687.22" y2="560.25" />
  <line x1="680.34" y1="524.9" x2="702.92" y2="557.19" />
  <line x1="702.92" y1="557.19" x2="687.22" y2="560.25" />
  <line x1="702.92" y1="557.19" x2="694.09" y2="595.59" />
  <line x1="687.22" y1="560.25" x2="709.79" y2="592.53" />
  <line x1="709.79" y1="592.53" x2="694.09" y2="595.59" />
  <line x1="709.79" y1="592.53" x2="700.97" y2="630.94" />
  <line x1="694.09" y1="595.59" x2="716.67" y2="627.88" />
  <line x1="716.67" y1="627.88" x2="700.97" y2="630.94" />
  <line x1="716.67" y1="627.88" x2="707.84" y2="666.29" />
  <line x1="700.97" y1="630.94" x2="723.54" y2="663.23" />
  <line x1="723.54" y1="663.23" x2="707.84" y2="666.29" />
  <line x1="723.54" y1="663.23" x2="714.72" y2="701.64" />
  <line x1="707.84" y1="666.29" x2="730.42" y2="698.58" />
  <line x1="730.42" y1="698.58" x2="714.72" y2="701.64" />
  <line x1="730.42" y1="698.58" x2="721.59" y2="736.98" />
  <line x1="714.72" y1="701.64" x2="737.29" y2="733.92" />
  <line x1="737.29" y1="733.92" x2="721.59" y2="736.98" />
  <line x1="737.29" y1="733.92" x2="728.47" y2="772.33" />
  <line x1="721.59" y1="736.98" x2="744.17" y2="769.27" />
  <line x1="744.17" y1="769.27" x2="728.47" y2="772.33" />
</g>
<g stroke="#7fa6d6" stroke-width="0.8">
  <line x1="600.12" y1="123.01" x2="593.25" y2="124.35" />
  <line x1="620.71" y1="228.86" x2="613.84" y2="230.2" />
  <line x1="641.3" y1="334.71" x2="634.43" y2="336.05" />
  <line x1="661.89" y1="440.56" x2="655.02" y2="441.9" />
  <line x1="682.48" y1="546.41" x2="675.61" y2="547.75" />
  <line x1="703.07" y1="652.26" x2="696.2" y2="653.6" />
  <line x1="723.66" y1="758.11" x2="716.79" y2="759.45" />
</g>
<g class="fade" fill="#9db8db" stroke="none" font-size="6.5">
  <text x="581.38" y="127.68" font-size="6.5" >S0</text>
  <text x="601.97" y="233.53" font-size="6.5" >S1</text>
  <text x="622.56" y="339.38" font-size="6.5" >S2</text>
  <text x="643.15" y="445.23" font-size="6.5" >S3</text>
  <text x="663.74" y="551.08" font-size="6.5" >S4</text>
  <text x="684.33" y="656.93" font-size="6.5" >S5</text>
  <text x="704.92" y="762.78" font-size="6.5" >S6</text>
</g>
<g stroke="#9db8db" stroke-width="1">
  <line x1="614.2" y1="143" x2="639.72" y2="138.04" />
  <line x1="614.2" y1="143" x2="588.68" y2="147.96" />
  <circle cx="639.72" cy="138.04" r="3"/>
  <circle cx="588.68" cy="147.96" r="3"/>
  <line x1="619.17" y1="168.55" x2="644.69" y2="163.59" />
  <line x1="619.17" y1="168.55" x2="593.65" y2="173.51" />
  <circle cx="644.69" cy="163.59" r="3"/>
  <circle cx="593.65" cy="173.51" r="3"/>
</g>
<g stroke="#7fa6d6" stroke-width="0.7">
  <line x1="698.88" y1="656.86" x2="650.78" y2="666.22" />
  <line x1="715.92" y1="744.46" x2="667.82" y2="753.82" />
  <line x1="698.88" y1="656.86" x2="715.92" y2="744.46" />
  <line x1="650.78" y1="666.22" x2="667.82" y2="753.82" />
  <line x1="702.29" y1="674.38" x2="654.19" y2="683.74" />
  <line x1="705.7" y1="691.9" x2="657.6" y2="701.26" />
  <line x1="709.1" y1="709.42" x2="661" y2="718.78" />
  <line x1="712.51" y1="726.94" x2="664.41" y2="736.3" />
  <line x1="707.4" y1="700.66" x2="659.3" y2="710.02" stroke="#9db8db"/>
  <line x1="728.32" y1="651.14" x2="776.42" y2="641.78" />
  <line x1="745.36" y1="738.74" x2="793.46" y2="729.38" />
  <line x1="728.32" y1="651.14" x2="745.36" y2="738.74" />
  <line x1="776.42" y1="641.78" x2="793.46" y2="729.38" />
  <line x1="731.73" y1="668.66" x2="779.83" y2="659.3" />
  <line x1="735.14" y1="686.18" x2="783.24" y2="676.82" />
  <line x1="738.54" y1="703.7" x2="786.64" y2="694.34" />
  <line x1="741.95" y1="721.22" x2="790.05" y2="711.86" />
  <line x1="736.84" y1="694.94" x2="784.94" y2="685.58" stroke="#9db8db"/>
</g>
<g stroke="#eaf1f8" stroke-width="1.4">
  <circle cx="665.32" cy="405.8" r="16"/>
  <circle cx="665.32" cy="405.8" r="9" stroke="#9db8db" stroke-width="1"/>
  <circle cx="665.32" cy="405.8" r="3.5" stroke="#9db8db" stroke-width="0.8"/>
</g>
<g stroke="#eaf1f8" stroke-width="1.6">
  <ellipse cx="656.8" cy="362" rx="262" ry="99" transform="rotate(27 656.8 362)" />
  <ellipse cx="656.8" cy="362" rx="253" ry="95.6" transform="rotate(27 656.8 362)" stroke="#cfe0f4" stroke-width="0.9"/>
  <ellipse cx="656.8" cy="362" rx="236" ry="89" transform="rotate(27 656.8 362)" stroke="#cfe0f4" stroke-width="1.2"/>
</g>
<g stroke="#9db8db" stroke-width="0.8">
  <line x1="890.24" y1="480.95" x2="867.08" y2="469.14" />
  <line x1="880.34" y1="493.28" x2="869.82" y2="485.64" />
  <line x1="864.93" y1="502.38" x2="855.74" y2="493.19" />
  <line x1="844.4" y1="508.03" x2="836.75" y2="497.51" />
  <line x1="819.24" y1="510.08" x2="813.34" y2="498.49" />
  <line x1="790.09" y1="508.48" x2="782.05" y2="483.75" />
  <line x1="757.65" y1="503.28" x2="755.62" y2="490.44" />
  <line x1="722.73" y1="494.6" x2="722.73" y2="481.6" />
  <line x1="686.19" y1="482.65" x2="688.23" y2="469.81" />
  <line x1="648.93" y1="467.73" x2="652.94" y2="455.37" />
  <line x1="611.85" y1="450.21" x2="623.66" y2="427.04" />
  <line x1="575.89" y1="430.52" x2="583.53" y2="420" />
  <line x1="541.92" y1="409.14" x2="551.11" y2="399.94" />
  <line x1="510.77" y1="386.6" x2="521.29" y2="378.95" />
  <line x1="483.22" y1="363.45" x2="494.81" y2="357.55" />
  <line x1="459.95" y1="340.27" x2="484.68" y2="332.23" />
  <line x1="441.52" y1="317.62" x2="454.36" y2="315.59" />
  <line x1="428.4" y1="296.07" x2="441.4" y2="296.07" />
  <line x1="420.89" y1="276.13" x2="433.73" y2="278.17" />
  <line x1="419.2" y1="258.32" x2="431.56" y2="262.34" />
  <line x1="423.36" y1="243.05" x2="446.52" y2="254.86" />
  <line x1="433.26" y1="230.72" x2="443.78" y2="238.36" />
  <line x1="448.67" y1="221.62" x2="457.86" y2="230.81" />
  <line x1="469.2" y1="215.97" x2="476.85" y2="226.49" />
  <line x1="494.36" y1="213.92" x2="500.26" y2="225.51" />
  <line x1="523.51" y1="215.52" x2="531.55" y2="240.25" />
  <line x1="555.95" y1="220.72" x2="557.98" y2="233.56" />
  <line x1="590.87" y1="229.4" x2="590.87" y2="242.4" />
  <line x1="627.41" y1="241.35" x2="625.37" y2="254.19" />
  <line x1="664.67" y1="256.27" x2="660.66" y2="268.63" />
  <line x1="701.75" y1="273.79" x2="689.94" y2="296.96" />
  <line x1="737.71" y1="293.48" x2="730.07" y2="304" />
  <line x1="771.68" y1="314.86" x2="762.49" y2="324.06" />
  <line x1="802.83" y1="337.4" x2="792.31" y2="345.05" />
  <line x1="830.38" y1="360.55" x2="818.79" y2="366.45" />
  <line x1="853.65" y1="383.73" x2="828.92" y2="391.77" />
  <line x1="872.08" y1="406.38" x2="859.24" y2="408.41" />
  <line x1="885.2" y1="427.93" x2="872.2" y2="427.93" />
  <line x1="892.71" y1="447.87" x2="879.87" y2="445.83" />
  <line x1="894.4" y1="465.68" x2="882.04" y2="461.66" />
</g>
<g stroke="#7fa6d6" stroke-width="0.7" opacity="0.85">
  <line x1="656.8" y1="362" x2="856.45" y2="481.61" />
  <line x1="656.8" y1="362" x2="791" y2="495" />
  <line x1="656.8" y1="362" x2="689.59" y2="472.76" />
  <line x1="656.8" y1="362" x2="579.4" y2="420.84" />
  <line x1="656.8" y1="362" x2="489.95" y2="353.15" />
  <line x1="656.8" y1="362" x2="445.2" y2="287.84" />
  <line x1="656.8" y1="362" x2="457.15" y2="242.39" />
  <line x1="656.8" y1="362" x2="522.6" y2="229" />
  <line x1="656.8" y1="362" x2="624.01" y2="251.24" />
  <line x1="656.8" y1="362" x2="734.2" y2="303.16" />
  <line x1="656.8" y1="362" x2="823.65" y2="370.85" />
  <line x1="656.8" y1="362" x2="868.4" y2="436.16" />
</g>
<g class="fade" fill="#eaf1f8" stroke="none">
  <circle cx="873.29" cy="482.84" r="1.4"/>
  <circle cx="846.32" cy="498.24" r="1.4"/>
  <circle cx="803.99" cy="502.61" r="1.4"/>
  <circle cx="749.74" cy="495.59" r="1.4"/>
  <circle cx="687.96" cy="477.74" r="1.4"/>
  <circle cx="623.66" cy="450.51" r="1.4"/>
  <circle cx="562.04" cy="416.12" r="1.4"/>
  <circle cx="508.09" cy="377.34" r="1.4"/>
  <circle cx="466.2" cy="337.32" r="1.4"/>
  <circle cx="439.74" cy="299.3" r="1.4"/>
  <circle cx="430.87" cy="266.35" r="1.4"/>
  <circle cx="440.31" cy="241.16" r="1.4"/>
  <circle cx="467.28" cy="225.76" r="1.4"/>
  <circle cx="509.61" cy="221.39" r="1.4"/>
  <circle cx="563.86" cy="228.41" r="1.4"/>
  <circle cx="625.64" cy="246.26" r="1.4"/>
  <circle cx="689.94" cy="273.49" r="1.4"/>
  <circle cx="751.56" cy="307.88" r="1.4"/>
  <circle cx="805.51" cy="346.66" r="1.4"/>
  <circle cx="847.4" cy="386.68" r="1.4"/>
  <circle cx="873.86" cy="424.7" r="1.4"/>
  <circle cx="882.73" cy="457.65" r="1.4"/>
</g>
<g stroke="#eaf1f8" stroke-width="1.8">
  <ellipse cx="673.84" cy="449.6" rx="286" ry="109" transform="rotate(-19 673.84 449.6)" />
  <ellipse cx="673.84" cy="449.6" rx="276" ry="105.2" transform="rotate(-19 673.84 449.6)" stroke="#cfe0f4" stroke-width="1"/>
  <ellipse cx="673.84" cy="449.6" rx="258" ry="98" transform="rotate(-19 673.84 449.6)" stroke="#cfe0f4" stroke-width="1.3"/>
</g>
<g stroke="#9db8db" stroke-width="0.9">
  <line x1="944.26" y1="356.49" x2="917.78" y2="365.6" />
  <line x1="946.56" y1="372.1" x2="932.8" y2="374.73" />
  <line x1="943.3" y1="389.3" x2="929.32" y2="389.94" />
  <line x1="934.56" y1="407.72" x2="920.63" y2="406.36" />
  <line x1="920.52" y1="426.99" x2="906.92" y2="423.67" />
  <line x1="901.45" y1="446.72" x2="875.47" y2="436.27" />
  <line x1="877.75" y1="466.51" x2="865.63" y2="459.49" />
  <line x1="849.89" y1="485.96" x2="838.9" y2="477.29" />
  <line x1="818.46" y1="504.67" x2="808.81" y2="494.52" />
  <line x1="784.08" y1="522.25" x2="775.97" y2="510.84" />
  <line x1="747.45" y1="538.36" x2="734.66" y2="513.45" />
  <line x1="709.33" y1="552.66" x2="704.77" y2="539.42" />
  <line x1="670.48" y1="564.86" x2="667.85" y2="551.11" />
  <line x1="631.7" y1="574.72" x2="631.06" y2="560.73" />
  <line x1="593.78" y1="582.03" x2="595.14" y2="568.09" />
  <line x1="557.49" y1="586.64" x2="564.14" y2="559.44" />
  <line x1="523.57" y1="588.46" x2="528.8" y2="575.48" />
  <line x1="492.71" y1="587.46" x2="499.73" y2="575.35" />
  <line x1="465.54" y1="583.65" x2="474.21" y2="572.66" />
  <line x1="442.6" y1="577.11" x2="452.75" y2="567.47" />
  <line x1="424.37" y1="567.98" x2="447.21" y2="551.77" />
  <line x1="411.22" y1="556.43" x2="423.68" y2="550.04" />
  <line x1="403.42" y1="542.71" x2="416.66" y2="538.15" />
  <line x1="401.12" y1="527.1" x2="414.88" y2="524.47" />
  <line x1="404.38" y1="509.9" x2="418.36" y2="509.26" />
  <line x1="413.12" y1="491.48" x2="440.99" y2="494.19" />
  <line x1="427.16" y1="472.21" x2="440.76" y2="475.53" />
  <line x1="446.23" y1="452.48" x2="459.22" y2="457.7" />
  <line x1="469.93" y1="432.69" x2="482.05" y2="439.71" />
  <line x1="497.79" y1="413.24" x2="508.78" y2="421.91" />
  <line x1="529.22" y1="394.53" x2="548.51" y2="414.83" />
  <line x1="563.6" y1="376.95" x2="571.71" y2="388.36" />
  <line x1="600.23" y1="360.84" x2="606.63" y2="373.29" />
  <line x1="638.35" y1="346.54" x2="642.91" y2="359.78" />
  <line x1="677.2" y1="334.34" x2="679.83" y2="348.09" />
  <line x1="715.98" y1="324.48" x2="717.26" y2="352.45" />
  <line x1="753.9" y1="317.17" x2="752.54" y2="331.11" />
  <line x1="790.19" y1="312.56" x2="786.86" y2="326.16" />
  <line x1="824.11" y1="310.74" x2="818.88" y2="323.72" />
  <line x1="854.97" y1="311.74" x2="847.95" y2="323.85" />
  <line x1="882.14" y1="315.55" x2="864.8" y2="337.53" />
  <line x1="905.08" y1="322.09" x2="894.93" y2="331.73" />
  <line x1="923.31" y1="331.22" x2="911.89" y2="339.33" />
  <line x1="936.46" y1="342.77" x2="924" y2="349.16" />
</g>
<g stroke="#7fa6d6" stroke-width="0.8" opacity="0.9">
  <line x1="673.84" y1="449.6" x2="919.75" y2="375.27" />
  <line x1="673.84" y1="449.6" x2="890.5" y2="435.52" />
  <line x1="673.84" y1="449.6" x2="803.2" y2="499.54" />
  <line x1="673.84" y1="449.6" x2="681.23" y2="550.18" />
  <line x1="673.84" y1="449.6" x2="557.29" y2="573.87" />
  <line x1="673.84" y1="449.6" x2="464.57" y2="564.26" />
  <line x1="673.84" y1="449.6" x2="427.93" y2="523.93" />
  <line x1="673.84" y1="449.6" x2="457.18" y2="463.68" />
  <line x1="673.84" y1="449.6" x2="544.48" y2="399.66" />
  <line x1="673.84" y1="449.6" x2="666.45" y2="349.02" />
  <line x1="673.84" y1="449.6" x2="790.39" y2="325.33" />
  <line x1="673.84" y1="449.6" x2="883.11" y2="334.94" />
</g>
<g class="fade" fill="#eaf1f8" stroke="none">
  <circle cx="933.12" cy="371.3" r="1.4"/>
  <circle cx="927.5" cy="399.11" r="1.4"/>
  <circle cx="907.14" cy="429.85" r="1.4"/>
  <circle cx="873.23" cy="461.74" r="1.4"/>
  <circle cx="827.72" cy="492.92" r="1.4"/>
  <circle cx="773.27" cy="521.59" r="1.4"/>
  <circle cx="713.05" cy="546.07" r="1.4"/>
  <circle cx="650.54" cy="564.94" r="1.4"/>
  <circle cx="589.39" cy="577.11" r="1.4"/>
  <circle cx="533.15" cy="581.88" r="1.4"/>
  <circle cx="485.08" cy="578.95" r="1.4"/>
  <circle cx="447.99" cy="568.51" r="1.4"/>
  <circle cx="424.02" cy="551.15" r="1.4"/>
  <circle cx="414.56" cy="527.9" r="1.4"/>
  <circle cx="420.18" cy="500.09" r="1.4"/>
  <circle cx="440.54" cy="469.35" r="1.4"/>
  <circle cx="474.45" cy="437.46" r="1.4"/>
  <circle cx="519.96" cy="406.28" r="1.4"/>
  <circle cx="574.41" cy="377.61" r="1.4"/>
  <circle cx="634.63" cy="353.13" r="1.4"/>
  <circle cx="697.14" cy="334.26" r="1.4"/>
  <circle cx="758.29" cy="322.09" r="1.4"/>
  <circle cx="814.53" cy="317.32" r="1.4"/>
  <circle cx="862.6" cy="320.25" r="1.4"/>
  <circle cx="899.69" cy="330.69" r="1.4"/>
  <circle cx="923.66" cy="348.05" r="1.4"/>
</g>
<g stroke="#eaf1f8" stroke-width="1.4">
  <line x1="613.64" y1="82.5" x2="592.04" y2="86.7" />
  <line x1="618.61" y1="108.05" x2="597.01" y2="112.25" />
</g>
<g stroke="#9db8db" stroke-width="1">
  <line x1="600" y1="70" x2="589.31" y2="15.03" />
  <line x1="603.57" y1="46.48" x2="587.87" y2="49.54" />
  <line x1="600.37" y1="29.99" x2="584.67" y2="33.05" />
  <circle cx="589.31" cy="15.03" r="3.5" stroke="#eaf1f8"/>
  <path d="M632.72 86.36 A9 9 0 0 1 615.06 89.8" stroke="#9db8db"/>
  <line x1="615.06" y1="89.8" x2="623.89" y2="88.08" />
</g>
<g stroke="#eaf1f8" stroke-width="1.4">
  <circle cx="739.87" cy="789.05" r="13"/>
  <circle cx="739.87" cy="789.05" r="6" stroke="#9db8db" stroke-width="1"/>
</g>
<line class="fade" x1="739.87" y1="789.05" x2="754.22" y2="862.82" stroke="#5d93d6" stroke-width="0.8" stroke-dasharray="2 4" opacity="0.7"/>
<g class="fade" stroke="#7fa6d6" stroke-width="1.1" opacity="0.9">
  <polyline points="472.33,197.24 481.5,196.35 491.11,195.86 501.14,195.79 511.56,196.14 522.33,196.9 533.45,198.07 544.87,199.66 556.57,201.65 568.53,204.04 580.7,206.82 593.07,209.99 605.59,213.55 618.24,217.47 630.99,221.76 643.8,226.39 656.65,231.37"/>
  <path d="M650.13 223.43 L656.65 231.37 L646.46 232.62"/>
  <polyline points="949.86,420.98 954.89,412.7 959.14,404.52 962.58,396.47 965.2,388.56 967,380.83 967.98,373.3 968.12,365.97 967.44,358.89 965.92,352.06 963.58,345.5 960.43,339.24 956.47,333.29 951.7,327.67 946.16,322.4 939.84,317.48 932.78,312.93"/>
  <path d="M938.04 321.75 L932.78 312.93 L943.05 313.21"/>
</g>
<g class="fade" fill="#7fa6d6" stroke="none" font-size="9" font-style="italic">
  <text x="549.17" y="191.75" font-size="10" >ω₁</text>
  <text x="977.6" y="359.9" font-size="10" >ω₂</text>
</g>
<g class="fade ink-blue" stroke="#5d93d6" stroke-width="0.9" opacity="0.75">
  <line x1="403.42" y1="542.71" x2="944.26" y2="356.49" stroke-dasharray="3 4" opacity="0.55"/>
  <path d="M414.42 539.71 L403.42 542.71 L412.42 549.71"/>
  <path d="M933.26 359.49 L944.26 356.49 L935.26 349.49"/>
  <line x1="403.42" y1="542.71" x2="337.42" y2="568.71" />
  <line x1="656.8" y1="362" x2="823.62" y2="354.53" stroke-dasharray="3 4"/>
  <path d="M831.12 351.79 L823.62 354.53 L825.32 346.72"/>
</g>
<g class="fade" stroke="#5d93d6" stroke-width="0.8" opacity="0.85">
  <line x1="589.31" y1="15.03" x2="629.31" y2="11.03" />
  <circle cx="589.31" cy="15.03" r="1.6" fill="#5d93d6" stroke="none"/>
  <circle cx="629.31" cy="11.03" r="9"/>
  <line x1="597.01" y1="112.25" x2="637.01" y2="112.25" />
  <circle cx="597.01" cy="112.25" r="1.6" fill="#5d93d6" stroke="none"/>
  <circle cx="637.01" cy="112.25" r="9"/>
  <line x1="766.12" y1="311.15" x2="1000" y2="250" />
  <circle cx="766.12" cy="311.15" r="1.6" fill="#5d93d6" stroke="none"/>
  <circle cx="1000" cy="250" r="9"/>
  <line x1="665.32" y1="405.8" x2="735.32" y2="345.8" />
  <circle cx="665.32" cy="405.8" r="1.6" fill="#5d93d6" stroke="none"/>
  <circle cx="735.32" cy="345.8" r="9"/>
  <line x1="508.02" y1="579.56" x2="410" y2="360" />
  <circle cx="508.02" cy="579.56" r="1.6" fill="#5d93d6" stroke="none"/>
  <circle cx="410" cy="360" r="9"/>
  <line x1="674.19" y1="563.8" x2="690" y2="640" />
  <circle cx="674.19" cy="563.8" r="1.6" fill="#5d93d6" stroke="none"/>
  <circle cx="690" cy="640" r="9"/>
  <line x1="739.87" y1="789.05" x2="783.87" y2="795.05" />
  <circle cx="739.87" cy="789.05" r="1.6" fill="#5d93d6" stroke="none"/>
  <circle cx="783.87" cy="795.05" r="9"/>
  <line x1="784.94" y1="685.58" x2="746.94" y2="693.58" />
  <circle cx="784.94" cy="685.58" r="1.6" fill="#5d93d6" stroke="none"/>
  <circle cx="746.94" cy="693.58" r="9"/>
</g>
<g class="fade" fill="#5d93d6" stroke="none" font-size="9" text-anchor="middle">
  <text x="629.31" y="14.23" font-size="9" >1</text>
  <text x="637.01" y="115.45" font-size="9" >2</text>
  <text x="1000" y="253.2" font-size="9" >3</text>
  <text x="735.32" y="349" font-size="9" >4</text>
  <text x="410" y="363.2" font-size="9" >5</text>
  <text x="690" y="643.2" font-size="9" >6</text>
  <text x="783.87" y="798.25" font-size="9" >7</text>
  <text x="746.94" y="696.78" font-size="9" >8</text>
</g>
<g class="fade" stroke="#5d93d6" stroke-width="0.8" opacity="0.85">
  <circle cx="196" cy="226" r="78" fill="rgba(10,29,51,0.85)"/>
  <line x1="255.66" y1="276.25" x2="437.44" y2="575" stroke-dasharray="4 4"/>
</g>
<g class="fade" stroke="#9db8db" stroke-width="1" opacity="0.95">
  <circle cx="196" cy="226" r="46" stroke="#eaf1f8"/>
  <circle cx="196" cy="226" r="38"/>
  <line x1="150" y1="181" x2="242" y2="181" stroke="#9db8db" stroke-width="0.4" opacity="0.55" transform="rotate(45 196 226)"/>
  <line x1="150" y1="186" x2="242" y2="186" stroke="#9db8db" stroke-width="0.4" opacity="0.55" transform="rotate(45 196 226)"/>
  <line x1="150" y1="191" x2="242" y2="191" stroke="#9db8db" stroke-width="0.4" opacity="0.55" transform="rotate(45 196 226)"/>
  <line x1="150" y1="196" x2="242" y2="196" stroke="#9db8db" stroke-width="0.4" opacity="0.55" transform="rotate(45 196 226)"/>
  <line x1="150" y1="201" x2="242" y2="201" stroke="#9db8db" stroke-width="0.4" opacity="0.55" transform="rotate(45 196 226)"/>
  <line x1="150" y1="206" x2="242" y2="206" stroke="#9db8db" stroke-width="0.4" opacity="0.55" transform="rotate(45 196 226)"/>
  <line x1="150" y1="211" x2="242" y2="211" stroke="#9db8db" stroke-width="0.4" opacity="0.55" transform="rotate(45 196 226)"/>
  <line x1="150" y1="216" x2="242" y2="216" stroke="#9db8db" stroke-width="0.4" opacity="0.55" transform="rotate(45 196 226)"/>
  <line x1="150" y1="221" x2="242" y2="221" stroke="#9db8db" stroke-width="0.4" opacity="0.55" transform="rotate(45 196 226)"/>
  <line x1="150" y1="226" x2="242" y2="226" stroke="#9db8db" stroke-width="0.4" opacity="0.55" transform="rotate(45 196 226)"/>
  <line x1="150" y1="231" x2="242" y2="231" stroke="#9db8db" stroke-width="0.4" opacity="0.55" transform="rotate(45 196 226)"/>
  <line x1="150" y1="236" x2="242" y2="236" stroke="#9db8db" stroke-width="0.4" opacity="0.55" transform="rotate(45 196 226)"/>
  <line x1="150" y1="241" x2="242" y2="241" stroke="#9db8db" stroke-width="0.4" opacity="0.55" transform="rotate(45 196 226)"/>
  <line x1="150" y1="246" x2="242" y2="246" stroke="#9db8db" stroke-width="0.4" opacity="0.55" transform="rotate(45 196 226)"/>
  <line x1="150" y1="251" x2="242" y2="251" stroke="#9db8db" stroke-width="0.4" opacity="0.55" transform="rotate(45 196 226)"/>
  <line x1="150" y1="256" x2="242" y2="256" stroke="#9db8db" stroke-width="0.4" opacity="0.55" transform="rotate(45 196 226)"/>
  <line x1="150" y1="261" x2="242" y2="261" stroke="#9db8db" stroke-width="0.4" opacity="0.55" transform="rotate(45 196 226)"/>
  <line x1="150" y1="266" x2="242" y2="266" stroke="#9db8db" stroke-width="0.4" opacity="0.55" transform="rotate(45 196 226)"/>
  <line x1="150" y1="271" x2="242" y2="271" stroke="#9db8db" stroke-width="0.4" opacity="0.55" transform="rotate(45 196 226)"/>
  <circle cx="196" cy="226" r="38" fill="rgba(10,29,51,1)" stroke="#9db8db"/>
  <line x1="165.02" y1="204" x2="226.98" y2="204" stroke="#7fa6d6" stroke-width="0.5"/>
  <line x1="158.65" y1="219" x2="233.35" y2="219" stroke="#7fa6d6" stroke-width="0.5"/>
  <line x1="158.85" y1="234" x2="233.15" y2="234" stroke="#7fa6d6" stroke-width="0.5"/>
  <line x1="165.75" y1="249" x2="226.25" y2="249" stroke="#7fa6d6" stroke-width="0.5"/>
  <line x1="196" y1="188" x2="196" y2="264" stroke="#5d93d6" stroke-width="0.5" stroke-dasharray="3 3"/>
</g>
<g class="fade" fill="#5d93d6" stroke="none" font-size="8.5" text-anchor="middle">
  <text x="196" y="170" font-size="9" >DETAIL  A</text>
  <text x="196" y="180" font-size="6.5" >TORUS SECTION · 5:1</text>
  <text x="196" y="286" font-size="7" >ø 28 m</text>
</g>
<g class="fade" stroke="#9db8db" stroke-width="0.7" opacity="0.85">
  <rect x="996" y="70" width="250" height="160" stroke="#eaf1f8" stroke-width="0.9"/>
  <line x1="996" y1="92" x2="1246" y2="92" stroke="#eaf1f8"/>
  <line x1="996" y1="115" x2="1246" y2="115" />
  <line x1="996" y1="138" x2="1246" y2="138" />
  <line x1="996" y1="161" x2="1246" y2="161" />
  <line x1="996" y1="184" x2="1246" y2="184" />
  <line x1="996" y1="207" x2="1246" y2="207" />
</g>
<g class="fade" fill="#5d93d6" stroke="none" font-size="8.5" letter-spacing="0.5">
  <text x="1006" y="85" font-size="9" >PRINCIPAL  DIMENSIONS</text>
  <text x="1006" y="107" font-size="8.5" >RING A ø</text>
  <text x="1236" y="107" font-size="8.5" text-anchor="end" fill="#eaf1f8">480 m</text>
  <text x="1006" y="130" font-size="8.5" >RING B ø</text>
  <text x="1236" y="130" font-size="8.5" text-anchor="end" fill="#eaf1f8">432 m</text>
  <text x="1006" y="153" font-size="8.5" >SPIN RATE</text>
  <text x="1236" y="153" font-size="8.5" text-anchor="end" fill="#eaf1f8">1.9 rpm</text>
  <text x="1006" y="176" font-size="8.5" >RIM GRAVITY</text>
  <text x="1236" y="176" font-size="8.5" text-anchor="end" fill="#eaf1f8">0.98 g</text>
  <text x="1006" y="199" font-size="8.5" >CREW</text>
  <text x="1236" y="199" font-size="8.5" text-anchor="end" fill="#eaf1f8">2 400</text>
  <text x="1006" y="222" font-size="8.5" >MASS</text>
  <text x="1236" y="222" font-size="8.5" text-anchor="end" fill="#eaf1f8">3.1×10⁶ t</text>
</g>
<g class="fade" fill="#5d93d6" stroke="none" font-size="7.5">
  <text x="60" y="580" font-size="9" >NOTES</text>
  <text x="60" y="595" font-size="7.5" >1. ALL DIMENSIONS IN METRES U.N.O.</text>
  <text x="60" y="608" font-size="7.5" >2. RINGS COUNTER-ROTATE; NET TORQUE ≈ 0.</text>
  <text x="60" y="621" font-size="7.5" >3. HABITAT SECTION PER DETAIL A.</text>
</g>
<g class="fade" stroke="#9db8db" stroke-width="0.8" opacity="0.9">
  <line x1="96" y1="652" x2="96" y2="706" stroke="#5d93d6" stroke-dasharray="2 3"/>
  <line x1="96" y1="686" x2="145.17" y2="669.07" stroke="#eaf1f8"/>
  <line x1="96" y1="686" x2="49.67" y2="709.61" stroke="#eaf1f8"/>
  <path d="M96 662 A24 24 0 0 1 118.69 678.19" stroke="#5d93d6" stroke-width="0.7"/>
  <path d="M79.96 694.17 A18 18 0 0 1 96 668" stroke="#5d93d6" stroke-width="0.7"/>
</g>
<g class="fade" fill="#5d93d6" stroke="none" font-size="7.5">
  <text x="126" y="656" font-size="8" >α 19°</text>
  <text x="32" y="660" font-size="8" >β 27°</text>
  <text x="60" y="726" font-size="7" >RING INCLINATION</text>
</g>
<g class="fade" stroke="#eaf1f8" stroke-width="0.9" opacity="0.9">
  <rect x="60" y="752" width="104" height="6"/>
  <rect x="60" y="752" width="26" height="6" fill="#9db8db" stroke="none"/>
  <rect x="112" y="752" width="26" height="6" fill="#9db8db" stroke="none"/>
</g>
<g class="fade" fill="#5d93d6" stroke="none" font-size="7" text-anchor="middle">
  <text x="60" y="768" font-size="7" >0</text>
  <text x="112" y="768" font-size="7" >200</text>
  <text x="164" y="768" font-size="7" >400</text>
  <text x="180" y="768" font-size="7" >m</text>
</g>
<g class="fade" stroke="#9db8db" stroke-width="0.9" opacity="0.9">
  <line x1="120" y1="110" x2="120" y2="84" />
  <path d="M117.25 89 L120 84 L122.75 89"/>
  <line x1="120" y1="110" x2="146" y2="110" />
  <path d="M141 107.25 L146 110 L141 112.75"/>
  <line x1="120" y1="110" x2="103" y2="125" />
  <path d="M108.56 123.7 L103 125 L104.88 119.61"/>
</g>
<g class="fade" fill="#5d93d6" stroke="none" font-size="7.5">
  <text x="117" y="80" font-size="8" >Z</text>
  <text x="150" y="113" font-size="8" >X</text>
  <text x="92" y="130" font-size="8" >Y</text>
</g>
<g class="fade" fill="#5d93d6" stroke="none" font-size="9">
  <text x="263" y="572" font-size="12" >ø 480 m</text>
  <text x="46" y="470" font-size="12" letter-spacing="0.5" transform="rotate(-90 46 470)">FIG. II · GYROSCOPIC HABITAT STATION</text>
  <text x="1234" y="566" font-size="12" letter-spacing="0.5" transform="rotate(-90 1234 566)">UNIT R-2001</text>
  <text x="546.23" y="211.49" font-size="9" >RING B</text>
  <text x="678.8" y="356" font-size="8.5" fill="#7fa6d6">R 216 m</text>
  <text x="687.32" y="391.8" font-size="8.5" >HUB</text>
  <text x="795.87" y="799.05" font-size="8" fill="#7fa6d6">CW · BALLAST</text>
</g>
</svg>
