<svg viewBox="0 0 90 820" xmlns="http://www.w3.org/2000/svg">

  <!-- faint grid -->
  <g stroke="#74c98a" stroke-width="0.6" opacity="0.35" stroke-dasharray="1.5 5">
    <line x1="6" y1="300" x2="84" y2="300"/>
    <line x1="6" y1="600" x2="84" y2="600"/>
  </g>

  <!-- spiral notepad -->
  <rect x="22" y="126" width="46" height="120" rx="3"
        fill="rgba(116,201,138,.1)" stroke="#eaf6ec" stroke-width="1.6" stroke-linejoin="round"/>
  <g stroke="#eaf6ec" stroke-width="1.2" stroke-linecap="round">
    <line x1="28" y1="119" x2="28" y2="132"/>
    <line x1="36" y1="119" x2="36" y2="132"/>
    <line x1="44" y1="119" x2="44" y2="132"/>
    <line x1="52" y1="119" x2="52" y2="132"/>
    <line x1="60" y1="119" x2="60" y2="132"/>
  </g>
  <g stroke="#74c98a" stroke-width="0.8" opacity="0.75">
    <line x1="28" y1="160" x2="62" y2="160"/>
    <line x1="28" y1="176" x2="62" y2="176"/>
    <line x1="28" y1="192" x2="58" y2="192"/>
    <line x1="28" y1="208" x2="54" y2="208"/>
    <line x1="28" y1="224" x2="48" y2="224"/>
  </g>

  <!-- steam -->
  <g fill="none" stroke="#74c98a" stroke-width="1" opacity="0.7" stroke-linecap="round">
    <path d="M37 398 C 31 378 43 364 37 344 C 33 328 41 316 37 300"/>
    <path d="M53 398 C 59 378 47 364 53 344 C 57 330 49 318 53 304"/>
  </g>

  <!-- coffee mug -->
  <g fill="rgba(116,201,138,.12)" stroke="#eaf6ec" stroke-width="1.7"
     stroke-linejoin="round" stroke-linecap="round">
    <path d="M22 412 L26 526 C 26 538 34 546 45 546 C 56 546 64 538 64 526 L68 412 Z"/>
    <path d="M68 426 C 82 426 84 448 72 454"/>
    <line x1="24" y1="428" x2="66" y2="428"/>
  </g>

  <!-- reading glasses -->
  <g fill="none" stroke="#eaf6ec" stroke-width="1.6">
    <circle cx="30" cy="654" r="12"/>
    <circle cx="60" cy="654" r="12"/>
    <path d="M42 652 q 3 -4 6 0"/>
    <path d="M18 650 l -8 -3"/>
    <path d="M72 650 l 8 -3"/>
  </g>

  <!-- annotations -->
  <text x="84" y="210" fill="#74c98a" font-family="monospace" font-size="8" transform="rotate(-90 84 210)">FIG. — THE DESK</text>
  <text x="12" y="730" fill="#74c98a" font-family="monospace" font-size="7.5">MORNING · I</text>
</svg>
