<svg viewBox="0 0 90 820" xmlns="http://www.w3.org/2000/svg">

  <!-- faint grid -->
  <g stroke="#74c98a" stroke-width="0.6" opacity="0.35" stroke-dasharray="1.5 5">
    <line x1="6" y1="320" x2="84" y2="320"/>
    <line x1="6" y1="520" x2="84" y2="520"/>
  </g>

  <!-- fountain pen -->
  <g fill="rgba(116,201,138,.12)" stroke="#eaf6ec" stroke-width="1.6" stroke-linejoin="round">
    <path d="M18 272 L56 156 L64 160 L26 276 Z"/>
    <path d="M18 272 L12 288 L26 276 Z" fill="#eaf6ec"/>
    <line x1="48" y1="172" x2="56" y2="176"/>
    <path d="M56 156 L62 148 L70 152 L64 160 Z"/>
  </g>

  <!-- inkwell -->
  <g fill="rgba(116,201,138,.12)" stroke="#eaf6ec" stroke-width="1.7" stroke-linejoin="round">
    <path d="M28 462 L30 412 C 30 404 60 404 60 412 L62 462 C 62 474 28 474 28 462 Z"/>
    <rect x="37" y="394" width="16" height="20" rx="2"/>
  </g>
  <path d="M30 434 C 40 430 50 430 60 434"
        fill="none" stroke="#74c98a" stroke-width="1" opacity="0.85"/>

  <!-- potted plant -->
  <g fill="none" stroke="#eaf6ec" stroke-width="1.5" stroke-linecap="round" stroke-linejoin="round">
    <path d="M36 662 C 30 626 26 602 34 574"/>
    <path d="M50 662 C 56 626 60 604 52 580"/>
    <path d="M43 664 C 43 628 43 612 43 588"/>
    <path d="M34 574 C 28 572 26 580 30 584 C 26 588 30 596 36 592"/>
    <path d="M52 580 C 58 578 60 586 56 590 C 60 594 56 602 50 598"/>
    <path d="M43 588 C 38 584 38 576 43 574 C 48 576 48 584 43 588"/>
    <path d="M30 664 L34 702 L52 702 L56 664 Z" fill="rgba(116,201,138,.15)"/>
  </g>

  <!-- ink drops -->
  <g fill="#74c98a">
    <circle cx="40" cy="330" r="1.4"/>
    <circle cx="58" cy="372" r="1.2"/>
    <circle cx="34" cy="510" r="1.3"/>
  </g>

  <!-- annotations -->
  <text x="84" y="210" fill="#74c98a" font-family="monospace" font-size="8" transform="rotate(-90 84 210)">FIG. — THE DESK</text>
  <text x="12" y="746" fill="#74c98a" font-family="monospace" font-size="7.5">DAILY KIT · II</text>
</svg>
